<mxfile host="drawio-plugin" modified="2022-04-17T10:52:22.066Z" agent="5.0 (Macintosh; Intel Mac OS X 11_2_3) AppleWebKit/537.36 (KHTML, like Gecko) Chrome/89.0.4389.114 Safari/537.36" etag="BoOyJwQjAYAdZZDyw-T2" version="15.5.4" type="embed" pages="6"><diagram id="rvXL0gvETLJnJSn2QJJ2" name="App structure"><mxGraphModel dx="1578" dy="1560" grid="0" gridSize="10" guides="1" tooltips="1" connect="1" arrows="1" fold="1" page="0" pageScale="1" pageWidth="827" pageHeight="1169" math="0" shadow="0"><root><mxCell id="0"/><mxCell id="1" parent="0"/><mxCell id="124" value="&lt;h1&gt;App structure&lt;/h1&gt;" style="text;html=1;strokeColor=none;fillColor=none;spacing=5;spacingTop=-20;whiteSpace=wrap;overflow=hidden;rounded=0;" parent="1" vertex="1"><mxGeometry x="-800" y="-680" width="200" height="40" as="geometry"/></mxCell><mxCell id="130" style="edgeStyle=elbowEdgeStyle;html=1;entryX=0;entryY=0.1;entryDx=0;entryDy=0;" parent="1" edge="1"><mxGeometry relative="1" as="geometry"><mxPoint x="-650" y="-991" as="sourcePoint"/></mxGeometry></mxCell><mxCell id="134" value="&lt;h1&gt;&lt;font style=&quot;font-size: 16px&quot;&gt;Production&lt;/font&gt;&lt;/h1&gt;" style="text;html=1;strokeColor=none;fillColor=none;spacing=5;spacingTop=-20;whiteSpace=wrap;overflow=hidden;rounded=0;fontColor=#33FF33;" parent="1" vertex="1"><mxGeometry x="-800" y="-610" width="120" height="40" as="geometry"/></mxCell><mxCell id="143" value="&lt;h1&gt;&lt;font style=&quot;font-size: 16px&quot;&gt;Development / Demo&lt;/font&gt;&lt;/h1&gt;" style="text;html=1;strokeColor=none;fillColor=none;spacing=5;spacingTop=-20;whiteSpace=wrap;overflow=hidden;rounded=0;fontColor=#007FFF;" parent="1" vertex="1"><mxGeometry x="-800" y="-430" width="200" height="40" as="geometry"/></mxCell><mxCell id="152" value="&lt;h1&gt;&lt;font style=&quot;font-size: 16px&quot;&gt;Test&lt;/font&gt;&lt;/h1&gt;" style="text;html=1;strokeColor=none;fillColor=none;spacing=5;spacingTop=-20;whiteSpace=wrap;overflow=hidden;rounded=0;fontColor=#FF3399;" parent="1" vertex="1"><mxGeometry x="-480" y="-610" width="50" height="40" as="geometry"/></mxCell><mxCell id="169" style="edgeStyle=orthogonalEdgeStyle;html=1;entryX=0;entryY=0.1;entryDx=0;entryDy=0;" parent="1" edge="1"><mxGeometry relative="1" as="geometry"><mxPoint x="-300" y="-991" as="sourcePoint"/></mxGeometry></mxCell><mxCell id="170" style="edgeStyle=orthogonalEdgeStyle;html=1;entryX=0;entryY=0.1;entryDx=0;entryDy=0;" parent="1" edge="1"><mxGeometry relative="1" as="geometry"><mxPoint x="-470" y="-991" as="sourcePoint"/></mxGeometry></mxCell><mxCell id="4tLhlgmi5xFD76lPdxL--186" style="edgeStyle=elbowEdgeStyle;rounded=1;orthogonalLoop=1;jettySize=auto;html=1;entryX=0;entryY=0.5;entryDx=0;entryDy=0;endArrow=classic;endFill=1;strokeColor=#33FF33;" parent="1" source="4tLhlgmi5xFD76lPdxL--173" target="4tLhlgmi5xFD76lPdxL--174" edge="1"><mxGeometry relative="1" as="geometry"/></mxCell><mxCell id="4tLhlgmi5xFD76lPdxL--173" value="Shell" style="rounded=1;whiteSpace=wrap;arcSize=22;fontFamily=Helvetica;fontSize=11;fontColor=default;strokeColor=#33FF33;fillColor=none;startSize=26;" parent="1" vertex="1"><mxGeometry x="-800" y="-560" width="120" height="40" as="geometry"/></mxCell><mxCell id="4tLhlgmi5xFD76lPdxL--187" style="edgeStyle=elbowEdgeStyle;rounded=1;orthogonalLoop=1;jettySize=auto;html=1;entryX=0;entryY=0.5;entryDx=0;entryDy=0;endArrow=classic;endFill=1;strokeColor=#33FF33;exitX=1;exitY=0.5;exitDx=0;exitDy=0;" parent="1" source="4tLhlgmi5xFD76lPdxL--174" target="4tLhlgmi5xFD76lPdxL--178" edge="1"><mxGeometry relative="1" as="geometry"/></mxCell><mxCell id="4tLhlgmi5xFD76lPdxL--190" style="edgeStyle=elbowEdgeStyle;rounded=1;orthogonalLoop=1;jettySize=auto;html=1;entryX=0.5;entryY=0;entryDx=0;entryDy=0;endArrow=classic;endFill=1;strokeColor=#007FFF;" parent="1" source="4tLhlgmi5xFD76lPdxL--174" target="4tLhlgmi5xFD76lPdxL--177" edge="1"><mxGeometry relative="1" as="geometry"/></mxCell><mxCell id="4tLhlgmi5xFD76lPdxL--194" style="edgeStyle=elbowEdgeStyle;rounded=1;orthogonalLoop=1;jettySize=auto;html=1;entryX=0;entryY=0.25;entryDx=0;entryDy=0;fontColor=#33FF33;endArrow=classic;endFill=1;strokeColor=#FF3399;" parent="1" source="4tLhlgmi5xFD76lPdxL--174" target="4tLhlgmi5xFD76lPdxL--188" edge="1"><mxGeometry relative="1" as="geometry"/></mxCell><mxCell id="4tLhlgmi5xFD76lPdxL--174" value="OuterShell" style="rounded=1;whiteSpace=wrap;arcSize=22;fontFamily=Helvetica;fontSize=11;fontColor=default;strokeColor=default;fillColor=none;startSize=26;" parent="1" vertex="1"><mxGeometry x="-480" y="-560" width="120" height="40" as="geometry"/></mxCell><mxCell id="4tLhlgmi5xFD76lPdxL--185" style="edgeStyle=elbowEdgeStyle;rounded=1;orthogonalLoop=1;jettySize=auto;html=1;endArrow=classic;endFill=1;strokeColor=#007FFF;" parent="1" source="4tLhlgmi5xFD76lPdxL--175" target="4tLhlgmi5xFD76lPdxL--176" edge="1"><mxGeometry relative="1" as="geometry"/></mxCell><mxCell id="4tLhlgmi5xFD76lPdxL--175" value="Sandbox" style="rounded=1;whiteSpace=wrap;arcSize=22;fontFamily=Helvetica;fontSize=11;fontColor=default;strokeColor=#007FFF;fillColor=none;startSize=26;" parent="1" vertex="1"><mxGeometry x="-800" y="-480" width="120" height="40" as="geometry"/></mxCell><mxCell id="4tLhlgmi5xFD76lPdxL--189" style="edgeStyle=elbowEdgeStyle;rounded=1;orthogonalLoop=1;jettySize=auto;html=1;entryX=0;entryY=0.75;entryDx=0;entryDy=0;endArrow=classic;endFill=1;strokeColor=#007FFF;" parent="1" source="4tLhlgmi5xFD76lPdxL--176" target="4tLhlgmi5xFD76lPdxL--174" edge="1"><mxGeometry relative="1" as="geometry"/></mxCell><mxCell id="4tLhlgmi5xFD76lPdxL--176" value="SoryBook" style="rounded=1;whiteSpace=wrap;arcSize=22;fontFamily=Helvetica;fontSize=11;fontColor=default;strokeColor=#007FFF;fillColor=none;startSize=26;" parent="1" vertex="1"><mxGeometry x="-640" y="-480" width="120" height="40" as="geometry"/></mxCell><mxCell id="4tLhlgmi5xFD76lPdxL--191" style="edgeStyle=elbowEdgeStyle;rounded=1;orthogonalLoop=1;jettySize=auto;html=1;entryX=0;entryY=0.5;entryDx=0;entryDy=0;endArrow=classic;endFill=1;strokeColor=#007FFF;" parent="1" source="4tLhlgmi5xFD76lPdxL--177" target="4tLhlgmi5xFD76lPdxL--188" edge="1"><mxGeometry relative="1" as="geometry"/></mxCell><mxCell id="4tLhlgmi5xFD76lPdxL--177" value="Provider" style="rounded=1;whiteSpace=wrap;arcSize=22;fontFamily=Helvetica;fontSize=11;fontColor=default;strokeColor=#007FFF;fillColor=none;startSize=26;" parent="1" vertex="1"><mxGeometry x="-480" y="-480" width="120" height="40" as="geometry"/></mxCell><mxCell id="4tLhlgmi5xFD76lPdxL--192" style="edgeStyle=elbowEdgeStyle;rounded=1;orthogonalLoop=1;jettySize=auto;html=1;entryX=0;entryY=0.25;entryDx=0;entryDy=0;endArrow=classic;endFill=1;strokeColor=#33FF33;" parent="1" source="4tLhlgmi5xFD76lPdxL--178" target="4tLhlgmi5xFD76lPdxL--180" edge="1"><mxGeometry relative="1" as="geometry"/></mxCell><mxCell id="4tLhlgmi5xFD76lPdxL--178" value="FirebaseProvider" style="rounded=1;whiteSpace=wrap;arcSize=22;fontFamily=Helvetica;fontSize=11;fontColor=default;strokeColor=#33FF33;fillColor=none;startSize=26;" parent="1" vertex="1"><mxGeometry x="-320" y="-600" width="120" height="40" as="geometry"/></mxCell><mxCell id="4tLhlgmi5xFD76lPdxL--183" style="edgeStyle=elbowEdgeStyle;rounded=1;orthogonalLoop=1;jettySize=auto;html=1;entryX=0;entryY=0.5;entryDx=0;entryDy=0;endArrow=classic;endFill=1;" parent="1" source="4tLhlgmi5xFD76lPdxL--180" target="4tLhlgmi5xFD76lPdxL--181" edge="1"><mxGeometry relative="1" as="geometry"/></mxCell><mxCell id="4tLhlgmi5xFD76lPdxL--184" style="edgeStyle=elbowEdgeStyle;rounded=1;orthogonalLoop=1;jettySize=auto;html=1;entryX=0;entryY=0.5;entryDx=0;entryDy=0;endArrow=classic;endFill=1;" parent="1" source="4tLhlgmi5xFD76lPdxL--180" target="4tLhlgmi5xFD76lPdxL--182" edge="1"><mxGeometry relative="1" as="geometry"/></mxCell><mxCell id="4tLhlgmi5xFD76lPdxL--180" value="App" style="rounded=1;whiteSpace=wrap;arcSize=22;fontFamily=Helvetica;fontSize=11;fontColor=default;strokeColor=default;fillColor=none;startSize=26;" parent="1" vertex="1"><mxGeometry x="-160" y="-520" width="120" height="40" as="geometry"/></mxCell><mxCell id="4tLhlgmi5xFD76lPdxL--181" value="Nav / App Bar" style="rounded=1;whiteSpace=wrap;arcSize=22;fontFamily=Helvetica;fontSize=11;fontColor=default;strokeColor=default;fillColor=none;startSize=26;" parent="1" vertex="1"><mxGeometry y="-560" width="120" height="40" as="geometry"/></mxCell><UserObject label="UPage" link="data:page/id,UocGhjjfCX4qjQ99Hq9M" id="4tLhlgmi5xFD76lPdxL--182"><mxCell style="rounded=1;whiteSpace=wrap;arcSize=22;fontFamily=Helvetica;fontSize=11;fontColor=default;strokeColor=#6666FF;fillColor=none;startSize=26;" parent="1" vertex="1"><mxGeometry y="-480" width="120" height="40" as="geometry"/></mxCell></UserObject><mxCell id="4tLhlgmi5xFD76lPdxL--193" style="edgeStyle=elbowEdgeStyle;rounded=1;orthogonalLoop=1;jettySize=auto;html=1;entryX=0;entryY=0.5;entryDx=0;entryDy=0;endArrow=classic;endFill=1;strokeColor=#007FFF;" parent="1" source="4tLhlgmi5xFD76lPdxL--188" target="4tLhlgmi5xFD76lPdxL--180" edge="1"><mxGeometry relative="1" as="geometry"/></mxCell><mxCell id="4tLhlgmi5xFD76lPdxL--195" style="edgeStyle=elbowEdgeStyle;rounded=1;orthogonalLoop=1;jettySize=auto;html=1;entryX=0;entryY=0.75;entryDx=0;entryDy=0;fontColor=#33FF33;endArrow=classic;endFill=1;strokeColor=#FF3399;exitX=1;exitY=0.75;exitDx=0;exitDy=0;" parent="1" source="4tLhlgmi5xFD76lPdxL--188" target="4tLhlgmi5xFD76lPdxL--180" edge="1"><mxGeometry relative="1" as="geometry"/></mxCell><mxCell id="4tLhlgmi5xFD76lPdxL--188" value="FSProvider" style="rounded=1;whiteSpace=wrap;arcSize=22;fontFamily=Helvetica;fontSize=11;fontColor=default;strokeColor=default;fillColor=none;startSize=26;" parent="1" vertex="1"><mxGeometry x="-320" y="-520" width="120" height="40" as="geometry"/></mxCell><mxCell id="4tLhlgmi5xFD76lPdxL--197" value="&lt;h1&gt;&lt;font style=&quot;font-size: 16px&quot;&gt;Web?&lt;/font&gt;&lt;/h1&gt;" style="text;html=1;strokeColor=none;fillColor=none;spacing=5;spacingTop=-20;whiteSpace=wrap;overflow=hidden;rounded=0;" parent="1" vertex="1"><mxGeometry x="-800" y="-360" width="200" height="40" as="geometry"/></mxCell><mxCell id="4tLhlgmi5xFD76lPdxL--199" style="rounded=1;orthogonalLoop=1;jettySize=auto;html=1;fontColor=#FF3399;endArrow=none;endFill=0;strokeColor=#FFFFFF;opacity=30;dashed=1;entryX=0.5;entryY=1;entryDx=0;entryDy=0;" parent="1" source="4tLhlgmi5xFD76lPdxL--198" target="4tLhlgmi5xFD76lPdxL--188" edge="1"><mxGeometry relative="1" as="geometry"><mxPoint x="-90" y="-450" as="targetPoint"/></mxGeometry></mxCell><mxCell id="4tLhlgmi5xFD76lPdxL--198" value="Reloads atoms" style="rounded=1;whiteSpace=wrap;arcSize=22;fontFamily=Helvetica;fontSize=11;fontColor=default;strokeColor=none;fillColor=none;startSize=26;" parent="1" vertex="1"><mxGeometry x="-299.9999999999998" y="-460" width="80" height="20" as="geometry"/></mxCell><mxCell id="4tLhlgmi5xFD76lPdxL--200" style="rounded=1;orthogonalLoop=1;jettySize=auto;html=1;fontColor=#FF3399;endArrow=none;endFill=0;strokeColor=#FFFFFF;opacity=30;dashed=1;entryX=0.5;entryY=1;entryDx=0;entryDy=0;" parent="1" source="4tLhlgmi5xFD76lPdxL--201" target="4tLhlgmi5xFD76lPdxL--180" edge="1"><mxGeometry relative="1" as="geometry"><mxPoint x="30" y="-400" as="targetPoint"/></mxGeometry></mxCell><mxCell id="4tLhlgmi5xFD76lPdxL--201" value="Or another story in test &amp; dev" style="rounded=1;whiteSpace=wrap;arcSize=22;fontFamily=Helvetica;fontSize=11;fontColor=default;strokeColor=none;fillColor=none;startSize=26;" parent="1" vertex="1"><mxGeometry x="-180" y="-460" width="160" height="20" as="geometry"/></mxCell><mxCell id="7CzlPhc0INmTFZs7EXmx-172" style="rounded=1;orthogonalLoop=1;jettySize=auto;html=1;fontColor=#FF3399;endArrow=none;endFill=0;strokeColor=#FFFFFF;opacity=30;dashed=1;entryX=0.5;entryY=1;entryDx=0;entryDy=0;" parent="1" source="7CzlPhc0INmTFZs7EXmx-173" target="4tLhlgmi5xFD76lPdxL--178" edge="1"><mxGeometry relative="1" as="geometry"><mxPoint x="-240.00000000000023" y="-610" as="targetPoint"/></mxGeometry></mxCell><mxCell id="7CzlPhc0INmTFZs7EXmx-173" value="interchangeable" style="rounded=1;whiteSpace=wrap;arcSize=22;fontFamily=Helvetica;fontSize=11;fontColor=default;strokeColor=none;fillColor=none;startSize=26;textOpacity=30;" parent="1" vertex="1"><mxGeometry x="-300" y="-550" width="80" height="20" as="geometry"/></mxCell><mxCell id="7CzlPhc0INmTFZs7EXmx-174" style="rounded=1;orthogonalLoop=1;jettySize=auto;html=1;fontColor=#FF3399;endArrow=none;endFill=0;strokeColor=#FFFFFF;opacity=30;dashed=1;entryX=0.5;entryY=1;entryDx=0;entryDy=0;exitX=0.5;exitY=0;exitDx=0;exitDy=0;" parent="1" source="4tLhlgmi5xFD76lPdxL--188" target="7CzlPhc0INmTFZs7EXmx-173" edge="1"><mxGeometry relative="1" as="geometry"><mxPoint x="-250" y="-550" as="targetPoint"/><mxPoint x="-250" y="-540" as="sourcePoint"/></mxGeometry></mxCell></root></mxGraphModel></diagram><diagram id="UocGhjjfCX4qjQ99Hq9M" name="UPage structure"><mxGraphModel dx="1178" dy="1960" grid="0" gridSize="10" guides="1" tooltips="1" connect="1" arrows="1" fold="1" page="0" pageScale="1" pageWidth="827" pageHeight="1169" math="0" shadow="0"><root><mxCell id="32iX6y1p6pqTDlrGPlU1-0"/><mxCell id="32iX6y1p6pqTDlrGPlU1-1" parent="32iX6y1p6pqTDlrGPlU1-0"/><mxCell id="_nZgDXnTTzhl0Go7vqyT-0" value="UBlockSet" style="swimlane;fontStyle=0;childLayout=stackLayout;horizontal=1;startSize=26;fillColor=none;horizontalStack=0;resizeParent=1;resizeParentMax=0;resizeLast=0;collapsible=1;marginBottom=0;rounded=1;points=[[0,0.1],[0,0.05],[0,0.01],[0.5,1],[0.5,0]];" parent="32iX6y1p6pqTDlrGPlU1-1" vertex="1"><mxGeometry x="239.9999999999999" y="-800" width="160" height="209" as="geometry"><mxRectangle x="234.9999999999999" y="-810" width="140" height="40" as="alternateBounds"/></mxGeometry></mxCell><mxCell id="_nZgDXnTTzhl0Go7vqyT-1" value="blocks" style="text;strokeColor=none;fillColor=none;align=left;verticalAlign=top;spacingLeft=4;spacingRight=4;overflow=hidden;rotatable=0;points=[[0,0.5],[1,0.5]];portConstraint=eastwest;rounded=1;" parent="_nZgDXnTTzhl0Go7vqyT-0" vertex="1"><mxGeometry y="26" width="160" height="26" as="geometry"/></mxCell><mxCell id="_nZgDXnTTzhl0Go7vqyT-2" value="" style="text;align=center;verticalAlign=bottom;spacingLeft=4;spacingRight=4;overflow=hidden;rotatable=0;points=[[0,0.5],[1,0.5]];portConstraint=eastwest;rounded=1;horizontal=1;fontColor=#ffffff;fillColor=#FFFFFF;" parent="_nZgDXnTTzhl0Go7vqyT-0" vertex="1"><mxGeometry y="52" width="160" height="1" as="geometry"/></mxCell><mxCell id="c-vuEZocinBddn0seRQh-1" value="id" style="text;strokeColor=none;fillColor=none;align=left;verticalAlign=top;spacingLeft=4;spacingRight=4;overflow=hidden;rotatable=0;points=[[0,0.5],[1,0.5]];portConstraint=eastwest;rounded=1;" parent="_nZgDXnTTzhl0Go7vqyT-0" vertex="1"><mxGeometry y="53" width="160" height="26" as="geometry"/></mxCell><mxCell id="_nZgDXnTTzhl0Go7vqyT-8" value="blocks" style="text;strokeColor=none;fillColor=none;align=left;verticalAlign=top;spacingLeft=4;spacingRight=4;overflow=hidden;rotatable=0;points=[[0,0.5],[1,0.5]];portConstraint=eastwest;rounded=1;" parent="_nZgDXnTTzhl0Go7vqyT-0" vertex="1"><mxGeometry y="79" width="160" height="26" as="geometry"/></mxCell><mxCell id="_nZgDXnTTzhl0Go7vqyT-9" value="titleS" style="text;strokeColor=none;fillColor=none;align=left;verticalAlign=top;spacingLeft=4;spacingRight=4;overflow=hidden;rotatable=0;points=[[0,0.5],[1,0.5]];portConstraint=eastwest;rounded=1;" parent="_nZgDXnTTzhl0Go7vqyT-0" vertex="1"><mxGeometry y="105" width="160" height="26" as="geometry"/></mxCell><mxCell id="c-vuEZocinBddn0seRQh-0" value="readonly" style="text;strokeColor=none;fillColor=none;align=left;verticalAlign=top;spacingLeft=4;spacingRight=4;overflow=hidden;rotatable=0;points=[[0,0.5],[1,0.5]];portConstraint=eastwest;rounded=1;" parent="_nZgDXnTTzhl0Go7vqyT-0" vertex="1"><mxGeometry y="131" width="160" height="26" as="geometry"/></mxCell><mxCell id="_nZgDXnTTzhl0Go7vqyT-11" value="factoryPlaceholder" style="text;strokeColor=none;fillColor=none;align=left;verticalAlign=top;spacingLeft=4;spacingRight=4;overflow=hidden;rotatable=0;points=[[0,0.5],[1,0.5]];portConstraint=eastwest;rounded=1;" parent="_nZgDXnTTzhl0Go7vqyT-0" vertex="1"><mxGeometry y="157" width="160" height="26" as="geometry"/></mxCell><mxCell id="_nZgDXnTTzhl0Go7vqyT-10" value="hideFactory" style="text;strokeColor=none;fillColor=none;align=left;verticalAlign=top;spacingLeft=4;spacingRight=4;overflow=hidden;rotatable=0;points=[[0,0.5],[1,0.5]];portConstraint=eastwest;rounded=1;" parent="_nZgDXnTTzhl0Go7vqyT-0" vertex="1"><mxGeometry y="183" width="160" height="26" as="geometry"/></mxCell><mxCell id="_nZgDXnTTzhl0Go7vqyT-13" value="&lt;h1&gt;UPage structure&lt;/h1&gt;" style="text;html=1;strokeColor=none;fillColor=none;spacing=5;spacingTop=-20;whiteSpace=wrap;overflow=hidden;rounded=0;" parent="32iX6y1p6pqTDlrGPlU1-1" vertex="1"><mxGeometry x="-160" y="-880" width="200" height="40" as="geometry"/></mxCell><mxCell id="_nZgDXnTTzhl0Go7vqyT-20" style="edgeStyle=elbowEdgeStyle;html=1;entryX=0;entryY=0.01;entryDx=0;entryDy=0;" parent="32iX6y1p6pqTDlrGPlU1-1" source="_nZgDXnTTzhl0Go7vqyT-1" target="c-vuEZocinBddn0seRQh-3" edge="1"><mxGeometry relative="1" as="geometry"/></mxCell><mxCell id="_nZgDXnTTzhl0Go7vqyT-55" value="UBlockContent" style="swimlane;fontStyle=0;childLayout=stackLayout;horizontal=1;startSize=30;fillColor=none;horizontalStack=0;resizeParent=1;resizeParentMax=0;resizeLast=0;collapsible=1;marginBottom=0;rounded=1;points=[[0,0.1],[0,0.05],[0,0.01],[0.5,1],[0.5,0]];" parent="32iX6y1p6pqTDlrGPlU1-1" vertex="1"><mxGeometry x="639.9999999999995" y="-720" width="160" height="134" as="geometry"><mxRectangle x="939.9999999999995" y="-900" width="160" height="40" as="alternateBounds"/></mxGeometry></mxCell><mxCell id="_nZgDXnTTzhl0Go7vqyT-57" value="id" style="text;strokeColor=none;fillColor=none;align=left;verticalAlign=top;spacingLeft=4;spacingRight=4;overflow=hidden;rotatable=0;points=[[0,0.5],[1,0.5]];portConstraint=eastwest;rounded=1;" parent="_nZgDXnTTzhl0Go7vqyT-55" vertex="1"><mxGeometry y="30" width="160" height="26" as="geometry"/></mxCell><mxCell id="_nZgDXnTTzhl0Go7vqyT-56" value="type" style="text;strokeColor=none;fillColor=none;align=left;verticalAlign=top;spacingLeft=4;spacingRight=4;overflow=hidden;rotatable=0;points=[[0,0.5],[1,0.5]];portConstraint=eastwest;rounded=1;" parent="_nZgDXnTTzhl0Go7vqyT-55" vertex="1"><mxGeometry y="56" width="160" height="26" as="geometry"/></mxCell><mxCell id="_nZgDXnTTzhl0Go7vqyT-59" value="dataS" style="text;strokeColor=none;fillColor=none;align=left;verticalAlign=top;spacingLeft=4;spacingRight=4;overflow=hidden;rotatable=0;points=[[0,0.5],[1,0.5]];portConstraint=eastwest;rounded=1;" parent="_nZgDXnTTzhl0Go7vqyT-55" vertex="1"><mxGeometry y="82" width="160" height="26" as="geometry"/></mxCell><mxCell id="_nZgDXnTTzhl0Go7vqyT-58" value="readonly" style="text;strokeColor=none;fillColor=none;align=left;verticalAlign=top;spacingLeft=4;spacingRight=4;overflow=hidden;rotatable=0;points=[[0,0.5],[1,0.5]];portConstraint=eastwest;rounded=1;" parent="_nZgDXnTTzhl0Go7vqyT-55" vertex="1"><mxGeometry y="108" width="160" height="26" as="geometry"/></mxCell><mxCell id="_nZgDXnTTzhl0Go7vqyT-63" style="edgeStyle=elbowEdgeStyle;rounded=1;orthogonalLoop=1;jettySize=auto;elbow=vertical;html=1;entryX=0.5;entryY=1;entryDx=0;entryDy=0;endArrow=classic;endFill=1;strokeColor=default;" parent="32iX6y1p6pqTDlrGPlU1-1" source="_nZgDXnTTzhl0Go7vqyT-66" target="_nZgDXnTTzhl0Go7vqyT-55" edge="1"><mxGeometry relative="1" as="geometry"/></mxCell><mxCell id="_nZgDXnTTzhl0Go7vqyT-66" value="UText" style="swimlane;fontStyle=0;childLayout=stackLayout;horizontal=1;startSize=26;fillColor=none;horizontalStack=0;resizeParent=1;resizeParentMax=0;resizeLast=0;collapsible=1;marginBottom=0;rounded=1;points=[[0,0.1],[0,0.05],[0,0.01],[0.5,1],[0.5,0]];" parent="32iX6y1p6pqTDlrGPlU1-1" vertex="1"><mxGeometry x="340" y="-520" width="160" height="210" as="geometry"><mxRectangle x="850" y="-731" width="140" height="40" as="alternateBounds"/></mxGeometry></mxCell><mxCell id="_nZgDXnTTzhl0Go7vqyT-21" value="FocusManagement" style="swimlane;fontStyle=0;childLayout=stackLayout;horizontal=1;startSize=26;fillColor=none;horizontalStack=0;resizeParent=1;resizeParentMax=0;resizeLast=0;collapsible=1;marginBottom=0;rounded=1;points=[[0,0.1],[0,0.05],[0,0.01],[0.5,1],[0.5,0]];" parent="_nZgDXnTTzhl0Go7vqyT-66" vertex="1" collapsed="1"><mxGeometry y="26" width="160" height="40" as="geometry"><mxRectangle y="26" width="160" height="130" as="alternateBounds"/></mxGeometry></mxCell><mxCell id="_nZgDXnTTzhl0Go7vqyT-22" value="focusS" style="text;strokeColor=none;fillColor=none;align=left;verticalAlign=top;spacingLeft=4;spacingRight=4;overflow=hidden;rotatable=0;points=[[0,0.5],[1,0.5]];portConstraint=eastwest;rounded=1;fontStyle=0" parent="_nZgDXnTTzhl0Go7vqyT-21" vertex="1"><mxGeometry y="26" width="160" height="26" as="geometry"/></mxCell><mxCell id="_nZgDXnTTzhl0Go7vqyT-23" value="resetActiveBlock" style="text;strokeColor=none;fillColor=none;align=left;verticalAlign=top;spacingLeft=4;spacingRight=4;overflow=hidden;rotatable=0;points=[[0,0.5],[1,0.5]];portConstraint=eastwest;rounded=1;fontStyle=0" parent="_nZgDXnTTzhl0Go7vqyT-21" vertex="1"><mxGeometry y="52" width="160" height="26" as="geometry"/></mxCell><mxCell id="_nZgDXnTTzhl0Go7vqyT-24" value="goUp" style="text;strokeColor=none;fillColor=none;align=left;verticalAlign=top;spacingLeft=4;spacingRight=4;overflow=hidden;rotatable=0;points=[[0,0.5],[1,0.5]];portConstraint=eastwest;rounded=1;" parent="_nZgDXnTTzhl0Go7vqyT-21" vertex="1"><mxGeometry y="78" width="160" height="26" as="geometry"/></mxCell><mxCell id="_nZgDXnTTzhl0Go7vqyT-25" value="goDown" style="text;strokeColor=none;fillColor=none;align=left;verticalAlign=top;spacingLeft=4;spacingRight=4;overflow=hidden;rotatable=0;points=[[0,0.5],[1,0.5]];portConstraint=eastwest;rounded=1;" parent="_nZgDXnTTzhl0Go7vqyT-21" vertex="1"><mxGeometry y="104" width="160" height="26" as="geometry"/></mxCell><mxCell id="2ALcN89WmMTyS2SaTm7R-14" value="UTextEventsHandlers" style="swimlane;fontStyle=0;childLayout=stackLayout;horizontal=1;startSize=26;fillColor=none;horizontalStack=0;resizeParent=1;resizeParentMax=0;resizeLast=0;collapsible=1;marginBottom=0;rounded=1;points=[[0,0.1],[0,0.05],[0,0.01],[0.5,1],[0.5,0]];" parent="_nZgDXnTTzhl0Go7vqyT-66" vertex="1" collapsed="1"><mxGeometry y="66" width="160" height="40" as="geometry"><mxRectangle y="66" width="160" height="104" as="alternateBounds"/></mxGeometry></mxCell><mxCell id="2ALcN89WmMTyS2SaTm7R-15" value="tab / shift + tab" style="text;strokeColor=none;fillColor=none;align=left;verticalAlign=top;spacingLeft=4;spacingRight=4;overflow=hidden;rotatable=0;points=[[0,0.5],[1,0.5]];portConstraint=eastwest;rounded=1;fontStyle=0" parent="2ALcN89WmMTyS2SaTm7R-14" vertex="1"><mxGeometry y="26" width="160" height="26" as="geometry"/></mxCell><mxCell id="2ALcN89WmMTyS2SaTm7R-16" value="enter / backspace" style="text;strokeColor=none;fillColor=none;align=left;verticalAlign=top;spacingLeft=4;spacingRight=4;overflow=hidden;rotatable=0;points=[[0,0.5],[1,0.5]];portConstraint=eastwest;rounded=1;fontStyle=0" parent="2ALcN89WmMTyS2SaTm7R-14" vertex="1"><mxGeometry y="52" width="160" height="26" as="geometry"/></mxCell><mxCell id="2ALcN89WmMTyS2SaTm7R-17" value="paste" style="text;strokeColor=none;fillColor=none;align=left;verticalAlign=top;spacingLeft=4;spacingRight=4;overflow=hidden;rotatable=0;points=[[0,0.5],[1,0.5]];portConstraint=eastwest;rounded=1;" parent="2ALcN89WmMTyS2SaTm7R-14" vertex="1"><mxGeometry y="78" width="160" height="26" as="geometry"/></mxCell><mxCell id="_nZgDXnTTzhl0Go7vqyT-72" value="setType" style="text;strokeColor=none;fillColor=none;align=left;verticalAlign=top;spacingLeft=4;spacingRight=4;overflow=hidden;rotatable=0;points=[[0,0.5],[1,0.5]];portConstraint=eastwest;rounded=1;fontStyle=0" parent="_nZgDXnTTzhl0Go7vqyT-66" vertex="1"><mxGeometry y="106" width="160" height="26" as="geometry"/></mxCell><mxCell id="_nZgDXnTTzhl0Go7vqyT-73" value="context" style="text;strokeColor=none;fillColor=none;align=left;verticalAlign=top;spacingLeft=4;spacingRight=4;overflow=hidden;rotatable=0;points=[[0,0.5],[1,0.5]];portConstraint=eastwest;rounded=1;fontStyle=0" parent="_nZgDXnTTzhl0Go7vqyT-66" vertex="1"><mxGeometry y="132" width="160" height="26" as="geometry"/></mxCell><mxCell id="_nZgDXnTTzhl0Go7vqyT-77" value="placeholder" style="text;strokeColor=none;fillColor=none;align=left;verticalAlign=top;spacingLeft=4;spacingRight=4;overflow=hidden;rotatable=0;points=[[0,0.5],[1,0.5]];portConstraint=eastwest;rounded=1;fontStyle=0" parent="_nZgDXnTTzhl0Go7vqyT-66" vertex="1"><mxGeometry y="158" width="160" height="26" as="geometry"/></mxCell><mxCell id="_nZgDXnTTzhl0Go7vqyT-78" value="addUBlock" style="text;strokeColor=none;fillColor=none;align=left;verticalAlign=top;spacingLeft=4;spacingRight=4;overflow=hidden;rotatable=0;points=[[0,0.5],[1,0.5]];portConstraint=eastwest;rounded=1;fontStyle=0" parent="_nZgDXnTTzhl0Go7vqyT-66" vertex="1"><mxGeometry y="184" width="160" height="26" as="geometry"/></mxCell><mxCell id="_nZgDXnTTzhl0Go7vqyT-81" style="edgeStyle=elbowEdgeStyle;rounded=1;orthogonalLoop=1;jettySize=auto;elbow=vertical;html=1;entryX=0.5;entryY=1;entryDx=0;entryDy=0;endArrow=classic;endFill=1;strokeColor=default;" parent="32iX6y1p6pqTDlrGPlU1-1" source="_nZgDXnTTzhl0Go7vqyT-82" target="_nZgDXnTTzhl0Go7vqyT-55" edge="1"><mxGeometry relative="1" as="geometry"/></mxCell><mxCell id="_nZgDXnTTzhl0Go7vqyT-82" value="UForm" style="swimlane;fontStyle=0;childLayout=stackLayout;horizontal=1;startSize=26;fillColor=none;horizontalStack=0;resizeParent=1;resizeParentMax=0;resizeLast=0;collapsible=1;marginBottom=0;rounded=1;points=[[0,0.1],[0,0.05],[0,0.01],[0.5,1],[0.5,0]];" parent="32iX6y1p6pqTDlrGPlU1-1" vertex="1"><mxGeometry x="540" y="-520" width="160" height="52" as="geometry"><mxRectangle x="540" y="-520" width="140" height="40" as="alternateBounds"/></mxGeometry></mxCell><mxCell id="_nZgDXnTTzhl0Go7vqyT-83" value="handleUFormEvent" style="text;strokeColor=none;fillColor=none;align=left;verticalAlign=top;spacingLeft=4;spacingRight=4;overflow=hidden;rotatable=0;points=[[0,0.5],[1,0.5]];portConstraint=eastwest;rounded=1;fontStyle=0" parent="_nZgDXnTTzhl0Go7vqyT-82" vertex="1"><mxGeometry y="26" width="160" height="26" as="geometry"/></mxCell><mxCell id="_nZgDXnTTzhl0Go7vqyT-84" style="edgeStyle=elbowEdgeStyle;rounded=1;orthogonalLoop=1;jettySize=auto;elbow=vertical;html=1;entryX=0.5;entryY=1;entryDx=0;entryDy=0;endArrow=classic;endFill=1;strokeColor=default;" parent="32iX6y1p6pqTDlrGPlU1-1" source="_nZgDXnTTzhl0Go7vqyT-85" target="_nZgDXnTTzhl0Go7vqyT-55" edge="1"><mxGeometry relative="1" as="geometry"/></mxCell><mxCell id="_nZgDXnTTzhl0Go7vqyT-85" value="UList" style="swimlane;fontStyle=0;childLayout=stackLayout;horizontal=1;startSize=26;fillColor=none;horizontalStack=0;resizeParent=1;resizeParentMax=0;resizeLast=0;collapsible=1;marginBottom=0;rounded=1;points=[[0,0.1],[0,0.05],[0,0.01],[0.5,1],[0.5,0]];" parent="32iX6y1p6pqTDlrGPlU1-1" vertex="1"><mxGeometry x="941" y="-520" width="160" height="52" as="geometry"><mxRectangle x="1110" y="-659" width="140" height="40" as="alternateBounds"/></mxGeometry></mxCell><mxCell id="_nZgDXnTTzhl0Go7vqyT-86" value="toggleOpen" style="text;strokeColor=none;fillColor=none;align=left;verticalAlign=top;spacingLeft=4;spacingRight=4;overflow=hidden;rotatable=0;points=[[0,0.5],[1,0.5]];portConstraint=eastwest;rounded=1;fontStyle=0" parent="_nZgDXnTTzhl0Go7vqyT-85" vertex="1"><mxGeometry y="26" width="160" height="26" as="geometry"/></mxCell><mxCell id="_nZgDXnTTzhl0Go7vqyT-87" style="edgeStyle=elbowEdgeStyle;rounded=1;orthogonalLoop=1;jettySize=auto;elbow=vertical;html=1;endArrow=classic;endFill=1;strokeColor=default;entryX=0.5;entryY=1;entryDx=0;entryDy=0;" parent="32iX6y1p6pqTDlrGPlU1-1" source="_nZgDXnTTzhl0Go7vqyT-88" target="_nZgDXnTTzhl0Go7vqyT-55" edge="1"><mxGeometry relative="1" as="geometry"><mxPoint x="780" y="-718" as="targetPoint"/></mxGeometry></mxCell><mxCell id="_nZgDXnTTzhl0Go7vqyT-88" value="UPageBlock" style="swimlane;fontStyle=0;childLayout=stackLayout;horizontal=1;startSize=26;fillColor=none;horizontalStack=0;resizeParent=1;resizeParentMax=0;resizeLast=0;collapsible=1;marginBottom=0;rounded=1;points=[[0,0.1],[0,0.05],[0,0.01],[0.5,1],[0.5,0]];" parent="32iX6y1p6pqTDlrGPlU1-1" vertex="1"><mxGeometry x="740" y="-520" width="160" height="52" as="geometry"><mxRectangle x="760" y="-1020" width="140" height="40" as="alternateBounds"/></mxGeometry></mxCell><mxCell id="_nZgDXnTTzhl0Go7vqyT-89" value="handleMoveBlocksTo" style="text;strokeColor=none;fillColor=none;align=left;verticalAlign=top;spacingLeft=4;spacingRight=4;overflow=hidden;rotatable=0;points=[[0,0.5],[1,0.5]];portConstraint=eastwest;rounded=1;fontStyle=0" parent="_nZgDXnTTzhl0Go7vqyT-88" vertex="1"><mxGeometry y="26" width="160" height="26" as="geometry"/></mxCell><mxCell id="_nZgDXnTTzhl0Go7vqyT-91" style="edgeStyle=elbowEdgeStyle;shape=connector;rounded=1;orthogonalLoop=1;jettySize=auto;html=1;entryX=0;entryY=0.1;entryDx=0;entryDy=0;labelBackgroundColor=default;fontFamily=Helvetica;fontSize=11;fontColor=default;endArrow=classic;endFill=1;strokeColor=#FFFFFF;" parent="32iX6y1p6pqTDlrGPlU1-1" source="_nZgDXnTTzhl0Go7vqyT-34" target="_nZgDXnTTzhl0Go7vqyT-55" edge="1"><mxGeometry relative="1" as="geometry"><mxPoint x="640" y="-780" as="targetPoint"/></mxGeometry></mxCell><mxCell id="_nZgDXnTTzhl0Go7vqyT-92" style="html=1;dashed=1;rounded=1;labelBackgroundColor=default;fontFamily=Helvetica;fontSize=11;fontColor=default;endArrow=none;endFill=0;strokeColor=default;shape=connector;opacity=30;exitX=0.5;exitY=0;exitDx=0;exitDy=0;entryX=0.5;entryY=1;entryDx=0;entryDy=0;" parent="32iX6y1p6pqTDlrGPlU1-1" source="2ALcN89WmMTyS2SaTm7R-0" target="_nZgDXnTTzhl0Go7vqyT-82" edge="1"><mxGeometry relative="1" as="geometry"><mxPoint x="610" y="-460" as="targetPoint"/><mxPoint x="1021" y="-430" as="sourcePoint"/></mxGeometry></mxCell><mxCell id="_nZgDXnTTzhl0Go7vqyT-94" style="html=1;dashed=1;rounded=1;labelBackgroundColor=default;fontFamily=Helvetica;fontSize=11;fontColor=default;endArrow=none;endFill=0;strokeColor=default;shape=connector;entryX=0;entryY=0.5;entryDx=0;entryDy=0;opacity=30;exitX=1;exitY=0.5;exitDx=0;exitDy=0;" parent="32iX6y1p6pqTDlrGPlU1-1" source="2ALcN89WmMTyS2SaTm7R-0" target="2ALcN89WmMTyS2SaTm7R-1" edge="1"><mxGeometry relative="1" as="geometry"><mxPoint x="600" y="-460" as="targetPoint"/><mxPoint x="941" y="-410" as="sourcePoint"/></mxGeometry></mxCell><UserObject label="App" link="data:page/id,rvXL0gvETLJnJSn2QJJ2" id="ujHDymyxEz4W41_i78U0-0"><mxCell style="rounded=1;whiteSpace=wrap;arcSize=22;fontFamily=Helvetica;fontSize=11;fontColor=default;strokeColor=#6666FF;fillColor=none;" parent="32iX6y1p6pqTDlrGPlU1-1" vertex="1"><mxGeometry x="-160" y="-800" width="160" height="40" as="geometry"/></mxCell></UserObject><mxCell id="R2BgYEw1bKc4XZjbpTA1-10" style="edgeStyle=orthogonalEdgeStyle;rounded=1;orthogonalLoop=1;jettySize=auto;elbow=vertical;html=1;entryX=0.5;entryY=1;entryDx=0;entryDy=0;fontFamily=Helvetica;fontSize=12;fontColor=default;startSize=26;" parent="32iX6y1p6pqTDlrGPlU1-1" source="_nZgDXnTTzhl0Go7vqyT-98" target="_nZgDXnTTzhl0Go7vqyT-55" edge="1"><mxGeometry relative="1" as="geometry"><Array as="points"><mxPoint x="720" y="-420"/></Array></mxGeometry></mxCell><UserObject label="UFormBlock" id="_nZgDXnTTzhl0Go7vqyT-98"><mxCell style="rounded=1;whiteSpace=wrap;arcSize=22;fontFamily=Helvetica;fontSize=11;fontColor=default;strokeColor=#FFFFFF;fillColor=none;" parent="32iX6y1p6pqTDlrGPlU1-1" vertex="1"><mxGeometry x="740" y="-440" width="160" height="40" as="geometry"/></mxCell></UserObject><mxCell id="R2BgYEw1bKc4XZjbpTA1-11" style="edgeStyle=orthogonalEdgeStyle;rounded=1;orthogonalLoop=1;jettySize=auto;html=1;entryX=0.5;entryY=1;entryDx=0;entryDy=0;fontFamily=Helvetica;fontSize=12;fontColor=default;startSize=26;elbow=vertical;" parent="32iX6y1p6pqTDlrGPlU1-1" source="_nZgDXnTTzhl0Go7vqyT-97" target="_nZgDXnTTzhl0Go7vqyT-55" edge="1"><mxGeometry relative="1" as="geometry"><Array as="points"><mxPoint x="720" y="-361"/></Array></mxGeometry></mxCell><mxCell id="_nZgDXnTTzhl0Go7vqyT-97" value="UFile" style="rounded=1;whiteSpace=wrap;arcSize=22;fontFamily=Helvetica;fontSize=11;fontColor=default;strokeColor=default;fillColor=none;" parent="32iX6y1p6pqTDlrGPlU1-1" vertex="1"><mxGeometry x="740" y="-381" width="160" height="40" as="geometry"/></mxCell><mxCell id="R2BgYEw1bKc4XZjbpTA1-13" style="edgeStyle=orthogonalEdgeStyle;rounded=1;orthogonalLoop=1;jettySize=auto;html=1;entryX=0.5;entryY=1;entryDx=0;entryDy=0;fontFamily=Helvetica;fontSize=12;fontColor=default;startSize=26;elbow=vertical;" parent="32iX6y1p6pqTDlrGPlU1-1" source="_nZgDXnTTzhl0Go7vqyT-99" target="_nZgDXnTTzhl0Go7vqyT-55" edge="1"><mxGeometry relative="1" as="geometry"><Array as="points"><mxPoint x="720" y="-240"/></Array></mxGeometry></mxCell><mxCell id="_nZgDXnTTzhl0Go7vqyT-99" value="UEquation" style="rounded=1;whiteSpace=wrap;arcSize=22;fontFamily=Helvetica;fontSize=11;fontColor=default;strokeColor=default;fillColor=none;" parent="32iX6y1p6pqTDlrGPlU1-1" vertex="1"><mxGeometry x="740" y="-260" width="160" height="40" as="geometry"/></mxCell><mxCell id="R2BgYEw1bKc4XZjbpTA1-14" style="edgeStyle=orthogonalEdgeStyle;rounded=1;orthogonalLoop=1;jettySize=auto;html=1;fontFamily=Helvetica;fontSize=12;fontColor=default;startSize=26;elbow=vertical;entryX=0.5;entryY=1;entryDx=0;entryDy=0;" parent="32iX6y1p6pqTDlrGPlU1-1" source="_nZgDXnTTzhl0Go7vqyT-101" target="_nZgDXnTTzhl0Go7vqyT-55" edge="1"><mxGeometry relative="1" as="geometry"><mxPoint x="720" y="-520" as="targetPoint"/><Array as="points"><mxPoint x="720" y="-180"/></Array></mxGeometry></mxCell><mxCell id="_nZgDXnTTzhl0Go7vqyT-101" value="UTable" style="rounded=1;whiteSpace=wrap;arcSize=22;fontFamily=Helvetica;fontSize=11;fontColor=default;strokeColor=default;fillColor=none;" parent="32iX6y1p6pqTDlrGPlU1-1" vertex="1"><mxGeometry x="740" y="-200" width="160" height="40" as="geometry"/></mxCell><mxCell id="R2BgYEw1bKc4XZjbpTA1-12" style="edgeStyle=orthogonalEdgeStyle;rounded=1;orthogonalLoop=1;jettySize=auto;html=1;entryX=0.5;entryY=1;entryDx=0;entryDy=0;fontFamily=Helvetica;fontSize=12;fontColor=default;startSize=26;elbow=vertical;" parent="32iX6y1p6pqTDlrGPlU1-1" source="_nZgDXnTTzhl0Go7vqyT-100" target="_nZgDXnTTzhl0Go7vqyT-55" edge="1"><mxGeometry relative="1" as="geometry"><Array as="points"><mxPoint x="720" y="-300"/></Array></mxGeometry></mxCell><mxCell id="_nZgDXnTTzhl0Go7vqyT-100" value="UDivider" style="rounded=1;whiteSpace=wrap;arcSize=22;fontFamily=Helvetica;fontSize=11;fontColor=default;strokeColor=default;fillColor=none;" parent="32iX6y1p6pqTDlrGPlU1-1" vertex="1"><mxGeometry x="740" y="-320" width="160" height="40" as="geometry"/></mxCell><mxCell id="c-vuEZocinBddn0seRQh-3" value="UBlock" style="swimlane;fontStyle=0;childLayout=stackLayout;horizontal=1;startSize=26;fillColor=none;horizontalStack=0;resizeParent=1;resizeParentMax=0;resizeLast=0;collapsible=1;marginBottom=0;rounded=1;points=[[0,0.1],[0,0.05],[0,0.01],[0.5,1],[0.5,0],[1,0.05],[1,0.01]];fontColor=default;strokeColor=default;" parent="32iX6y1p6pqTDlrGPlU1-1" vertex="1"><mxGeometry x="439.9999999999999" y="-800" width="160" height="183" as="geometry"><mxRectangle x="439.9999999999999" y="-1000" width="160" height="40" as="alternateBounds"/></mxGeometry></mxCell><mxCell id="_nZgDXnTTzhl0Go7vqyT-34" value="content" style="text;strokeColor=none;fillColor=none;align=left;verticalAlign=top;spacingLeft=4;spacingRight=4;overflow=hidden;rotatable=0;points=[[0,0.5],[1,0.5]];portConstraint=eastwest;rounded=1;" parent="c-vuEZocinBddn0seRQh-3" vertex="1"><mxGeometry y="26" width="160" height="26" as="geometry"/></mxCell><mxCell id="_nZgDXnTTzhl0Go7vqyT-35" value="BlockMenu" style="text;strokeColor=none;fillColor=none;align=left;verticalAlign=top;spacingLeft=4;spacingRight=4;overflow=hidden;rotatable=0;points=[[0,0.5],[1,0.5]];portConstraint=eastwest;rounded=1;" parent="c-vuEZocinBddn0seRQh-3" vertex="1"><mxGeometry y="52" width="160" height="26" as="geometry"/></mxCell><mxCell id="_nZgDXnTTzhl0Go7vqyT-37" value="Dropbox" style="text;strokeColor=none;fillColor=none;align=left;verticalAlign=top;spacingLeft=4;spacingRight=4;overflow=hidden;rotatable=0;points=[[0,0.5],[1,0.5]];portConstraint=eastwest;rounded=1;" parent="c-vuEZocinBddn0seRQh-3" vertex="1"><mxGeometry y="78" width="160" height="26" as="geometry"/></mxCell><mxCell id="c-vuEZocinBddn0seRQh-5" value="" style="text;align=center;verticalAlign=bottom;spacingLeft=4;spacingRight=4;overflow=hidden;rotatable=0;points=[[0,0.5],[1,0.5]];portConstraint=eastwest;rounded=1;horizontal=1;fontColor=#ffffff;fillColor=#FFFFFF;strokeColor=default;" parent="c-vuEZocinBddn0seRQh-3" vertex="1"><mxGeometry y="104" width="160" height="1" as="geometry"/></mxCell><mxCell id="_nZgDXnTTzhl0Go7vqyT-40" value="block" style="text;strokeColor=none;fillColor=none;align=left;verticalAlign=top;spacingLeft=4;spacingRight=4;overflow=hidden;rotatable=0;points=[[0,0.5],[1,0.5]];portConstraint=eastwest;rounded=1;" parent="c-vuEZocinBddn0seRQh-3" vertex="1"><mxGeometry y="105" width="160" height="26" as="geometry"/></mxCell><mxCell id="2ALcN89WmMTyS2SaTm7R-13" value="inList" style="text;strokeColor=none;fillColor=none;align=left;verticalAlign=top;spacingLeft=4;spacingRight=4;overflow=hidden;rotatable=0;points=[[0,0.5],[1,0.5]];portConstraint=eastwest;rounded=1;" parent="c-vuEZocinBddn0seRQh-3" vertex="1"><mxGeometry y="131" width="160" height="26" as="geometry"/></mxCell><mxCell id="2ALcN89WmMTyS2SaTm7R-12" value="readonly" style="text;strokeColor=none;fillColor=none;align=left;verticalAlign=top;spacingLeft=4;spacingRight=4;overflow=hidden;rotatable=0;points=[[0,0.5],[1,0.5]];portConstraint=eastwest;rounded=1;" parent="c-vuEZocinBddn0seRQh-3" vertex="1"><mxGeometry y="157" width="160" height="26" as="geometry"/></mxCell><UserObject label="UPage state" link="data:page/id,loL9i_Uz_PYn0sFx-pYy" id="CsqFi0UmQL37bT95hQIU-0"><mxCell style="rounded=1;whiteSpace=wrap;arcSize=22;fontFamily=Helvetica;fontSize=11;fontColor=default;strokeColor=#6666FF;fillColor=none;startSize=26;" parent="32iX6y1p6pqTDlrGPlU1-1" vertex="1"><mxGeometry x="38" y="-600" width="160" height="40" as="geometry"/></mxCell></UserObject><mxCell id="2ALcN89WmMTyS2SaTm7R-0" value="contain UBlockSet" style="rounded=1;whiteSpace=wrap;arcSize=22;fontFamily=Helvetica;fontSize=11;fontColor=default;strokeColor=none;fillColor=none;startSize=26;" parent="32iX6y1p6pqTDlrGPlU1-1" vertex="1"><mxGeometry x="580.0000000000002" y="-130" width="80" height="20" as="geometry"/></mxCell><mxCell id="2ALcN89WmMTyS2SaTm7R-2" style="edgeStyle=elbowEdgeStyle;rounded=1;orthogonalLoop=1;jettySize=auto;html=1;entryX=0.5;entryY=1;entryDx=0;entryDy=0;endArrow=classic;endFill=1;elbow=vertical;" parent="32iX6y1p6pqTDlrGPlU1-1" source="2ALcN89WmMTyS2SaTm7R-1" target="_nZgDXnTTzhl0Go7vqyT-55" edge="1"><mxGeometry relative="1" as="geometry"><Array as="points"><mxPoint x="730" y="-120"/><mxPoint x="730" y="-60"/><mxPoint x="700" y="-40"/></Array></mxGeometry></mxCell><mxCell id="2ALcN89WmMTyS2SaTm7R-1" value="UGrid" style="rounded=1;whiteSpace=wrap;arcSize=22;fontFamily=Helvetica;fontSize=11;fontColor=default;strokeColor=default;fillColor=none;" parent="32iX6y1p6pqTDlrGPlU1-1" vertex="1"><mxGeometry x="740" y="-140" width="160" height="40" as="geometry"/></mxCell><mxCell id="2ALcN89WmMTyS2SaTm7R-3" value="UPage" style="swimlane;fontStyle=0;childLayout=stackLayout;horizontal=1;startSize=30;fillColor=none;horizontalStack=0;resizeParent=1;resizeParentMax=0;resizeLast=0;collapsible=1;marginBottom=0;rounded=1;points=[[0,0.1],[0,0.05],[0,0.01],[0.5,1],[0.5,0],[1,0.05],[1,0.01]];fontColor=default;strokeColor=default;" parent="32iX6y1p6pqTDlrGPlU1-1" vertex="1"><mxGeometry x="39.999999999999886" y="-796" width="160" height="156" as="geometry"><mxRectangle x="469.9999999999999" y="-1230" width="160" height="40" as="alternateBounds"/></mxGeometry></mxCell><mxCell id="2ALcN89WmMTyS2SaTm7R-4" value="set" style="text;strokeColor=none;fillColor=none;align=left;verticalAlign=middle;spacingLeft=6;spacingRight=4;overflow=hidden;rotatable=0;points=[[0,0.5],[1,0.5]];portConstraint=eastwest;rounded=1;fontColor=default;spacingBottom=2;" parent="2ALcN89WmMTyS2SaTm7R-3" vertex="1"><mxGeometry y="30" width="160" height="25" as="geometry"/></mxCell><mxCell id="2ALcN89WmMTyS2SaTm7R-7" value="TOC" style="text;strokeColor=none;fillColor=none;align=left;verticalAlign=middle;spacingLeft=6;spacingRight=4;overflow=hidden;rotatable=0;points=[[0,0.5],[1,0.5]];portConstraint=eastwest;rounded=1;fontColor=default;spacingBottom=2;" parent="2ALcN89WmMTyS2SaTm7R-3" vertex="1"><mxGeometry y="55" width="160" height="25" as="geometry"/></mxCell><mxCell id="2ALcN89WmMTyS2SaTm7R-8" value="SelectionBox" style="text;strokeColor=none;fillColor=none;align=left;verticalAlign=middle;spacingLeft=6;spacingRight=4;overflow=hidden;rotatable=0;points=[[0,0.5],[1,0.5]];portConstraint=eastwest;rounded=1;fontColor=default;spacingBottom=2;" parent="2ALcN89WmMTyS2SaTm7R-3" vertex="1"><mxGeometry y="80" width="160" height="25" as="geometry"/></mxCell><mxCell id="2ALcN89WmMTyS2SaTm7R-5" value="" style="text;align=center;verticalAlign=bottom;spacingLeft=4;spacingRight=4;overflow=hidden;rotatable=0;points=[[0,0.5],[1,0.5]];portConstraint=eastwest;rounded=1;horizontal=1;fontColor=#ffffff;fillColor=#FFFFFF;strokeColor=default;" parent="2ALcN89WmMTyS2SaTm7R-3" vertex="1"><mxGeometry y="105" width="160" height="1" as="geometry"/></mxCell><mxCell id="2ALcN89WmMTyS2SaTm7R-6" value="id" style="text;strokeColor=none;fillColor=none;align=left;verticalAlign=middle;spacingLeft=6;spacingRight=4;overflow=hidden;rotatable=0;points=[[0,0.5],[1,0.5]];portConstraint=eastwest;rounded=1;fontColor=default;spacingBottom=2;" parent="2ALcN89WmMTyS2SaTm7R-3" vertex="1"><mxGeometry y="106" width="160" height="25" as="geometry"/></mxCell><mxCell id="2ALcN89WmMTyS2SaTm7R-10" value="workspace" style="text;strokeColor=none;fillColor=none;align=left;verticalAlign=middle;spacingLeft=6;spacingRight=4;overflow=hidden;rotatable=0;points=[[0,0.5],[1,0.5]];portConstraint=eastwest;rounded=1;fontColor=default;spacingBottom=2;" parent="2ALcN89WmMTyS2SaTm7R-3" vertex="1"><mxGeometry y="131" width="160" height="25" as="geometry"/></mxCell><mxCell id="2ALcN89WmMTyS2SaTm7R-9" style="edgeStyle=elbowEdgeStyle;rounded=1;orthogonalLoop=1;jettySize=auto;html=1;entryX=0;entryY=0.05;entryDx=0;entryDy=0;endArrow=classic;endFill=1;" parent="32iX6y1p6pqTDlrGPlU1-1" source="2ALcN89WmMTyS2SaTm7R-4" target="_nZgDXnTTzhl0Go7vqyT-0" edge="1"><mxGeometry relative="1" as="geometry"/></mxCell><mxCell id="2ALcN89WmMTyS2SaTm7R-11" value="contains UBlock" style="rounded=1;whiteSpace=wrap;arcSize=22;fontFamily=Helvetica;fontSize=11;fontColor=default;strokeColor=none;fillColor=none;startSize=26;" parent="32iX6y1p6pqTDlrGPlU1-1" vertex="1"><mxGeometry x="966" y="-450" width="110" height="20" as="geometry"/></mxCell><mxCell id="3MNOHxX2oFh2u2SbVwot-0" style="rounded=1;orthogonalLoop=1;jettySize=auto;html=1;fontColor=#FF3399;endArrow=none;endFill=0;strokeColor=#FFFFFF;opacity=30;dashed=1;" parent="32iX6y1p6pqTDlrGPlU1-1" source="3MNOHxX2oFh2u2SbVwot-1" edge="1"><mxGeometry relative="1" as="geometry"><mxPoint x="220" y="-600" as="targetPoint"/></mxGeometry></mxCell><mxCell id="3MNOHxX2oFh2u2SbVwot-1" value="windowing &amp; memo" style="rounded=1;whiteSpace=wrap;arcSize=22;fontFamily=Helvetica;fontSize=11;fontColor=default;strokeColor=none;fillColor=none;startSize=26;" parent="32iX6y1p6pqTDlrGPlU1-1" vertex="1"><mxGeometry x="170" y="-870" width="100" height="30" as="geometry"/></mxCell><mxCell id="3MNOHxX2oFh2u2SbVwot-4" value="memo" style="rounded=1;whiteSpace=wrap;arcSize=22;fontFamily=Helvetica;fontSize=11;fontColor=default;strokeColor=none;fillColor=none;startSize=26;" parent="32iX6y1p6pqTDlrGPlU1-1" vertex="1"><mxGeometry x="380" y="-870" width="80" height="30" as="geometry"/></mxCell><mxCell id="3MNOHxX2oFh2u2SbVwot-5" style="rounded=1;orthogonalLoop=1;jettySize=auto;html=1;fontColor=#FF3399;endArrow=none;endFill=0;strokeColor=#FFFFFF;opacity=30;dashed=1;" parent="32iX6y1p6pqTDlrGPlU1-1" source="3MNOHxX2oFh2u2SbVwot-4" edge="1"><mxGeometry relative="1" as="geometry"><mxPoint x="420" y="-600" as="targetPoint"/></mxGeometry></mxCell><mxCell id="3MNOHxX2oFh2u2SbVwot-6" value="memo" style="rounded=1;whiteSpace=wrap;arcSize=22;fontFamily=Helvetica;fontSize=11;fontColor=default;strokeColor=none;fillColor=none;startSize=26;" parent="32iX6y1p6pqTDlrGPlU1-1" vertex="1"><mxGeometry x="580" y="-870" width="80" height="30" as="geometry"/></mxCell><mxCell id="3MNOHxX2oFh2u2SbVwot-7" style="rounded=1;orthogonalLoop=1;jettySize=auto;html=1;fontColor=#FF3399;endArrow=none;endFill=0;strokeColor=#FFFFFF;opacity=30;dashed=1;" parent="32iX6y1p6pqTDlrGPlU1-1" source="3MNOHxX2oFh2u2SbVwot-6" edge="1"><mxGeometry relative="1" as="geometry"><mxPoint x="620" y="-600" as="targetPoint"/></mxGeometry></mxCell></root></mxGraphModel></diagram><diagram id="loL9i_Uz_PYn0sFx-pYy" name="UPage state"><mxGraphModel dx="2596" dy="1107" grid="0" gridSize="10" guides="1" tooltips="1" connect="1" arrows="1" fold="1" page="0" pageScale="1" pageWidth="827" pageHeight="1169" math="0" shadow="0"><root><mxCell id="3RDXuJe9gw5BwNleq9T0-0"/><mxCell id="3RDXuJe9gw5BwNleq9T0-1" parent="3RDXuJe9gw5BwNleq9T0-0"/><mxCell id="3RDXuJe9gw5BwNleq9T0-9" value="&amp;nbsp; bytes&amp;nbsp;&amp;nbsp;" style="edgeStyle=orthogonalEdgeStyle;rounded=1;orthogonalLoop=1;jettySize=auto;html=1;fontFamily=Helvetica;fontSize=12;fontColor=default;startSize=26;curved=1;exitX=0.5;exitY=0;exitDx=0;exitDy=0;exitPerimeter=0;entryX=0.5;entryY=0;entryDx=0;entryDy=0;" parent="3RDXuJe9gw5BwNleq9T0-1" source="3RDXuJe9gw5BwNleq9T0-6" target="bldd9FNrTI1m-vj9hhjm-66" edge="1"><mxGeometry x="-0.0769" relative="1" as="geometry"><mxPoint as="offset"/><mxPoint x="-120" y="20" as="targetPoint"/></mxGeometry></mxCell><mxCell id="3RDXuJe9gw5BwNleq9T0-6" value="&lt;br&gt;repo hub" style="strokeWidth=2;html=1;shape=mxgraph.flowchart.database;whiteSpace=wrap;rounded=1;fontFamily=Helvetica;fontSize=12;fontColor=default;startSize=26;fillColor=none;aspect=fixed;" parent="3RDXuJe9gw5BwNleq9T0-1" vertex="1"><mxGeometry x="-360" y="40" width="80" height="80" as="geometry"/></mxCell><mxCell id="3RDXuJe9gw5BwNleq9T0-11" style="edgeStyle=orthogonalEdgeStyle;curved=1;rounded=1;orthogonalLoop=1;jettySize=auto;html=1;entryX=0.5;entryY=0;entryDx=0;entryDy=0;fontFamily=Helvetica;fontSize=12;fontColor=default;startSize=26;exitX=0.5;exitY=0;exitDx=0;exitDy=0;" parent="3RDXuJe9gw5BwNleq9T0-1" source="3RDXuJe9gw5BwNleq9T0-7" target="3RDXuJe9gw5BwNleq9T0-8" edge="1"><mxGeometry relative="1" as="geometry"><Array as="points"><mxPoint x="80" y="20"/><mxPoint x="480" y="20"/></Array></mxGeometry></mxCell><mxCell id="3RDXuJe9gw5BwNleq9T0-14" value="&amp;nbsp; json&amp;nbsp;&amp;nbsp;" style="edgeLabel;html=1;align=center;verticalAlign=middle;resizable=0;points=[];fontSize=12;fontFamily=Helvetica;fontColor=default;" parent="3RDXuJe9gw5BwNleq9T0-11" vertex="1" connectable="0"><mxGeometry x="-0.0133" y="-2" relative="1" as="geometry"><mxPoint y="-2" as="offset"/></mxGeometry></mxCell><mxCell id="3RDXuJe9gw5BwNleq9T0-17" value="&amp;nbsp; bytes&amp;nbsp;&amp;nbsp;" style="edgeStyle=orthogonalEdgeStyle;curved=1;rounded=1;orthogonalLoop=1;jettySize=auto;html=1;entryX=0.5;entryY=1;entryDx=0;entryDy=0;entryPerimeter=0;fontFamily=Helvetica;fontSize=12;fontColor=default;startSize=26;exitX=0.5;exitY=1;exitDx=0;exitDy=0;" parent="3RDXuJe9gw5BwNleq9T0-1" source="bldd9FNrTI1m-vj9hhjm-66" target="3RDXuJe9gw5BwNleq9T0-6" edge="1"><mxGeometry x="0.1538" relative="1" as="geometry"><mxPoint x="-120" y="140" as="sourcePoint"/><mxPoint as="offset"/></mxGeometry></mxCell><mxCell id="bldd9FNrTI1m-vj9hhjm-67" style="edgeStyle=orthogonalEdgeStyle;rounded=1;orthogonalLoop=1;jettySize=auto;html=1;entryX=1;entryY=0.25;entryDx=0;entryDy=0;startSize=18;exitX=0;exitY=0.25;exitDx=0;exitDy=0;" parent="3RDXuJe9gw5BwNleq9T0-1" source="3RDXuJe9gw5BwNleq9T0-7" target="bldd9FNrTI1m-vj9hhjm-66" edge="1"><mxGeometry relative="1" as="geometry"/></mxCell><mxCell id="lzS3_q89dWGhRhvwKs83-51" style="edgeStyle=orthogonalEdgeStyle;rounded=0;orthogonalLoop=1;jettySize=auto;html=1;entryX=0;entryY=0.5;entryDx=0;entryDy=0;endArrow=none;endFill=0;" parent="3RDXuJe9gw5BwNleq9T0-1" source="3RDXuJe9gw5BwNleq9T0-7" target="Hz4OSDU95jKgeBEMDqJM-0" edge="1"><mxGeometry relative="1" as="geometry"/></mxCell><mxCell id="3RDXuJe9gw5BwNleq9T0-7" value="Page state" style="rounded=1;whiteSpace=wrap;arcSize=22;fontFamily=Helvetica;fontSize=11;fontColor=default;strokeColor=default;fillColor=none;startSize=26;" parent="3RDXuJe9gw5BwNleq9T0-1" vertex="1"><mxGeometry y="60" width="160" height="40" as="geometry"/></mxCell><mxCell id="3RDXuJe9gw5BwNleq9T0-15" style="edgeStyle=orthogonalEdgeStyle;curved=1;rounded=1;orthogonalLoop=1;jettySize=auto;html=1;entryX=0.5;entryY=1;entryDx=0;entryDy=0;fontFamily=Helvetica;fontSize=12;fontColor=default;startSize=26;exitX=0.5;exitY=1;exitDx=0;exitDy=0;" parent="3RDXuJe9gw5BwNleq9T0-1" source="3RDXuJe9gw5BwNleq9T0-8" target="3RDXuJe9gw5BwNleq9T0-7" edge="1"><mxGeometry relative="1" as="geometry"><Array as="points"><mxPoint x="480" y="140"/><mxPoint x="80" y="140"/></Array></mxGeometry></mxCell><mxCell id="3RDXuJe9gw5BwNleq9T0-16" value="&amp;nbsp; json&amp;nbsp;&amp;nbsp;" style="edgeLabel;html=1;align=center;verticalAlign=middle;resizable=0;points=[];fontSize=12;fontFamily=Helvetica;fontColor=default;" parent="3RDXuJe9gw5BwNleq9T0-15" vertex="1" connectable="0"><mxGeometry x="0.017" y="-3" relative="1" as="geometry"><mxPoint x="3" y="3" as="offset"/></mxGeometry></mxCell><mxCell id="lzS3_q89dWGhRhvwKs83-52" style="edgeStyle=orthogonalEdgeStyle;rounded=0;orthogonalLoop=1;jettySize=auto;html=1;entryX=1;entryY=0.5;entryDx=0;entryDy=0;endArrow=none;endFill=0;" parent="3RDXuJe9gw5BwNleq9T0-1" source="3RDXuJe9gw5BwNleq9T0-8" target="Hz4OSDU95jKgeBEMDqJM-0" edge="1"><mxGeometry relative="1" as="geometry"/></mxCell><mxCell id="3RDXuJe9gw5BwNleq9T0-8" value="Block state" style="rounded=1;whiteSpace=wrap;arcSize=22;fontFamily=Helvetica;fontSize=11;fontColor=default;strokeColor=default;fillColor=none;startSize=26;" parent="3RDXuJe9gw5BwNleq9T0-1" vertex="1"><mxGeometry x="400" y="60" width="160" height="40" as="geometry"/></mxCell><mxCell id="3RDXuJe9gw5BwNleq9T0-18" value="Block state is cached inside it for better performance&#10;block tracks props update &amp; cache updates" style="rounded=1;whiteSpace=wrap;arcSize=22;fontFamily=Helvetica;fontSize=11;fontColor=default;strokeColor=none;fillColor=none;dashed=1;startSize=26;" parent="3RDXuJe9gw5BwNleq9T0-1" vertex="1"><mxGeometry x="530" y="-30" width="160" height="80" as="geometry"/></mxCell><mxCell id="3RDXuJe9gw5BwNleq9T0-20" value="CRDT is a git-like repo with commits (changes) " style="rounded=1;whiteSpace=wrap;arcSize=22;fontFamily=Helvetica;fontSize=11;fontColor=default;strokeColor=none;fillColor=none;dashed=1;startSize=26;" parent="3RDXuJe9gw5BwNleq9T0-1" vertex="1"><mxGeometry x="-190" y="150" width="140" height="40" as="geometry"/></mxCell><mxCell id="3RDXuJe9gw5BwNleq9T0-23" value="On user actions page computes changes and applies them" style="rounded=1;whiteSpace=wrap;arcSize=22;fontFamily=Helvetica;fontSize=11;fontColor=default;strokeColor=none;fillColor=none;dashed=1;startSize=26;" parent="3RDXuJe9gw5BwNleq9T0-1" vertex="1"><mxGeometry x="190" y="190" width="160" height="40" as="geometry"/></mxCell><mxCell id="3RDXuJe9gw5BwNleq9T0-25" style="edgeStyle=orthogonalEdgeStyle;curved=1;rounded=1;orthogonalLoop=1;jettySize=auto;html=1;fontFamily=Helvetica;fontSize=12;fontColor=default;startSize=26;" parent="3RDXuJe9gw5BwNleq9T0-1" source="3RDXuJe9gw5BwNleq9T0-24" edge="1"><mxGeometry relative="1" as="geometry"><mxPoint x="-70" y="-20" as="targetPoint"/></mxGeometry></mxCell><mxCell id="3RDXuJe9gw5BwNleq9T0-24" value="update" style="text;html=1;align=center;verticalAlign=middle;resizable=0;points=[];autosize=1;strokeColor=none;fillColor=none;fontSize=12;fontFamily=Helvetica;fontColor=default;" parent="3RDXuJe9gw5BwNleq9T0-1" vertex="1"><mxGeometry x="-360" y="-30" width="50" height="20" as="geometry"/></mxCell><mxCell id="3RDXuJe9gw5BwNleq9T0-30" style="edgeStyle=orthogonalEdgeStyle;curved=1;rounded=1;orthogonalLoop=1;jettySize=auto;html=1;fontFamily=Helvetica;fontSize=12;fontColor=default;startSize=26;" parent="3RDXuJe9gw5BwNleq9T0-1" source="3RDXuJe9gw5BwNleq9T0-29" edge="1"><mxGeometry relative="1" as="geometry"><mxPoint x="-20.000000000000114" y="180" as="targetPoint"/></mxGeometry></mxCell><mxCell id="3RDXuJe9gw5BwNleq9T0-29" value="change" style="text;html=1;align=center;verticalAlign=middle;resizable=0;points=[];autosize=1;strokeColor=none;fillColor=none;fontSize=12;fontFamily=Helvetica;fontColor=default;" parent="3RDXuJe9gw5BwNleq9T0-1" vertex="1"><mxGeometry x="480" y="170" width="50" height="20" as="geometry"/></mxCell><mxCell id="3RDXuJe9gw5BwNleq9T0-38" style="edgeStyle=elbowEdgeStyle;rounded=1;orthogonalLoop=1;jettySize=auto;html=1;entryX=0;entryY=0.1;entryDx=0;entryDy=0;fontFamily=Helvetica;fontSize=12;fontColor=default;startSize=26;" parent="3RDXuJe9gw5BwNleq9T0-1" edge="1"><mxGeometry relative="1" as="geometry"><mxPoint x="360" y="451.0000000000001" as="sourcePoint"/></mxGeometry></mxCell><mxCell id="BpmRtu1wdTmK8sngkxp8-1" value="&lt;h1&gt;FB (Frankfurt)&lt;/h1&gt;&lt;div&gt;FS&lt;/div&gt;&lt;p&gt;1. data: 1GB + 0.117 * GB&lt;br&gt;2. net: 10GB&amp;nbsp; + 0.12 * GB&lt;br&gt;3. r: 50k / d + 0.039 * 100k&lt;br&gt;4. w (d): 20k / d + 0.117 * 100k&amp;nbsp;&lt;/p&gt;&lt;p&gt;RDB&lt;/p&gt;&lt;p&gt;1. data 1 + 5 * GB&lt;br&gt;2. net 10 + 1 * GB&lt;br&gt;&lt;/p&gt;&lt;p&gt;S3&lt;/p&gt;&lt;p&gt;1. data: 5 + 0.026 * GB&lt;br&gt;2. net: 1 + 0.12 * GB&lt;br&gt;3. upload: 20k / d + 0.05 * 10k&lt;br&gt;4. download: 50k / d + 0.004 * 10k&lt;/p&gt;&lt;h1&gt;&lt;/h1&gt;" style="text;html=1;strokeColor=none;fillColor=none;spacing=5;spacingTop=-20;whiteSpace=wrap;overflow=hidden;rounded=0;fontFamily=Helvetica;fontSize=14;fontColor=default;startSize=26;" parent="3RDXuJe9gw5BwNleq9T0-1" vertex="1"><mxGeometry x="-900" y="-294" width="230" height="390" as="geometry"/></mxCell><UserObject label="UPage structure" link="data:page/id,UocGhjjfCX4qjQ99Hq9M" id="TnTb9prcIxUsj6QhcbWD-0"><mxCell style="rounded=1;whiteSpace=wrap;arcSize=22;fontFamily=Helvetica;fontSize=11;fontColor=default;strokeColor=#6666FF;fillColor=none;" parent="3RDXuJe9gw5BwNleq9T0-1" vertex="1"><mxGeometry x="-280" y="-180" width="160" height="40" as="geometry"/></mxCell></UserObject><mxCell id="F1rIkiMjV8142Hyj2dKJ-0" value="UPageStateCR" style="swimlane;fontStyle=0;childLayout=stackLayout;horizontal=1;startSize=30;fillColor=none;horizontalStack=0;resizeParent=1;resizeParentMax=0;resizeLast=0;collapsible=1;marginBottom=0;rounded=1;points=[[0,0.1],[0,0.05],[0,0.01],[0.5,1],[0.5,0],[1,0.05],[1,0.01]];fontColor=default;strokeColor=default;" parent="3RDXuJe9gw5BwNleq9T0-1" vertex="1"><mxGeometry x="39.999999999999886" y="560" width="160" height="231" as="geometry"><mxRectangle x="469.9999999999999" y="-1230" width="160" height="40" as="alternateBounds"/></mxGeometry></mxCell><mxCell id="F1rIkiMjV8142Hyj2dKJ-1" value="undoManager" style="text;strokeColor=none;fillColor=none;align=left;verticalAlign=middle;spacingLeft=6;spacingRight=4;overflow=hidden;rotatable=0;points=[[0,0.5],[1,0.5]];portConstraint=eastwest;rounded=1;fontColor=default;spacingBottom=2;" parent="F1rIkiMjV8142Hyj2dKJ-0" vertex="1"><mxGeometry y="30" width="160" height="25" as="geometry"/></mxCell><mxCell id="F1rIkiMjV8142Hyj2dKJ-4" value="doc" style="text;strokeColor=none;fillColor=none;align=left;verticalAlign=middle;spacingLeft=6;spacingRight=4;overflow=hidden;rotatable=0;points=[[0,0.5],[1,0.5]];portConstraint=eastwest;rounded=1;fontColor=default;spacingBottom=2;" parent="F1rIkiMjV8142Hyj2dKJ-0" vertex="1"><mxGeometry y="55" width="160" height="25" as="geometry"/></mxCell><mxCell id="F1rIkiMjV8142Hyj2dKJ-2" value="" style="text;align=center;verticalAlign=bottom;spacingLeft=4;spacingRight=4;overflow=hidden;rotatable=0;points=[[0,0.5],[1,0.5]];portConstraint=eastwest;rounded=1;horizontal=1;fontColor=#ffffff;fillColor=#FFFFFF;strokeColor=default;" parent="F1rIkiMjV8142Hyj2dKJ-0" vertex="1"><mxGeometry y="80" width="160" height="1" as="geometry"/></mxCell><mxCell id="3RDXuJe9gw5BwNleq9T0-63" value="applyUpdate" style="text;strokeColor=none;fillColor=none;align=left;verticalAlign=middle;spacingLeft=6;spacingRight=4;overflow=hidden;rotatable=0;points=[[0,0.5],[1,0.5]];portConstraint=eastwest;rounded=1;fontColor=default;spacingBottom=2;" parent="F1rIkiMjV8142Hyj2dKJ-0" vertex="1"><mxGeometry y="81" width="160" height="25" as="geometry"/></mxCell><mxCell id="3RDXuJe9gw5BwNleq9T0-64" value="change" style="text;strokeColor=none;fillColor=none;align=left;verticalAlign=middle;spacingLeft=6;spacingRight=4;overflow=hidden;rotatable=0;points=[[0,0.5],[1,0.5]];portConstraint=eastwest;rounded=1;fontColor=default;spacingBottom=2;" parent="F1rIkiMjV8142Hyj2dKJ-0" vertex="1"><mxGeometry y="106" width="160" height="25" as="geometry"/></mxCell><mxCell id="F1rIkiMjV8142Hyj2dKJ-17" value="redo" style="text;strokeColor=none;fillColor=none;align=left;verticalAlign=middle;spacingLeft=6;spacingRight=4;overflow=hidden;rotatable=0;points=[[0,0.5],[1,0.5]];portConstraint=eastwest;rounded=1;fontColor=default;spacingBottom=2;" parent="F1rIkiMjV8142Hyj2dKJ-0" vertex="1"><mxGeometry y="131" width="160" height="25" as="geometry"/></mxCell><mxCell id="F1rIkiMjV8142Hyj2dKJ-16" value="undo" style="text;strokeColor=none;fillColor=none;align=left;verticalAlign=middle;spacingLeft=6;spacingRight=4;overflow=hidden;rotatable=0;points=[[0,0.5],[1,0.5]];portConstraint=eastwest;rounded=1;fontColor=default;spacingBottom=2;" parent="F1rIkiMjV8142Hyj2dKJ-0" vertex="1"><mxGeometry y="156" width="160" height="25" as="geometry"/></mxCell><mxCell id="F1rIkiMjV8142Hyj2dKJ-18" value="rollBackTo" style="text;strokeColor=none;fillColor=none;align=left;verticalAlign=middle;spacingLeft=6;spacingRight=4;overflow=hidden;rotatable=0;points=[[0,0.5],[1,0.5]];portConstraint=eastwest;rounded=1;fontColor=default;spacingBottom=2;" parent="F1rIkiMjV8142Hyj2dKJ-0" vertex="1"><mxGeometry y="181" width="160" height="25" as="geometry"/></mxCell><mxCell id="bldd9FNrTI1m-vj9hhjm-63" value="append" style="text;strokeColor=none;fillColor=none;align=left;verticalAlign=middle;spacingLeft=6;spacingRight=4;overflow=hidden;rotatable=0;points=[[0,0.5],[1,0.5]];portConstraint=eastwest;rounded=1;fontColor=default;spacingBottom=2;" parent="F1rIkiMjV8142Hyj2dKJ-0" vertex="1"><mxGeometry y="206" width="160" height="25" as="geometry"/></mxCell><mxCell id="F1rIkiMjV8142Hyj2dKJ-5" value="UPageShallowTree" style="swimlane;fontStyle=0;childLayout=stackLayout;horizontal=1;startSize=30;fillColor=none;horizontalStack=0;resizeParent=1;resizeParentMax=0;resizeLast=0;collapsible=1;marginBottom=0;rounded=1;points=[[0,0.1],[0,0.05],[0,0.01],[0.5,1],[0.5,0],[1,0.05],[1,0.01]];fontColor=default;strokeColor=default;" parent="3RDXuJe9gw5BwNleq9T0-1" vertex="1"><mxGeometry x="239.9999999999999" y="560" width="160" height="231" as="geometry"><mxRectangle x="469.9999999999999" y="-1230" width="160" height="40" as="alternateBounds"/></mxGeometry></mxCell><mxCell id="F1rIkiMjV8142Hyj2dKJ-6" value="localChanges" style="text;strokeColor=none;fillColor=none;align=left;verticalAlign=middle;spacingLeft=6;spacingRight=4;overflow=hidden;rotatable=0;points=[[0,0.5],[1,0.5]];portConstraint=eastwest;rounded=1;fontColor=default;spacingBottom=2;" parent="F1rIkiMjV8142Hyj2dKJ-5" vertex="1"><mxGeometry y="30" width="160" height="25" as="geometry"/></mxCell><mxCell id="F1rIkiMjV8142Hyj2dKJ-14" value="updates" style="text;strokeColor=none;fillColor=none;align=left;verticalAlign=middle;spacingLeft=6;spacingRight=4;overflow=hidden;rotatable=0;points=[[0,0.5],[1,0.5]];portConstraint=eastwest;rounded=1;fontColor=default;spacingBottom=2;" parent="F1rIkiMjV8142Hyj2dKJ-5" vertex="1"><mxGeometry y="55" width="160" height="25" as="geometry"/></mxCell><mxCell id="F1rIkiMjV8142Hyj2dKJ-7" value="" style="text;align=center;verticalAlign=bottom;spacingLeft=4;spacingRight=4;overflow=hidden;rotatable=0;points=[[0,0.5],[1,0.5]];portConstraint=eastwest;rounded=1;horizontal=1;fontColor=#ffffff;fillColor=#FFFFFF;strokeColor=default;" parent="F1rIkiMjV8142Hyj2dKJ-5" vertex="1"><mxGeometry y="80" width="160" height="1" as="geometry"/></mxCell><mxCell id="F1rIkiMjV8142Hyj2dKJ-8" value="insert" style="text;strokeColor=none;fillColor=none;align=left;verticalAlign=middle;spacingLeft=6;spacingRight=4;overflow=hidden;rotatable=0;points=[[0,0.5],[1,0.5]];portConstraint=eastwest;rounded=1;fontColor=default;spacingBottom=2;" parent="F1rIkiMjV8142Hyj2dKJ-5" vertex="1"><mxGeometry y="81" width="160" height="25" as="geometry"/></mxCell><mxCell id="F1rIkiMjV8142Hyj2dKJ-10" value="delete" style="text;strokeColor=none;fillColor=none;align=left;verticalAlign=middle;spacingLeft=6;spacingRight=4;overflow=hidden;rotatable=0;points=[[0,0.5],[1,0.5]];portConstraint=eastwest;rounded=1;fontColor=default;spacingBottom=2;" parent="F1rIkiMjV8142Hyj2dKJ-5" vertex="1"><mxGeometry y="106" width="160" height="25" as="geometry"/></mxCell><mxCell id="F1rIkiMjV8142Hyj2dKJ-12" value="change" style="text;strokeColor=none;fillColor=none;align=left;verticalAlign=middle;spacingLeft=6;spacingRight=4;overflow=hidden;rotatable=0;points=[[0,0.5],[1,0.5]];portConstraint=eastwest;rounded=1;fontColor=default;spacingBottom=2;" parent="F1rIkiMjV8142Hyj2dKJ-5" vertex="1"><mxGeometry y="131" width="160" height="25" as="geometry"/></mxCell><mxCell id="F1rIkiMjV8142Hyj2dKJ-11" value="changeType" style="text;strokeColor=none;fillColor=none;align=left;verticalAlign=middle;spacingLeft=6;spacingRight=4;overflow=hidden;rotatable=0;points=[[0,0.5],[1,0.5]];portConstraint=eastwest;rounded=1;fontColor=default;spacingBottom=2;" parent="F1rIkiMjV8142Hyj2dKJ-5" vertex="1"><mxGeometry y="156" width="160" height="25" as="geometry"/></mxCell><mxCell id="bldd9FNrTI1m-vj9hhjm-64" value="triggerFlag" style="text;strokeColor=none;fillColor=none;align=left;verticalAlign=middle;spacingLeft=6;spacingRight=4;overflow=hidden;rotatable=0;points=[[0,0.5],[1,0.5]];portConstraint=eastwest;rounded=1;fontColor=default;spacingBottom=2;" parent="F1rIkiMjV8142Hyj2dKJ-5" vertex="1"><mxGeometry y="181" width="160" height="25" as="geometry"/></mxCell><mxCell id="F1rIkiMjV8142Hyj2dKJ-13" value="append" style="text;strokeColor=none;fillColor=none;align=left;verticalAlign=middle;spacingLeft=6;spacingRight=4;overflow=hidden;rotatable=0;points=[[0,0.5],[1,0.5]];portConstraint=eastwest;rounded=1;fontColor=default;spacingBottom=2;" parent="F1rIkiMjV8142Hyj2dKJ-5" vertex="1"><mxGeometry y="206" width="160" height="25" as="geometry"/></mxCell><mxCell id="F1rIkiMjV8142Hyj2dKJ-9" style="edgeStyle=elbowEdgeStyle;rounded=1;orthogonalLoop=1;jettySize=auto;html=1;entryX=0;entryY=0.05;entryDx=0;entryDy=0;" parent="3RDXuJe9gw5BwNleq9T0-1" source="F1rIkiMjV8142Hyj2dKJ-1" target="F1rIkiMjV8142Hyj2dKJ-5" edge="1"><mxGeometry relative="1" as="geometry"/></mxCell><mxCell id="lzS3_q89dWGhRhvwKs83-110" style="edgeStyle=elbowEdgeStyle;rounded=1;orthogonalLoop=1;jettySize=auto;html=1;entryX=0.5;entryY=1;entryDx=0;entryDy=0;endArrow=classic;endFill=1;" parent="3RDXuJe9gw5BwNleq9T0-1" source="SJr02IDGZpaZOxx_1kyR-0" target="lzS3_q89dWGhRhvwKs83-76" edge="1"><mxGeometry relative="1" as="geometry"/></mxCell><mxCell id="SJr02IDGZpaZOxx_1kyR-0" value="UEditor" style="swimlane;fontStyle=0;childLayout=stackLayout;horizontal=1;startSize=30;fillColor=none;horizontalStack=0;resizeParent=1;resizeParentMax=0;resizeLast=0;collapsible=1;marginBottom=0;rounded=1;points=[[0,0.1],[0,0.05],[0,0.01],[0.5,1],[0.5,0],[1,0.05],[1,0.01]];fontColor=default;strokeColor=default;container=1;moveCells=0;treeFolding=0;treeMoving=0;snapToPoint=0;" parent="3RDXuJe9gw5BwNleq9T0-1" vertex="1"><mxGeometry x="-160.0000000000001" y="760" width="160" height="206" as="geometry"><mxRectangle x="-160.0000000000001" y="560" width="160" height="40" as="alternateBounds"/></mxGeometry></mxCell><mxCell id="lzS3_q89dWGhRhvwKs83-65" value="cursor" style="text;strokeColor=none;fillColor=none;align=left;verticalAlign=middle;spacingLeft=6;spacingRight=4;overflow=hidden;rotatable=0;points=[[0,0.5],[1,0.5]];portConstraint=eastwest;rounded=1;fontColor=default;spacingBottom=2;" parent="SJr02IDGZpaZOxx_1kyR-0" vertex="1"><mxGeometry y="30" width="160" height="25" as="geometry"/></mxCell><mxCell id="SJr02IDGZpaZOxx_1kyR-1" value="crdt" style="text;strokeColor=none;fillColor=none;align=left;verticalAlign=middle;spacingLeft=6;spacingRight=4;overflow=hidden;rotatable=0;points=[[0,0.5],[1,0.5]];portConstraint=eastwest;rounded=1;fontColor=default;spacingBottom=2;" parent="SJr02IDGZpaZOxx_1kyR-0" vertex="1"><mxGeometry y="55" width="160" height="25" as="geometry"/></mxCell><mxCell id="SJr02IDGZpaZOxx_1kyR-31" value="tree" style="text;strokeColor=none;fillColor=none;align=left;verticalAlign=middle;spacingLeft=6;spacingRight=4;overflow=hidden;rotatable=0;points=[[0,0.5],[1,0.5]];portConstraint=eastwest;rounded=1;fontColor=default;spacingBottom=2;" parent="SJr02IDGZpaZOxx_1kyR-0" vertex="1"><mxGeometry y="80" width="160" height="25" as="geometry"/></mxCell><mxCell id="SJr02IDGZpaZOxx_1kyR-6" value="runtime" style="text;strokeColor=none;fillColor=none;align=left;verticalAlign=middle;spacingLeft=6;spacingRight=4;overflow=hidden;rotatable=0;points=[[0,0.5],[1,0.5]];portConstraint=eastwest;rounded=1;fontColor=default;spacingBottom=2;" parent="SJr02IDGZpaZOxx_1kyR-0" vertex="1"><mxGeometry y="105" width="160" height="25" as="geometry"/></mxCell><mxCell id="SJr02IDGZpaZOxx_1kyR-2" value="" style="text;align=center;verticalAlign=bottom;spacingLeft=4;spacingRight=4;overflow=hidden;rotatable=0;points=[[0,0.5],[1,0.5]];portConstraint=eastwest;rounded=1;horizontal=1;fontColor=#ffffff;fillColor=#FFFFFF;strokeColor=default;" parent="SJr02IDGZpaZOxx_1kyR-0" vertex="1"><mxGeometry y="130" width="160" height="1" as="geometry"/></mxCell><mxCell id="lzS3_q89dWGhRhvwKs83-111" value="cr decorator" style="text;strokeColor=none;fillColor=none;align=left;verticalAlign=middle;spacingLeft=6;spacingRight=4;overflow=hidden;rotatable=0;points=[[0,0.5],[1,0.5]];portConstraint=eastwest;rounded=1;fontColor=default;spacingBottom=2;" parent="SJr02IDGZpaZOxx_1kyR-0" vertex="1"><mxGeometry y="131" width="160" height="25" as="geometry"/></mxCell><mxCell id="SJr02IDGZpaZOxx_1kyR-28" value="deriveTOC" style="text;strokeColor=none;fillColor=none;align=left;verticalAlign=middle;spacingLeft=6;spacingRight=4;overflow=hidden;rotatable=0;points=[[0,0.5],[1,0.5]];portConstraint=eastwest;rounded=1;fontColor=default;spacingBottom=2;" parent="SJr02IDGZpaZOxx_1kyR-0" vertex="1"><mxGeometry y="156" width="160" height="25" as="geometry"/></mxCell><mxCell id="lzS3_q89dWGhRhvwKs83-112" value="triggerFlag" style="text;strokeColor=none;fillColor=none;align=left;verticalAlign=middle;spacingLeft=6;spacingRight=4;overflow=hidden;rotatable=0;points=[[0,0.5],[1,0.5]];portConstraint=eastwest;rounded=1;fontColor=default;spacingBottom=2;" parent="SJr02IDGZpaZOxx_1kyR-0" vertex="1"><mxGeometry y="181" width="160" height="25" as="geometry"/></mxCell><mxCell id="SJr02IDGZpaZOxx_1kyR-7" style="edgeStyle=orthogonalEdgeStyle;rounded=1;orthogonalLoop=1;jettySize=auto;html=1;entryX=0;entryY=0.05;entryDx=0;entryDy=0;" parent="3RDXuJe9gw5BwNleq9T0-1" source="SJr02IDGZpaZOxx_1kyR-1" target="F1rIkiMjV8142Hyj2dKJ-0" edge="1"><mxGeometry relative="1" as="geometry"/></mxCell><mxCell id="SJr02IDGZpaZOxx_1kyR-40" value="Each page is a FS document containing append only array of commits" style="rounded=1;whiteSpace=wrap;arcSize=22;fontFamily=Helvetica;fontSize=11;fontColor=default;strokeColor=none;fillColor=none;dashed=1;startSize=26;" parent="3RDXuJe9gw5BwNleq9T0-1" vertex="1"><mxGeometry x="-520" y="-4" width="160" height="40" as="geometry"/></mxCell><mxCell id="bldd9FNrTI1m-vj9hhjm-0" value="UPageTree" style="swimlane;fontStyle=0;childLayout=stackLayout;horizontal=1;startSize=30;fillColor=none;horizontalStack=0;resizeParent=1;resizeParentMax=0;resizeLast=0;collapsible=1;marginBottom=0;rounded=1;points=[[0,0.1],[0,0.05],[0,0.01],[0.5,1],[0.5,0],[1,0.05],[1,0.01]];fontColor=default;strokeColor=default;" parent="3RDXuJe9gw5BwNleq9T0-1" vertex="1"><mxGeometry x="39.999999999999886" y="880" width="160" height="281" as="geometry"><mxRectangle x="469.9999999999999" y="-1230" width="160" height="40" as="alternateBounds"/></mxGeometry></mxCell><mxCell id="bldd9FNrTI1m-vj9hhjm-1" value="treeChanger" style="text;strokeColor=none;fillColor=none;align=left;verticalAlign=middle;spacingLeft=6;spacingRight=4;overflow=hidden;rotatable=0;points=[[0,0.5],[1,0.5]];portConstraint=eastwest;rounded=1;fontColor=default;spacingBottom=2;" parent="bldd9FNrTI1m-vj9hhjm-0" vertex="1"><mxGeometry y="30" width="160" height="25" as="geometry"/></mxCell><mxCell id="bldd9FNrTI1m-vj9hhjm-2" value="" style="text;align=center;verticalAlign=bottom;spacingLeft=4;spacingRight=4;overflow=hidden;rotatable=0;points=[[0,0.5],[1,0.5]];portConstraint=eastwest;rounded=1;horizontal=1;fontColor=#ffffff;fillColor=#FFFFFF;strokeColor=default;" parent="bldd9FNrTI1m-vj9hhjm-0" vertex="1"><mxGeometry y="55" width="160" height="1" as="geometry"/></mxCell><mxCell id="lzS3_q89dWGhRhvwKs83-5" value="get block / parent / data" style="text;strokeColor=none;fillColor=none;align=left;verticalAlign=middle;spacingLeft=6;spacingRight=4;overflow=hidden;rotatable=0;points=[[0,0.5],[1,0.5]];portConstraint=eastwest;rounded=1;fontColor=default;spacingBottom=2;" parent="bldd9FNrTI1m-vj9hhjm-0" vertex="1"><mxGeometry y="56" width="160" height="25" as="geometry"/></mxCell><mxCell id="lzS3_q89dWGhRhvwKs83-6" value="move focus / get next block" style="text;strokeColor=none;fillColor=none;align=left;verticalAlign=middle;spacingLeft=6;spacingRight=4;overflow=hidden;rotatable=0;points=[[0,0.5],[1,0.5]];portConstraint=eastwest;rounded=1;fontColor=default;spacingBottom=2;" parent="bldd9FNrTI1m-vj9hhjm-0" vertex="1"><mxGeometry y="81" width="160" height="25" as="geometry"/></mxCell><mxCell id="bldd9FNrTI1m-vj9hhjm-3" value="getUPagesForDeletion" style="text;strokeColor=none;fillColor=none;align=left;verticalAlign=middle;spacingLeft=6;spacingRight=4;overflow=hidden;rotatable=0;points=[[0,0.5],[1,0.5]];portConstraint=eastwest;rounded=1;fontColor=default;spacingBottom=2;" parent="bldd9FNrTI1m-vj9hhjm-0" vertex="1"><mxGeometry y="106" width="160" height="25" as="geometry"/></mxCell><mxCell id="lzS3_q89dWGhRhvwKs83-48" value="is nested / in list / in grid" style="text;strokeColor=none;fillColor=none;align=left;verticalAlign=middle;spacingLeft=6;spacingRight=4;overflow=hidden;rotatable=0;points=[[0,0.5],[1,0.5]];portConstraint=eastwest;rounded=1;fontColor=default;spacingBottom=2;" parent="bldd9FNrTI1m-vj9hhjm-0" vertex="1"><mxGeometry y="131" width="160" height="25" as="geometry"/></mxCell><mxCell id="lzS3_q89dWGhRhvwKs83-49" value="change data / type / shape" style="text;strokeColor=none;fillColor=none;align=left;verticalAlign=middle;spacingLeft=6;spacingRight=4;overflow=hidden;rotatable=0;points=[[0,0.5],[1,0.5]];portConstraint=eastwest;rounded=1;fontColor=default;spacingBottom=2;" parent="bldd9FNrTI1m-vj9hhjm-0" vertex="1"><mxGeometry y="156" width="160" height="25" as="geometry"/></mxCell><mxCell id="lzS3_q89dWGhRhvwKs83-50" value="handle text event" style="text;strokeColor=none;fillColor=none;align=left;verticalAlign=middle;spacingLeft=6;spacingRight=4;overflow=hidden;rotatable=0;points=[[0,0.5],[1,0.5]];portConstraint=eastwest;rounded=1;fontColor=default;spacingBottom=2;" parent="bldd9FNrTI1m-vj9hhjm-0" vertex="1"><mxGeometry y="181" width="160" height="25" as="geometry"/></mxCell><mxCell id="bldd9FNrTI1m-vj9hhjm-32" value="getListsAround" style="text;strokeColor=none;fillColor=none;align=left;verticalAlign=middle;spacingLeft=6;spacingRight=4;overflow=hidden;rotatable=0;points=[[0,0.5],[1,0.5]];portConstraint=eastwest;rounded=1;fontColor=default;spacingBottom=2;" parent="bldd9FNrTI1m-vj9hhjm-0" vertex="1"><mxGeometry y="206" width="160" height="25" as="geometry"/></mxCell><mxCell id="bldd9FNrTI1m-vj9hhjm-17" value="getLastId" style="text;strokeColor=none;fillColor=none;align=left;verticalAlign=middle;spacingLeft=6;spacingRight=4;overflow=hidden;rotatable=0;points=[[0,0.5],[1,0.5]];portConstraint=eastwest;rounded=1;fontColor=default;spacingBottom=2;" parent="bldd9FNrTI1m-vj9hhjm-0" vertex="1"><mxGeometry y="231" width="160" height="25" as="geometry"/></mxCell><mxCell id="lzS3_q89dWGhRhvwKs83-47" value="deriveTOC" style="text;strokeColor=none;fillColor=none;align=left;verticalAlign=middle;spacingLeft=6;spacingRight=4;overflow=hidden;rotatable=0;points=[[0,0.5],[1,0.5]];portConstraint=eastwest;rounded=1;fontColor=default;spacingBottom=2;" parent="bldd9FNrTI1m-vj9hhjm-0" vertex="1"><mxGeometry y="256" width="160" height="25" as="geometry"/></mxCell><mxCell id="bldd9FNrTI1m-vj9hhjm-10" style="edgeStyle=orthogonalEdgeStyle;rounded=1;orthogonalLoop=1;jettySize=auto;html=1;entryX=0;entryY=0.1;entryDx=0;entryDy=0;" parent="3RDXuJe9gw5BwNleq9T0-1" source="SJr02IDGZpaZOxx_1kyR-31" target="bldd9FNrTI1m-vj9hhjm-0" edge="1"><mxGeometry relative="1" as="geometry"/></mxCell><mxCell id="bldd9FNrTI1m-vj9hhjm-58" style="edgeStyle=orthogonalEdgeStyle;rounded=1;orthogonalLoop=1;jettySize=auto;html=1;entryX=0;entryY=0.5;entryDx=0;entryDy=0;startSize=18;exitX=1;exitY=0.5;exitDx=0;exitDy=0;" parent="3RDXuJe9gw5BwNleq9T0-1" source="bldd9FNrTI1m-vj9hhjm-61" target="bldd9FNrTI1m-vj9hhjm-57" edge="1"><mxGeometry relative="1" as="geometry"><mxPoint x="400" y="1149.5454545454545" as="sourcePoint"/></mxGeometry></mxCell><mxCell id="bldd9FNrTI1m-vj9hhjm-60" style="edgeStyle=orthogonalEdgeStyle;rounded=1;orthogonalLoop=1;jettySize=auto;html=1;entryX=0;entryY=0.5;entryDx=0;entryDy=0;startSize=18;exitX=1;exitY=0.5;exitDx=0;exitDy=0;" parent="3RDXuJe9gw5BwNleq9T0-1" source="bldd9FNrTI1m-vj9hhjm-61" target="bldd9FNrTI1m-vj9hhjm-59" edge="1"><mxGeometry relative="1" as="geometry"><mxPoint x="400" y="1153.5454545454545" as="sourcePoint"/></mxGeometry></mxCell><mxCell id="bldd9FNrTI1m-vj9hhjm-56" style="edgeStyle=orthogonalEdgeStyle;rounded=1;orthogonalLoop=1;jettySize=auto;html=1;entryX=0;entryY=0.5;entryDx=0;entryDy=0;startSize=18;" parent="3RDXuJe9gw5BwNleq9T0-1" source="bldd9FNrTI1m-vj9hhjm-1" target="bldd9FNrTI1m-vj9hhjm-61" edge="1"><mxGeometry relative="1" as="geometry"><mxPoint x="240.00000000000023" y="1121.1000000000001" as="targetPoint"/></mxGeometry></mxCell><mxCell id="bldd9FNrTI1m-vj9hhjm-57" value="UListChanger" style="rounded=1;whiteSpace=wrap;arcSize=22;fontFamily=Helvetica;fontSize=11;fontColor=default;strokeColor=default;fillColor=none;startSize=26;glass=0;" parent="3RDXuJe9gw5BwNleq9T0-1" vertex="1"><mxGeometry x="440" y="840" width="160" height="40" as="geometry"/></mxCell><mxCell id="bldd9FNrTI1m-vj9hhjm-59" value="UGridChanger" style="rounded=1;whiteSpace=wrap;arcSize=22;fontFamily=Helvetica;fontSize=11;fontColor=default;strokeColor=default;fillColor=none;startSize=26;glass=0;" parent="3RDXuJe9gw5BwNleq9T0-1" vertex="1"><mxGeometry x="440" y="920" width="160" height="40" as="geometry"/></mxCell><mxCell id="bldd9FNrTI1m-vj9hhjm-61" value="TreeStructureChanger" style="rounded=1;whiteSpace=wrap;arcSize=22;fontFamily=Helvetica;fontSize=11;fontColor=default;strokeColor=default;fillColor=none;startSize=26;glass=0;" parent="3RDXuJe9gw5BwNleq9T0-1" vertex="1"><mxGeometry x="240" y="880" width="160" height="40" as="geometry"/></mxCell><mxCell id="bldd9FNrTI1m-vj9hhjm-62" value="PreviewMaker" style="rounded=1;whiteSpace=wrap;arcSize=22;fontFamily=Helvetica;fontSize=11;fontColor=default;strokeColor=default;fillColor=none;startSize=26;glass=0;" parent="3RDXuJe9gw5BwNleq9T0-1" vertex="1"><mxGeometry x="-160" y="1080" width="160" height="40" as="geometry"/></mxCell><mxCell id="bldd9FNrTI1m-vj9hhjm-68" style="edgeStyle=orthogonalEdgeStyle;rounded=1;orthogonalLoop=1;jettySize=auto;html=1;entryX=0;entryY=0.75;entryDx=0;entryDy=0;startSize=18;exitX=1;exitY=0.75;exitDx=0;exitDy=0;" parent="3RDXuJe9gw5BwNleq9T0-1" source="bldd9FNrTI1m-vj9hhjm-66" target="3RDXuJe9gw5BwNleq9T0-7" edge="1"><mxGeometry relative="1" as="geometry"/></mxCell><mxCell id="bldd9FNrTI1m-vj9hhjm-66" value="Page CRDT" style="rounded=1;whiteSpace=wrap;arcSize=22;fontFamily=Helvetica;fontSize=11;fontColor=default;strokeColor=default;fillColor=none;startSize=26;" parent="3RDXuJe9gw5BwNleq9T0-1" vertex="1"><mxGeometry x="-200" y="60" width="160" height="40" as="geometry"/></mxCell><mxCell id="bldd9FNrTI1m-vj9hhjm-72" value="change" style="text;html=1;align=center;verticalAlign=middle;resizable=0;points=[];autosize=1;strokeColor=none;fillColor=none;fontSize=12;fontFamily=Helvetica;fontColor=default;" parent="3RDXuJe9gw5BwNleq9T0-1" vertex="1"><mxGeometry x="-60" y="30" width="50" height="20" as="geometry"/></mxCell><mxCell id="bldd9FNrTI1m-vj9hhjm-77" value="revert" style="text;html=1;align=center;verticalAlign=middle;resizable=0;points=[];autosize=1;strokeColor=none;fillColor=none;fontSize=12;fontFamily=Helvetica;fontColor=default;" parent="3RDXuJe9gw5BwNleq9T0-1" vertex="1"><mxGeometry x="-30" y="110" width="50" height="20" as="geometry"/></mxCell><mxCell id="bldd9FNrTI1m-vj9hhjm-78" value="Updates from other peers  are detected and merged" style="rounded=1;whiteSpace=wrap;arcSize=22;fontFamily=Helvetica;fontSize=11;fontColor=default;strokeColor=none;fillColor=none;dashed=1;startSize=26;" parent="3RDXuJe9gw5BwNleq9T0-1" vertex="1"><mxGeometry x="-280" y="-70" width="160" height="40" as="geometry"/></mxCell><mxCell id="bldd9FNrTI1m-vj9hhjm-79" value="User Workspace" style="rounded=1;whiteSpace=wrap;arcSize=22;fontFamily=Helvetica;fontSize=11;fontColor=default;strokeColor=default;fillColor=none;startSize=26;" parent="3RDXuJe9gw5BwNleq9T0-1" vertex="1"><mxGeometry x="-400" y="180" width="160" height="40" as="geometry"/></mxCell><mxCell id="bldd9FNrTI1m-vj9hhjm-80" value="Contains references to all available pages" style="rounded=1;whiteSpace=wrap;arcSize=22;fontFamily=Helvetica;fontSize=11;fontColor=default;strokeColor=none;fillColor=none;dashed=1;startSize=26;" parent="3RDXuJe9gw5BwNleq9T0-1" vertex="1"><mxGeometry x="-390" y="240" width="140" height="40" as="geometry"/></mxCell><mxCell id="bldd9FNrTI1m-vj9hhjm-81" value="Mutation logic is organised into distinct classes for better testability &amp; cohesion" style="rounded=1;whiteSpace=wrap;arcSize=22;fontFamily=Helvetica;fontSize=11;fontColor=default;strokeColor=none;fillColor=none;dashed=1;startSize=26;" parent="3RDXuJe9gw5BwNleq9T0-1" vertex="1"><mxGeometry x="615" y="882" width="140" height="40" as="geometry"/></mxCell><mxCell id="bldd9FNrTI1m-vj9hhjm-82" value="Mutation logic consists of synchronisation primitives" style="rounded=1;whiteSpace=wrap;arcSize=22;fontFamily=Helvetica;fontSize=11;fontColor=default;strokeColor=none;fillColor=none;dashed=1;startSize=26;" parent="3RDXuJe9gw5BwNleq9T0-1" vertex="1"><mxGeometry x="420" y="560" width="140" height="40" as="geometry"/></mxCell><mxCell id="bldd9FNrTI1m-vj9hhjm-83" value="Can provide preview for non structural changes" style="rounded=1;whiteSpace=wrap;arcSize=22;fontFamily=Helvetica;fontSize=11;fontColor=default;strokeColor=none;fillColor=none;dashed=1;startSize=26;" parent="3RDXuJe9gw5BwNleq9T0-1" vertex="1"><mxGeometry x="420" y="640" width="140" height="40" as="geometry"/></mxCell><mxCell id="bldd9FNrTI1m-vj9hhjm-84" value="State reacts on user actions &amp; syncronizes 2 data trees " style="rounded=1;whiteSpace=wrap;arcSize=22;fontFamily=Helvetica;fontSize=11;fontColor=default;strokeColor=none;fillColor=none;dashed=1;startSize=26;" parent="3RDXuJe9gw5BwNleq9T0-1" vertex="1"><mxGeometry x="-150" y="990" width="140" height="40" as="geometry"/></mxCell><mxCell id="bldd9FNrTI1m-vj9hhjm-85" value="Actions are signed via" style="rounded=1;whiteSpace=wrap;arcSize=22;fontFamily=Helvetica;fontSize=11;fontColor=default;strokeColor=none;fillColor=none;dashed=1;startSize=26;" parent="3RDXuJe9gw5BwNleq9T0-1" vertex="1"><mxGeometry x="-150" y="1040" width="140" height="40" as="geometry"/></mxCell><mxCell id="bldd9FNrTI1m-vj9hhjm-109" value="Commits meta info is stored in a subcollection" style="rounded=1;whiteSpace=wrap;arcSize=22;fontFamily=Helvetica;fontSize=11;fontColor=default;strokeColor=none;fillColor=none;dashed=1;startSize=26;" parent="3RDXuJe9gw5BwNleq9T0-1" vertex="1"><mxGeometry x="-516" y="70" width="140" height="40" as="geometry"/></mxCell><mxCell id="JSy5aZ80X6x9fZfIc54W-28" style="rounded=1;orthogonalLoop=1;jettySize=auto;html=1;exitX=0;exitY=0.1;exitDx=0;exitDy=0;entryX=1;entryY=0.05;entryDx=0;entryDy=0;edgeStyle=elbowEdgeStyle;" parent="3RDXuJe9gw5BwNleq9T0-1" target="JSy5aZ80X6x9fZfIc54W-15" edge="1"><mxGeometry relative="1" as="geometry"><mxPoint x="-880" y="458" as="sourcePoint"/></mxGeometry></mxCell><mxCell id="JSy5aZ80X6x9fZfIc54W-4" value="SubWS" style="swimlane;fontStyle=0;childLayout=stackLayout;horizontal=1;startSize=30;fillColor=none;horizontalStack=0;resizeParent=1;resizeParentMax=0;resizeLast=0;collapsible=1;marginBottom=0;rounded=1;points=[[0,0.1],[0,0.05],[0,0.01],[0.5,1],[0.5,0],[1,0.05],[1,0.01]];fontColor=default;strokeColor=default;" parent="3RDXuJe9gw5BwNleq9T0-1" vertex="1"><mxGeometry x="-879.9999999999999" y="560" width="160" height="80" as="geometry"><mxRectangle x="580" y="-1120" width="160" height="40" as="alternateBounds"/></mxGeometry></mxCell><mxCell id="JSy5aZ80X6x9fZfIc54W-5" value="ownerId" style="text;strokeColor=none;fillColor=none;align=left;verticalAlign=middle;spacingLeft=6;spacingRight=4;overflow=hidden;rotatable=0;points=[[0,0.5],[1,0.5]];portConstraint=eastwest;rounded=1;fontColor=default;spacingBottom=2;" parent="JSy5aZ80X6x9fZfIc54W-4" vertex="1"><mxGeometry y="30" width="160" height="25" as="geometry"/></mxCell><mxCell id="JSy5aZ80X6x9fZfIc54W-7" value="wsUpdates" style="text;strokeColor=none;fillColor=none;align=left;verticalAlign=middle;spacingLeft=6;spacingRight=4;overflow=hidden;rotatable=0;points=[[0,0.5],[1,0.5]];portConstraint=eastwest;rounded=1;fontColor=default;spacingBottom=2;" parent="JSy5aZ80X6x9fZfIc54W-4" vertex="1"><mxGeometry y="55" width="160" height="25" as="geometry"/></mxCell><mxCell id="JSy5aZ80X6x9fZfIc54W-9" value="Invites" style="swimlane;fontStyle=0;childLayout=stackLayout;horizontal=1;startSize=30;fillColor=none;horizontalStack=0;resizeParent=1;resizeParentMax=0;resizeLast=0;collapsible=1;marginBottom=0;rounded=1;points=[[0,0.1],[0,0.05],[0,0.01],[0.5,1],[0.5,0],[1,0.05],[1,0.01]];fontColor=default;strokeColor=default;" parent="3RDXuJe9gw5BwNleq9T0-1" vertex="1"><mxGeometry x="-1280" y="442.5" width="160" height="130" as="geometry"><mxRectangle x="580" y="-1120" width="160" height="40" as="alternateBounds"/></mxGeometry></mxCell><mxCell id="JSy5aZ80X6x9fZfIc54W-13" value="date" style="text;strokeColor=none;fillColor=none;align=left;verticalAlign=middle;spacingLeft=6;spacingRight=4;overflow=hidden;rotatable=0;points=[[0,0.5],[1,0.5]];portConstraint=eastwest;rounded=1;fontColor=default;spacingBottom=2;" parent="JSy5aZ80X6x9fZfIc54W-9" vertex="1"><mxGeometry y="30" width="160" height="25" as="geometry"/></mxCell><mxCell id="JSy5aZ80X6x9fZfIc54W-10" value="from" style="text;strokeColor=none;fillColor=none;align=left;verticalAlign=middle;spacingLeft=6;spacingRight=4;overflow=hidden;rotatable=0;points=[[0,0.5],[1,0.5]];portConstraint=eastwest;rounded=1;fontColor=default;spacingBottom=2;" parent="JSy5aZ80X6x9fZfIc54W-9" vertex="1"><mxGeometry y="55" width="160" height="25" as="geometry"/></mxCell><mxCell id="JSy5aZ80X6x9fZfIc54W-11" value="to" style="text;strokeColor=none;fillColor=none;align=left;verticalAlign=middle;spacingLeft=6;spacingRight=4;overflow=hidden;rotatable=0;points=[[0,0.5],[1,0.5]];portConstraint=eastwest;rounded=1;fontColor=default;spacingBottom=2;" parent="JSy5aZ80X6x9fZfIc54W-9" vertex="1"><mxGeometry y="80" width="160" height="25" as="geometry"/></mxCell><mxCell id="JSy5aZ80X6x9fZfIc54W-12" value="forkedSubWS?" style="text;strokeColor=none;fillColor=none;align=left;verticalAlign=middle;spacingLeft=6;spacingRight=4;overflow=hidden;rotatable=0;points=[[0,0.5],[1,0.5]];portConstraint=eastwest;rounded=1;fontColor=default;spacingBottom=2;" parent="JSy5aZ80X6x9fZfIc54W-9" vertex="1"><mxGeometry y="105" width="160" height="25" as="geometry"/></mxCell><mxCell id="JSy5aZ80X6x9fZfIc54W-14" value="Users invite each other or revoke invitation" style="rounded=1;whiteSpace=wrap;arcSize=22;fontFamily=Helvetica;fontSize=11;fontColor=default;strokeColor=none;fillColor=none;dashed=1;startSize=26;" parent="3RDXuJe9gw5BwNleq9T0-1" vertex="1"><mxGeometry x="-1270" y="380" width="140" height="40" as="geometry"/></mxCell><mxCell id="JSy5aZ80X6x9fZfIc54W-15" value="Inbox" style="swimlane;fontStyle=0;childLayout=stackLayout;horizontal=1;startSize=30;fillColor=none;horizontalStack=0;resizeParent=1;resizeParentMax=0;resizeLast=0;collapsible=1;marginBottom=0;rounded=1;points=[[0,0.1],[0,0.05],[0,0.01],[0.5,1],[0.5,0],[1,0.05],[1,0.01]];fontColor=default;strokeColor=default;" parent="3RDXuJe9gw5BwNleq9T0-1" vertex="1"><mxGeometry x="-1080" y="440" width="160" height="80" as="geometry"><mxRectangle x="580" y="-1120" width="160" height="40" as="alternateBounds"/></mxGeometry></mxCell><mxCell id="JSy5aZ80X6x9fZfIc54W-24" value="email" style="text;strokeColor=none;fillColor=none;align=left;verticalAlign=middle;spacingLeft=6;spacingRight=4;overflow=hidden;rotatable=0;points=[[0,0.5],[1,0.5]];portConstraint=eastwest;rounded=1;fontColor=default;spacingBottom=2;" parent="JSy5aZ80X6x9fZfIc54W-15" vertex="1"><mxGeometry y="30" width="160" height="25" as="geometry"/></mxCell><mxCell id="JSy5aZ80X6x9fZfIc54W-16" value="invites" style="text;strokeColor=none;fillColor=none;align=left;verticalAlign=middle;spacingLeft=6;spacingRight=4;overflow=hidden;rotatable=0;points=[[0,0.5],[1,0.5]];portConstraint=eastwest;rounded=1;fontColor=default;spacingBottom=2;" parent="JSy5aZ80X6x9fZfIc54W-15" vertex="1"><mxGeometry y="55" width="160" height="25" as="geometry"/></mxCell><mxCell id="JSy5aZ80X6x9fZfIc54W-20" style="edgeStyle=orthogonalEdgeStyle;rounded=1;orthogonalLoop=1;jettySize=auto;html=1;entryX=1;entryY=0.05;entryDx=0;entryDy=0;" parent="3RDXuJe9gw5BwNleq9T0-1" source="JSy5aZ80X6x9fZfIc54W-16" target="JSy5aZ80X6x9fZfIc54W-9" edge="1"><mxGeometry relative="1" as="geometry"/></mxCell><mxCell id="JSy5aZ80X6x9fZfIc54W-21" value="When invite is revoked all data is placed in temp workspace. User then integrate it in its own workspace" style="rounded=1;whiteSpace=wrap;arcSize=22;fontFamily=Helvetica;fontSize=11;fontColor=default;strokeColor=none;fillColor=none;dashed=1;startSize=26;" parent="3RDXuJe9gw5BwNleq9T0-1" vertex="1"><mxGeometry x="-1270" y="610" width="140" height="40" as="geometry"/></mxCell><mxCell id="JSy5aZ80X6x9fZfIc54W-22" value="SubWS is created when user shares a page" style="rounded=1;whiteSpace=wrap;arcSize=22;fontFamily=Helvetica;fontSize=11;fontColor=default;strokeColor=none;fillColor=none;dashed=1;startSize=26;" parent="3RDXuJe9gw5BwNleq9T0-1" vertex="1"><mxGeometry x="-870" y="508" width="140" height="40" as="geometry"/></mxCell><mxCell id="JSy5aZ80X6x9fZfIc54W-23" value="To get invites in real time they are pushed in array with watcher" style="rounded=1;whiteSpace=wrap;arcSize=22;fontFamily=Helvetica;fontSize=11;fontColor=default;strokeColor=none;fillColor=none;dashed=1;startSize=26;" parent="3RDXuJe9gw5BwNleq9T0-1" vertex="1"><mxGeometry x="-1070" y="380" width="140" height="40" as="geometry"/></mxCell><mxCell id="JSy5aZ80X6x9fZfIc54W-25" value="Contains references to pages or sub ws" style="rounded=1;whiteSpace=wrap;arcSize=22;fontFamily=Helvetica;fontSize=11;fontColor=default;strokeColor=none;fillColor=none;dashed=1;startSize=26;" parent="3RDXuJe9gw5BwNleq9T0-1" vertex="1"><mxGeometry x="-870" y="380" width="140" height="40" as="geometry"/></mxCell><mxCell id="JSy5aZ80X6x9fZfIc54W-27" style="edgeStyle=orthogonalEdgeStyle;rounded=1;orthogonalLoop=1;jettySize=auto;html=1;entryX=1;entryY=0.5;entryDx=0;entryDy=0;" parent="3RDXuJe9gw5BwNleq9T0-1" source="JSy5aZ80X6x9fZfIc54W-26" target="Hz4OSDU95jKgeBEMDqJM-61" edge="1"><mxGeometry relative="1" as="geometry"><mxPoint x="-720" y="454" as="targetPoint"/></mxGeometry></mxCell><mxCell id="JSy5aZ80X6x9fZfIc54W-26" value="Users" style="rounded=1;whiteSpace=wrap;arcSize=22;fontFamily=Helvetica;fontSize=11;fontColor=default;strokeColor=default;fillColor=none;startSize=26;" parent="3RDXuJe9gw5BwNleq9T0-1" vertex="1"><mxGeometry x="-680" y="440" width="160" height="40" as="geometry"/></mxCell><mxCell id="Hz4OSDU95jKgeBEMDqJM-4" value="Page CR, State, Runtime state are trees. However, Runtime state is fused with regular state" style="rounded=1;whiteSpace=wrap;arcSize=22;fontFamily=Helvetica;fontSize=11;fontColor=default;strokeColor=none;fillColor=none;dashed=1;startSize=26;" parent="3RDXuJe9gw5BwNleq9T0-1" vertex="1"><mxGeometry x="200" y="-80" width="160" height="80" as="geometry"/></mxCell><mxCell id="Hz4OSDU95jKgeBEMDqJM-5" value="UPageNodeDTO" style="swimlane;fontStyle=0;childLayout=stackLayout;horizontal=1;startSize=30;fillColor=none;horizontalStack=0;resizeParent=1;resizeParentMax=0;resizeLast=0;collapsible=1;marginBottom=0;rounded=1;points=[[0,0.1],[0,0.05],[0,0.01],[0.5,1],[0.5,0],[1,0.05],[1,0.01]];fontColor=default;strokeColor=default;" parent="3RDXuJe9gw5BwNleq9T0-1" vertex="1"><mxGeometry x="-679.9999999999999" y="720" width="160" height="130" as="geometry"><mxRectangle x="-689.9999999999999" y="730" width="160" height="40" as="alternateBounds"/></mxGeometry></mxCell><mxCell id="Hz4OSDU95jKgeBEMDqJM-6" value="id" style="text;strokeColor=none;fillColor=none;align=left;verticalAlign=middle;spacingLeft=6;spacingRight=4;overflow=hidden;rotatable=0;points=[[0,0.5],[1,0.5]];portConstraint=eastwest;rounded=1;fontColor=default;spacingBottom=2;" parent="Hz4OSDU95jKgeBEMDqJM-5" vertex="1"><mxGeometry y="30" width="160" height="25" as="geometry"/></mxCell><mxCell id="Hz4OSDU95jKgeBEMDqJM-7" value="name" style="text;strokeColor=none;fillColor=none;align=left;verticalAlign=middle;spacingLeft=6;spacingRight=4;overflow=hidden;rotatable=0;points=[[0,0.5],[1,0.5]];portConstraint=eastwest;rounded=1;fontColor=default;spacingBottom=2;" parent="Hz4OSDU95jKgeBEMDqJM-5" vertex="1"><mxGeometry y="55" width="160" height="25" as="geometry"/></mxCell><mxCell id="Hz4OSDU95jKgeBEMDqJM-8" value="color" style="text;strokeColor=none;fillColor=none;align=left;verticalAlign=middle;spacingLeft=6;spacingRight=4;overflow=hidden;rotatable=0;points=[[0,0.5],[1,0.5]];portConstraint=eastwest;rounded=1;fontColor=default;spacingBottom=2;" parent="Hz4OSDU95jKgeBEMDqJM-5" vertex="1"><mxGeometry y="80" width="160" height="25" as="geometry"/></mxCell><mxCell id="Hz4OSDU95jKgeBEMDqJM-9" value="children" style="text;strokeColor=none;fillColor=none;align=left;verticalAlign=middle;spacingLeft=6;spacingRight=4;overflow=hidden;rotatable=0;points=[[0,0.5],[1,0.5]];portConstraint=eastwest;rounded=1;fontColor=default;spacingBottom=2;" parent="Hz4OSDU95jKgeBEMDqJM-5" vertex="1"><mxGeometry y="105" width="160" height="25" as="geometry"/></mxCell><mxCell id="Hz4OSDU95jKgeBEMDqJM-16" style="edgeStyle=orthogonalEdgeStyle;rounded=0;orthogonalLoop=1;jettySize=auto;html=1;entryX=0.5;entryY=1;entryDx=0;entryDy=0;" parent="3RDXuJe9gw5BwNleq9T0-1" source="Hz4OSDU95jKgeBEMDqJM-11" target="Hz4OSDU95jKgeBEMDqJM-5" edge="1"><mxGeometry relative="1" as="geometry"/></mxCell><mxCell id="Hz4OSDU95jKgeBEMDqJM-11" value="UPageNode" style="swimlane;fontStyle=0;childLayout=stackLayout;horizontal=1;startSize=30;fillColor=none;horizontalStack=0;resizeParent=1;resizeParentMax=0;resizeLast=0;collapsible=1;marginBottom=0;rounded=1;points=[[0,0.1],[0,0.05],[0,0.01],[0.5,1],[0.5,0],[1,0.05],[1,0.01]];fontColor=default;strokeColor=default;" parent="3RDXuJe9gw5BwNleq9T0-1" vertex="1"><mxGeometry x="-679.9999999999999" y="880" width="160" height="55" as="geometry"><mxRectangle x="-689.9999999999999" y="900" width="160" height="40" as="alternateBounds"/></mxGeometry></mxCell><mxCell id="Hz4OSDU95jKgeBEMDqJM-12" value="_isOpen" style="text;strokeColor=none;fillColor=none;align=left;verticalAlign=middle;spacingLeft=6;spacingRight=4;overflow=hidden;rotatable=0;points=[[0,0.5],[1,0.5]];portConstraint=eastwest;rounded=1;fontColor=default;spacingBottom=2;" parent="Hz4OSDU95jKgeBEMDqJM-11" vertex="1"><mxGeometry y="30" width="160" height="25" as="geometry"/></mxCell><mxCell id="Hz4OSDU95jKgeBEMDqJM-17" value="DeletedUPageNode" style="swimlane;fontStyle=0;childLayout=stackLayout;horizontal=1;startSize=30;fillColor=none;horizontalStack=0;resizeParent=1;resizeParentMax=0;resizeLast=0;collapsible=1;marginBottom=0;rounded=1;points=[[0,0.1],[0,0.05],[0,0.01],[0.5,1],[0.5,0],[1,0.05],[1,0.01]];fontColor=default;strokeColor=default;" parent="3RDXuJe9gw5BwNleq9T0-1" vertex="1"><mxGeometry x="-879.9999999999999" y="1000" width="160" height="80" as="geometry"><mxRectangle x="-689.9999999999999" y="900" width="160" height="40" as="alternateBounds"/></mxGeometry></mxCell><mxCell id="Hz4OSDU95jKgeBEMDqJM-18" value="node" style="text;strokeColor=none;fillColor=none;align=left;verticalAlign=middle;spacingLeft=6;spacingRight=4;overflow=hidden;rotatable=0;points=[[0,0.5],[1,0.5]];portConstraint=eastwest;rounded=1;fontColor=default;spacingBottom=2;" parent="Hz4OSDU95jKgeBEMDqJM-17" vertex="1"><mxGeometry y="30" width="160" height="25" as="geometry"/></mxCell><mxCell id="Hz4OSDU95jKgeBEMDqJM-20" value="deletedAt" style="text;strokeColor=none;fillColor=none;align=left;verticalAlign=middle;spacingLeft=6;spacingRight=4;overflow=hidden;rotatable=0;points=[[0,0.5],[1,0.5]];portConstraint=eastwest;rounded=1;fontColor=default;spacingBottom=2;" parent="Hz4OSDU95jKgeBEMDqJM-17" vertex="1"><mxGeometry y="55" width="160" height="25" as="geometry"/></mxCell><mxCell id="Hz4OSDU95jKgeBEMDqJM-19" style="edgeStyle=elbowEdgeStyle;rounded=1;orthogonalLoop=1;jettySize=auto;html=1;entryX=0;entryY=0.1;entryDx=0;entryDy=0;" parent="3RDXuJe9gw5BwNleq9T0-1" source="Hz4OSDU95jKgeBEMDqJM-18" target="Hz4OSDU95jKgeBEMDqJM-11" edge="1"><mxGeometry relative="1" as="geometry"/></mxCell><mxCell id="Hz4OSDU95jKgeBEMDqJM-21" value="WorkspaceStructure" style="swimlane;fontStyle=0;childLayout=stackLayout;horizontal=1;startSize=30;fillColor=none;horizontalStack=0;resizeParent=1;resizeParentMax=0;resizeLast=0;collapsible=1;marginBottom=0;rounded=1;points=[[0,0.1],[0,0.05],[0,0.01],[0.5,1],[0.5,0],[1,0.05],[1,0.01]];fontColor=default;strokeColor=default;" parent="3RDXuJe9gw5BwNleq9T0-1" vertex="1"><mxGeometry x="-1080" y="880" width="160" height="80" as="geometry"><mxRectangle x="-689.9999999999999" y="900" width="160" height="40" as="alternateBounds"/></mxGeometry></mxCell><mxCell id="Hz4OSDU95jKgeBEMDqJM-22" value="pages" style="text;strokeColor=none;fillColor=none;align=left;verticalAlign=middle;spacingLeft=6;spacingRight=4;overflow=hidden;rotatable=0;points=[[0,0.5],[1,0.5]];portConstraint=eastwest;rounded=1;fontColor=default;spacingBottom=2;" parent="Hz4OSDU95jKgeBEMDqJM-21" vertex="1"><mxGeometry y="30" width="160" height="25" as="geometry"/></mxCell><mxCell id="Hz4OSDU95jKgeBEMDqJM-23" value="trash" style="text;strokeColor=none;fillColor=none;align=left;verticalAlign=middle;spacingLeft=6;spacingRight=4;overflow=hidden;rotatable=0;points=[[0,0.5],[1,0.5]];portConstraint=eastwest;rounded=1;fontColor=default;spacingBottom=2;" parent="Hz4OSDU95jKgeBEMDqJM-21" vertex="1"><mxGeometry y="55" width="160" height="25" as="geometry"/></mxCell><mxCell id="Hz4OSDU95jKgeBEMDqJM-24" style="edgeStyle=elbowEdgeStyle;rounded=1;orthogonalLoop=1;jettySize=auto;html=1;entryX=0;entryY=0.1;entryDx=0;entryDy=0;" parent="3RDXuJe9gw5BwNleq9T0-1" source="Hz4OSDU95jKgeBEMDqJM-22" target="Hz4OSDU95jKgeBEMDqJM-11" edge="1"><mxGeometry relative="1" as="geometry"><mxPoint x="-770" y="813" as="targetPoint"/></mxGeometry></mxCell><mxCell id="Hz4OSDU95jKgeBEMDqJM-25" style="edgeStyle=elbowEdgeStyle;rounded=1;orthogonalLoop=1;jettySize=auto;html=1;entryX=0;entryY=0.1;entryDx=0;entryDy=0;" parent="3RDXuJe9gw5BwNleq9T0-1" source="Hz4OSDU95jKgeBEMDqJM-23" target="Hz4OSDU95jKgeBEMDqJM-17" edge="1"><mxGeometry relative="1" as="geometry"/></mxCell><mxCell id="Hz4OSDU95jKgeBEMDqJM-26" value="WorkspaceNav" style="swimlane;fontStyle=0;childLayout=stackLayout;horizontal=1;startSize=30;fillColor=none;horizontalStack=0;resizeParent=1;resizeParentMax=0;resizeLast=0;collapsible=1;marginBottom=0;rounded=1;points=[[0,0.1],[0,0.05],[0,0.01],[0.5,1],[0.5,0],[1,0.05],[1,0.01]];fontColor=default;strokeColor=default;" parent="3RDXuJe9gw5BwNleq9T0-1" vertex="1"><mxGeometry x="-1080" y="760" width="160" height="80" as="geometry"><mxRectangle x="-689.9999999999999" y="900" width="160" height="40" as="alternateBounds"/></mxGeometry></mxCell><mxCell id="Hz4OSDU95jKgeBEMDqJM-27" value="favorite" style="text;strokeColor=none;fillColor=none;align=left;verticalAlign=middle;spacingLeft=6;spacingRight=4;overflow=hidden;rotatable=0;points=[[0,0.5],[1,0.5]];portConstraint=eastwest;rounded=1;fontColor=default;spacingBottom=2;" parent="Hz4OSDU95jKgeBEMDqJM-26" vertex="1"><mxGeometry y="30" width="160" height="25" as="geometry"/></mxCell><mxCell id="Hz4OSDU95jKgeBEMDqJM-28" value="personal" style="text;strokeColor=none;fillColor=none;align=left;verticalAlign=middle;spacingLeft=6;spacingRight=4;overflow=hidden;rotatable=0;points=[[0,0.5],[1,0.5]];portConstraint=eastwest;rounded=1;fontColor=default;spacingBottom=2;" parent="Hz4OSDU95jKgeBEMDqJM-26" vertex="1"><mxGeometry y="55" width="160" height="25" as="geometry"/></mxCell><mxCell id="Hz4OSDU95jKgeBEMDqJM-29" style="edgeStyle=elbowEdgeStyle;rounded=1;orthogonalLoop=1;jettySize=auto;html=1;entryX=0;entryY=0.1;entryDx=0;entryDy=0;" parent="3RDXuJe9gw5BwNleq9T0-1" source="Hz4OSDU95jKgeBEMDqJM-27" target="Hz4OSDU95jKgeBEMDqJM-11" edge="1"><mxGeometry relative="1" as="geometry"><mxPoint x="-690" y="860" as="targetPoint"/></mxGeometry></mxCell><mxCell id="Hz4OSDU95jKgeBEMDqJM-30" style="edgeStyle=elbowEdgeStyle;rounded=1;orthogonalLoop=1;jettySize=auto;html=1;entryX=0;entryY=0.1;entryDx=0;entryDy=0;" parent="3RDXuJe9gw5BwNleq9T0-1" source="Hz4OSDU95jKgeBEMDqJM-28" target="Hz4OSDU95jKgeBEMDqJM-11" edge="1"><mxGeometry relative="1" as="geometry"><mxPoint x="-680" y="860" as="targetPoint"/></mxGeometry></mxCell><mxCell id="Hz4OSDU95jKgeBEMDqJM-31" value="WorkspaceOpenness" style="swimlane;fontStyle=0;childLayout=stackLayout;horizontal=1;startSize=30;fillColor=none;horizontalStack=0;resizeParent=1;resizeParentMax=0;resizeLast=0;collapsible=1;marginBottom=0;rounded=1;points=[[0,0.1],[0,0.05],[0,0.01],[0.5,1],[0.5,0],[1,0.05],[1,0.01]];fontColor=default;strokeColor=default;" parent="3RDXuJe9gw5BwNleq9T0-1" vertex="1"><mxGeometry x="-1080" y="1000" width="160" height="80" as="geometry"><mxRectangle x="-689.9999999999999" y="900" width="160" height="40" as="alternateBounds"/></mxGeometry></mxCell><mxCell id="Hz4OSDU95jKgeBEMDqJM-32" value="open" style="text;strokeColor=none;fillColor=none;align=left;verticalAlign=middle;spacingLeft=6;spacingRight=4;overflow=hidden;rotatable=0;points=[[0,0.5],[1,0.5]];portConstraint=eastwest;rounded=1;fontColor=default;spacingBottom=2;" parent="Hz4OSDU95jKgeBEMDqJM-31" vertex="1"><mxGeometry y="30" width="160" height="25" as="geometry"/></mxCell><mxCell id="Hz4OSDU95jKgeBEMDqJM-33" value="openFavorite" style="text;strokeColor=none;fillColor=none;align=left;verticalAlign=middle;spacingLeft=6;spacingRight=4;overflow=hidden;rotatable=0;points=[[0,0.5],[1,0.5]];portConstraint=eastwest;rounded=1;fontColor=default;spacingBottom=2;" parent="Hz4OSDU95jKgeBEMDqJM-31" vertex="1"><mxGeometry y="55" width="160" height="25" as="geometry"/></mxCell><mxCell id="Hz4OSDU95jKgeBEMDqJM-37" value="Workspace" style="swimlane;fontStyle=0;childLayout=stackLayout;horizontal=1;startSize=30;fillColor=none;horizontalStack=0;resizeParent=1;resizeParentMax=0;resizeLast=0;collapsible=1;marginBottom=0;rounded=1;points=[[0,0.1],[0,0.05],[0,0.01],[0.5,1],[0.5,0],[1,0.05],[1,0.01]];fontColor=default;strokeColor=default;" parent="3RDXuJe9gw5BwNleq9T0-1" vertex="1"><mxGeometry x="-1280" y="1000" width="160" height="256" as="geometry"><mxRectangle x="469.9999999999999" y="-1230" width="160" height="40" as="alternateBounds"/></mxGeometry></mxCell><mxCell id="Hz4OSDU95jKgeBEMDqJM-44" value="state" style="text;strokeColor=none;fillColor=none;align=left;verticalAlign=middle;spacingLeft=6;spacingRight=4;overflow=hidden;rotatable=0;points=[[0,0.5],[1,0.5]];portConstraint=eastwest;rounded=1;fontColor=default;spacingBottom=2;" parent="Hz4OSDU95jKgeBEMDqJM-37" vertex="1"><mxGeometry y="30" width="160" height="25" as="geometry"/></mxCell><mxCell id="Hz4OSDU95jKgeBEMDqJM-41" value="structure" style="text;strokeColor=none;fillColor=none;align=left;verticalAlign=middle;spacingLeft=6;spacingRight=4;overflow=hidden;rotatable=0;points=[[0,0.5],[1,0.5]];portConstraint=eastwest;rounded=1;fontColor=default;spacingBottom=2;" parent="Hz4OSDU95jKgeBEMDqJM-37" vertex="1"><mxGeometry y="55" width="160" height="25" as="geometry"/></mxCell><mxCell id="Hz4OSDU95jKgeBEMDqJM-38" value="openness" style="text;strokeColor=none;fillColor=none;align=left;verticalAlign=middle;spacingLeft=6;spacingRight=4;overflow=hidden;rotatable=0;points=[[0,0.5],[1,0.5]];portConstraint=eastwest;rounded=1;fontColor=default;spacingBottom=2;" parent="Hz4OSDU95jKgeBEMDqJM-37" vertex="1"><mxGeometry y="80" width="160" height="25" as="geometry"/></mxCell><mxCell id="Hz4OSDU95jKgeBEMDqJM-54" value="cr" style="text;strokeColor=none;fillColor=none;align=left;verticalAlign=middle;spacingLeft=6;spacingRight=4;overflow=hidden;rotatable=0;points=[[0,0.5],[1,0.5]];portConstraint=eastwest;rounded=1;fontColor=default;spacingBottom=2;" parent="Hz4OSDU95jKgeBEMDqJM-37" vertex="1"><mxGeometry y="105" width="160" height="25" as="geometry"/></mxCell><mxCell id="Hz4OSDU95jKgeBEMDqJM-39" value="" style="text;align=center;verticalAlign=bottom;spacingLeft=4;spacingRight=4;overflow=hidden;rotatable=0;points=[[0,0.5],[1,0.5]];portConstraint=eastwest;rounded=1;horizontal=1;fontColor=#ffffff;fillColor=#FFFFFF;strokeColor=default;" parent="Hz4OSDU95jKgeBEMDqJM-37" vertex="1"><mxGeometry y="130" width="160" height="1" as="geometry"/></mxCell><mxCell id="Hz4OSDU95jKgeBEMDqJM-40" value="add" style="text;strokeColor=none;fillColor=none;align=left;verticalAlign=middle;spacingLeft=6;spacingRight=4;overflow=hidden;rotatable=0;points=[[0,0.5],[1,0.5]];portConstraint=eastwest;rounded=1;fontColor=default;spacingBottom=2;" parent="Hz4OSDU95jKgeBEMDqJM-37" vertex="1"><mxGeometry y="131" width="160" height="25" as="geometry"/></mxCell><mxCell id="Hz4OSDU95jKgeBEMDqJM-56" value="remove / r permanently" style="text;strokeColor=none;fillColor=none;align=left;verticalAlign=middle;spacingLeft=6;spacingRight=4;overflow=hidden;rotatable=0;points=[[0,0.5],[1,0.5]];portConstraint=eastwest;rounded=1;fontColor=default;spacingBottom=2;" parent="Hz4OSDU95jKgeBEMDqJM-37" vertex="1"><mxGeometry y="156" width="160" height="25" as="geometry"/></mxCell><mxCell id="Hz4OSDU95jKgeBEMDqJM-57" value="trigger favorite / open" style="text;strokeColor=none;fillColor=none;align=left;verticalAlign=middle;spacingLeft=6;spacingRight=4;overflow=hidden;rotatable=0;points=[[0,0.5],[1,0.5]];portConstraint=eastwest;rounded=1;fontColor=default;spacingBottom=2;" parent="Hz4OSDU95jKgeBEMDqJM-37" vertex="1"><mxGeometry y="181" width="160" height="25" as="geometry"/></mxCell><mxCell id="Hz4OSDU95jKgeBEMDqJM-58" value="rename / setColor" style="text;strokeColor=none;fillColor=none;align=left;verticalAlign=middle;spacingLeft=6;spacingRight=4;overflow=hidden;rotatable=0;points=[[0,0.5],[1,0.5]];portConstraint=eastwest;rounded=1;fontColor=default;spacingBottom=2;" parent="Hz4OSDU95jKgeBEMDqJM-37" vertex="1"><mxGeometry y="206" width="160" height="25" as="geometry"/></mxCell><mxCell id="Hz4OSDU95jKgeBEMDqJM-59" value="general Info getters" style="text;strokeColor=none;fillColor=none;align=left;verticalAlign=middle;spacingLeft=6;spacingRight=4;overflow=hidden;rotatable=0;points=[[0,0.5],[1,0.5]];portConstraint=eastwest;rounded=1;fontColor=default;spacingBottom=2;" parent="Hz4OSDU95jKgeBEMDqJM-37" vertex="1"><mxGeometry y="231" width="160" height="25" as="geometry"/></mxCell><mxCell id="Hz4OSDU95jKgeBEMDqJM-42" style="edgeStyle=elbowEdgeStyle;rounded=1;orthogonalLoop=1;jettySize=auto;html=1;entryX=0;entryY=0.1;entryDx=0;entryDy=0;" parent="3RDXuJe9gw5BwNleq9T0-1" source="Hz4OSDU95jKgeBEMDqJM-41" target="Hz4OSDU95jKgeBEMDqJM-21" edge="1"><mxGeometry relative="1" as="geometry"/></mxCell><mxCell id="Hz4OSDU95jKgeBEMDqJM-43" style="edgeStyle=elbowEdgeStyle;rounded=1;orthogonalLoop=1;jettySize=auto;html=1;entryX=0;entryY=0.1;entryDx=0;entryDy=0;" parent="3RDXuJe9gw5BwNleq9T0-1" source="Hz4OSDU95jKgeBEMDqJM-38" target="Hz4OSDU95jKgeBEMDqJM-31" edge="1"><mxGeometry relative="1" as="geometry"/></mxCell><mxCell id="Hz4OSDU95jKgeBEMDqJM-45" style="edgeStyle=elbowEdgeStyle;rounded=1;orthogonalLoop=1;jettySize=auto;html=1;entryX=0;entryY=0.1;entryDx=0;entryDy=0;" parent="3RDXuJe9gw5BwNleq9T0-1" source="Hz4OSDU95jKgeBEMDqJM-44" target="Hz4OSDU95jKgeBEMDqJM-26" edge="1"><mxGeometry relative="1" as="geometry"/></mxCell><mxCell id="Hz4OSDU95jKgeBEMDqJM-46" value="WorkspaceDTO" style="swimlane;fontStyle=0;childLayout=stackLayout;horizontal=1;startSize=30;fillColor=none;horizontalStack=0;resizeParent=1;resizeParentMax=0;resizeLast=0;collapsible=1;marginBottom=0;rounded=1;points=[[0,0.1],[0,0.05],[0,0.01],[0.5,1],[0.5,0],[1,0.05],[1,0.01]];fontColor=default;strokeColor=default;" parent="3RDXuJe9gw5BwNleq9T0-1" vertex="1"><mxGeometry x="-1280" y="880" width="160" height="80" as="geometry"><mxRectangle x="-689.9999999999999" y="900" width="160" height="40" as="alternateBounds"/></mxGeometry></mxCell><mxCell id="Hz4OSDU95jKgeBEMDqJM-47" value="favorite" style="text;strokeColor=none;fillColor=none;align=left;verticalAlign=middle;spacingLeft=6;spacingRight=4;overflow=hidden;rotatable=0;points=[[0,0.5],[1,0.5]];portConstraint=eastwest;rounded=1;fontColor=default;spacingBottom=2;" parent="Hz4OSDU95jKgeBEMDqJM-46" vertex="1"><mxGeometry y="30" width="160" height="25" as="geometry"/></mxCell><mxCell id="Hz4OSDU95jKgeBEMDqJM-48" value="updates" style="text;strokeColor=none;fillColor=none;align=left;verticalAlign=middle;spacingLeft=6;spacingRight=4;overflow=hidden;rotatable=0;points=[[0,0.5],[1,0.5]];portConstraint=eastwest;rounded=1;fontColor=default;spacingBottom=2;" parent="Hz4OSDU95jKgeBEMDqJM-46" vertex="1"><mxGeometry y="55" width="160" height="25" as="geometry"/></mxCell><mxCell id="Hz4OSDU95jKgeBEMDqJM-49" value="WorkspaceCR" style="swimlane;fontStyle=0;childLayout=stackLayout;horizontal=1;startSize=30;fillColor=none;horizontalStack=0;resizeParent=1;resizeParentMax=0;resizeLast=0;collapsible=1;marginBottom=0;rounded=1;points=[[0,0.1],[0,0.05],[0,0.01],[0.5,1],[0.5,0],[1,0.05],[1,0.01]];fontColor=default;strokeColor=default;" parent="3RDXuJe9gw5BwNleq9T0-1" vertex="1"><mxGeometry x="-1080" y="1161" width="160" height="106" as="geometry"><mxRectangle x="469.9999999999999" y="-1230" width="160" height="40" as="alternateBounds"/></mxGeometry></mxCell><mxCell id="Hz4OSDU95jKgeBEMDqJM-50" value="attr" style="text;strokeColor=none;fillColor=none;align=left;verticalAlign=middle;spacingLeft=6;spacingRight=4;overflow=hidden;rotatable=0;points=[[0,0.5],[1,0.5]];portConstraint=eastwest;rounded=1;fontColor=default;spacingBottom=2;" parent="Hz4OSDU95jKgeBEMDqJM-49" vertex="1"><mxGeometry y="30" width="160" height="25" as="geometry"/></mxCell><mxCell id="Hz4OSDU95jKgeBEMDqJM-51" value="" style="text;align=center;verticalAlign=bottom;spacingLeft=4;spacingRight=4;overflow=hidden;rotatable=0;points=[[0,0.5],[1,0.5]];portConstraint=eastwest;rounded=1;horizontal=1;fontColor=#ffffff;fillColor=#FFFFFF;strokeColor=default;" parent="Hz4OSDU95jKgeBEMDqJM-49" vertex="1"><mxGeometry y="55" width="160" height="1" as="geometry"/></mxCell><mxCell id="Hz4OSDU95jKgeBEMDqJM-52" value="applyUpdate" style="text;strokeColor=none;fillColor=none;align=left;verticalAlign=middle;spacingLeft=6;spacingRight=4;overflow=hidden;rotatable=0;points=[[0,0.5],[1,0.5]];portConstraint=eastwest;rounded=1;fontColor=default;spacingBottom=2;" parent="Hz4OSDU95jKgeBEMDqJM-49" vertex="1"><mxGeometry y="56" width="160" height="25" as="geometry"/></mxCell><mxCell id="Hz4OSDU95jKgeBEMDqJM-53" value="change" style="text;strokeColor=none;fillColor=none;align=left;verticalAlign=middle;spacingLeft=6;spacingRight=4;overflow=hidden;rotatable=0;points=[[0,0.5],[1,0.5]];portConstraint=eastwest;rounded=1;fontColor=default;spacingBottom=2;" parent="Hz4OSDU95jKgeBEMDqJM-49" vertex="1"><mxGeometry y="81" width="160" height="25" as="geometry"/></mxCell><mxCell id="Hz4OSDU95jKgeBEMDqJM-55" style="edgeStyle=elbowEdgeStyle;rounded=1;orthogonalLoop=1;jettySize=auto;html=1;entryX=0;entryY=0.1;entryDx=0;entryDy=0;" parent="3RDXuJe9gw5BwNleq9T0-1" source="Hz4OSDU95jKgeBEMDqJM-54" target="Hz4OSDU95jKgeBEMDqJM-49" edge="1"><mxGeometry relative="1" as="geometry"/></mxCell><mxCell id="Hz4OSDU95jKgeBEMDqJM-60" value="on page fork / access removal a tmp SubWS is created" style="rounded=1;whiteSpace=wrap;arcSize=22;fontFamily=Helvetica;fontSize=11;fontColor=default;strokeColor=none;fillColor=none;dashed=1;startSize=26;" parent="3RDXuJe9gw5BwNleq9T0-1" vertex="1"><mxGeometry x="-710" y="580" width="140" height="40" as="geometry"/></mxCell><mxCell id="Hz4OSDU95jKgeBEMDqJM-61" value="Workspaces" style="rounded=1;whiteSpace=wrap;arcSize=22;fontFamily=Helvetica;fontSize=11;fontColor=default;strokeColor=default;fillColor=none;startSize=26;" parent="3RDXuJe9gw5BwNleq9T0-1" vertex="1"><mxGeometry x="-880" y="440" width="160" height="40" as="geometry"/></mxCell><mxCell id="Hz4OSDU95jKgeBEMDqJM-63" value="Block editor / quizzes" style="rounded=1;whiteSpace=wrap;arcSize=22;fontFamily=Helvetica;fontSize=11;fontColor=default;strokeColor=default;fillColor=none;startSize=26;" parent="3RDXuJe9gw5BwNleq9T0-1" vertex="1"><mxGeometry x="960" y="-40" width="160" height="40" as="geometry"/></mxCell><mxCell id="Hz4OSDU95jKgeBEMDqJM-67" style="edgeStyle=elbowEdgeStyle;rounded=1;orthogonalLoop=1;jettySize=auto;html=1;entryX=0.5;entryY=1;entryDx=0;entryDy=0;elbow=vertical;" parent="3RDXuJe9gw5BwNleq9T0-1" source="Hz4OSDU95jKgeBEMDqJM-64" target="Hz4OSDU95jKgeBEMDqJM-63" edge="1"><mxGeometry relative="1" as="geometry"/></mxCell><mxCell id="Hz4OSDU95jKgeBEMDqJM-64" value="Teacher's tools" style="rounded=1;whiteSpace=wrap;arcSize=22;fontFamily=Helvetica;fontSize=11;fontColor=default;strokeColor=default;fillColor=none;startSize=26;" parent="3RDXuJe9gw5BwNleq9T0-1" vertex="1"><mxGeometry x="840" y="40" width="160" height="40" as="geometry"/></mxCell><mxCell id="Hz4OSDU95jKgeBEMDqJM-68" style="edgeStyle=elbowEdgeStyle;rounded=1;orthogonalLoop=1;jettySize=auto;elbow=vertical;html=1;entryX=0.5;entryY=1;entryDx=0;entryDy=0;" parent="3RDXuJe9gw5BwNleq9T0-1" source="Hz4OSDU95jKgeBEMDqJM-65" target="Hz4OSDU95jKgeBEMDqJM-63" edge="1"><mxGeometry relative="1" as="geometry"/></mxCell><mxCell id="Hz4OSDU95jKgeBEMDqJM-65" value="Student's tools" style="rounded=1;whiteSpace=wrap;arcSize=22;fontFamily=Helvetica;fontSize=11;fontColor=default;strokeColor=default;fillColor=none;startSize=26;" parent="3RDXuJe9gw5BwNleq9T0-1" vertex="1"><mxGeometry x="1080" y="40" width="160" height="40" as="geometry"/></mxCell><mxCell id="Hz4OSDU95jKgeBEMDqJM-69" style="edgeStyle=elbowEdgeStyle;rounded=1;orthogonalLoop=1;jettySize=auto;elbow=vertical;html=1;entryX=0.5;entryY=1;entryDx=0;entryDy=0;" parent="3RDXuJe9gw5BwNleq9T0-1" source="Hz4OSDU95jKgeBEMDqJM-66" target="Hz4OSDU95jKgeBEMDqJM-64" edge="1"><mxGeometry relative="1" as="geometry"/></mxCell><mxCell id="Hz4OSDU95jKgeBEMDqJM-70" style="edgeStyle=elbowEdgeStyle;rounded=1;orthogonalLoop=1;jettySize=auto;elbow=vertical;html=1;entryX=0.5;entryY=1;entryDx=0;entryDy=0;" parent="3RDXuJe9gw5BwNleq9T0-1" source="Hz4OSDU95jKgeBEMDqJM-66" target="Hz4OSDU95jKgeBEMDqJM-65" edge="1"><mxGeometry relative="1" as="geometry"/></mxCell><mxCell id="Hz4OSDU95jKgeBEMDqJM-66" value="Statistics" style="rounded=1;whiteSpace=wrap;arcSize=22;fontFamily=Helvetica;fontSize=11;fontColor=default;strokeColor=default;fillColor=none;startSize=26;" parent="3RDXuJe9gw5BwNleq9T0-1" vertex="1"><mxGeometry x="960" y="120" width="160" height="40" as="geometry"/></mxCell><mxCell id="Hz4OSDU95jKgeBEMDqJM-73" style="edgeStyle=elbowEdgeStyle;rounded=1;orthogonalLoop=1;jettySize=auto;elbow=vertical;html=1;entryX=1;entryY=0.5;entryDx=0;entryDy=0;" parent="3RDXuJe9gw5BwNleq9T0-1" source="Hz4OSDU95jKgeBEMDqJM-71" target="Hz4OSDU95jKgeBEMDqJM-65" edge="1"><mxGeometry relative="1" as="geometry"/></mxCell><mxCell id="Hz4OSDU95jKgeBEMDqJM-71" value="Universal learning" style="rounded=1;whiteSpace=wrap;arcSize=22;fontFamily=Helvetica;fontSize=11;fontColor=default;strokeColor=default;fillColor=none;startSize=26;" parent="3RDXuJe9gw5BwNleq9T0-1" vertex="1"><mxGeometry x="1280" width="160" height="40" as="geometry"/></mxCell><mxCell id="Hz4OSDU95jKgeBEMDqJM-74" style="edgeStyle=elbowEdgeStyle;rounded=1;orthogonalLoop=1;jettySize=auto;elbow=vertical;html=1;entryX=1;entryY=0.5;entryDx=0;entryDy=0;" parent="3RDXuJe9gw5BwNleq9T0-1" source="Hz4OSDU95jKgeBEMDqJM-72" target="Hz4OSDU95jKgeBEMDqJM-65" edge="1"><mxGeometry relative="1" as="geometry"/></mxCell><mxCell id="Hz4OSDU95jKgeBEMDqJM-72" value="Words learning" style="rounded=1;whiteSpace=wrap;arcSize=22;fontFamily=Helvetica;fontSize=11;fontColor=default;strokeColor=default;fillColor=none;startSize=26;" parent="3RDXuJe9gw5BwNleq9T0-1" vertex="1"><mxGeometry x="1280" y="80" width="160" height="40" as="geometry"/></mxCell><mxCell id="Hz4OSDU95jKgeBEMDqJM-0" value="Runtime Page state" style="rounded=1;whiteSpace=wrap;arcSize=22;fontFamily=Helvetica;fontSize=11;fontColor=default;strokeColor=default;fillColor=none;startSize=26;" parent="3RDXuJe9gw5BwNleq9T0-1" vertex="1"><mxGeometry x="200" y="60" width="160" height="40" as="geometry"/></mxCell><mxCell id="lzS3_q89dWGhRhvwKs83-0" value="Generates low level changes for shallow tree" style="rounded=1;whiteSpace=wrap;arcSize=22;fontFamily=Helvetica;fontSize=11;fontColor=default;strokeColor=none;fillColor=none;dashed=1;startSize=26;" parent="3RDXuJe9gw5BwNleq9T0-1" vertex="1"><mxGeometry x="250" y="940" width="140" height="40" as="geometry"/></mxCell><mxCell id="lzS3_q89dWGhRhvwKs83-1" value="Files are deleted via" style="rounded=1;whiteSpace=wrap;arcSize=22;fontFamily=Helvetica;fontSize=11;fontColor=default;strokeColor=none;fillColor=none;dashed=1;startSize=26;" parent="3RDXuJe9gw5BwNleq9T0-1" vertex="1"><mxGeometry x="-150" y="1150" width="140" height="40" as="geometry"/></mxCell><mxCell id="lzS3_q89dWGhRhvwKs83-2" value="FileUploader" style="rounded=1;whiteSpace=wrap;arcSize=22;fontFamily=Helvetica;fontSize=11;fontColor=default;strokeColor=default;fillColor=none;startSize=26;glass=0;" parent="3RDXuJe9gw5BwNleq9T0-1" vertex="1"><mxGeometry x="-160" y="1200" width="160" height="40" as="geometry"/></mxCell><mxCell id="lzS3_q89dWGhRhvwKs83-57" value="RuntimeDataKeeper" style="swimlane;fontStyle=0;childLayout=stackLayout;horizontal=1;startSize=30;fillColor=none;horizontalStack=0;resizeParent=1;resizeParentMax=0;resizeLast=0;collapsible=1;marginBottom=0;rounded=1;points=[[0,0.1],[0,0.05],[0,0.01],[0.5,1],[0.5,0],[1,0.05],[1,0.01]];fontColor=default;strokeColor=default;" parent="3RDXuJe9gw5BwNleq9T0-1" vertex="1"><mxGeometry x="40.000000000000114" y="1361" width="160" height="55" as="geometry"><mxRectangle x="580" y="-1120" width="160" height="40" as="alternateBounds"/></mxGeometry></mxCell><mxCell id="lzS3_q89dWGhRhvwKs83-58" value="transferRuntimeData" style="text;strokeColor=none;fillColor=none;align=left;verticalAlign=middle;spacingLeft=6;spacingRight=4;overflow=hidden;rotatable=0;points=[[0,0.5],[1,0.5]];portConstraint=eastwest;rounded=1;fontColor=default;spacingBottom=2;" parent="lzS3_q89dWGhRhvwKs83-57" vertex="1"><mxGeometry y="30" width="160" height="25" as="geometry"/></mxCell><mxCell id="lzS3_q89dWGhRhvwKs83-59" value="UFormRuntime" style="swimlane;fontStyle=0;childLayout=stackLayout;horizontal=1;startSize=30;fillColor=none;horizontalStack=0;resizeParent=1;resizeParentMax=0;resizeLast=0;collapsible=1;marginBottom=0;rounded=1;points=[[0,0.1],[0,0.05],[0,0.01],[0.5,1],[0.5,0],[1,0.05],[1,0.01]];fontColor=default;strokeColor=default;" parent="3RDXuJe9gw5BwNleq9T0-1" vertex="1"><mxGeometry x="40.000000000000114" y="1200" width="160" height="105" as="geometry"><mxRectangle x="580" y="-1120" width="160" height="40" as="alternateBounds"/></mxGeometry></mxCell><mxCell id="lzS3_q89dWGhRhvwKs83-60" value="toggle" style="text;strokeColor=none;fillColor=none;align=left;verticalAlign=middle;spacingLeft=6;spacingRight=4;overflow=hidden;rotatable=0;points=[[0,0.5],[1,0.5]];portConstraint=eastwest;rounded=1;fontColor=default;spacingBottom=2;" parent="lzS3_q89dWGhRhvwKs83-59" vertex="1"><mxGeometry y="30" width="160" height="25" as="geometry"/></mxCell><mxCell id="lzS3_q89dWGhRhvwKs83-61" value="retry" style="text;strokeColor=none;fillColor=none;align=left;verticalAlign=middle;spacingLeft=6;spacingRight=4;overflow=hidden;rotatable=0;points=[[0,0.5],[1,0.5]];portConstraint=eastwest;rounded=1;fontColor=default;spacingBottom=2;" parent="lzS3_q89dWGhRhvwKs83-59" vertex="1"><mxGeometry y="55" width="160" height="25" as="geometry"/></mxCell><mxCell id="lzS3_q89dWGhRhvwKs83-62" value="submit" style="text;strokeColor=none;fillColor=none;align=left;verticalAlign=middle;spacingLeft=6;spacingRight=4;overflow=hidden;rotatable=0;points=[[0,0.5],[1,0.5]];portConstraint=eastwest;rounded=1;fontColor=default;spacingBottom=2;" parent="lzS3_q89dWGhRhvwKs83-59" vertex="1"><mxGeometry y="80" width="160" height="25" as="geometry"/></mxCell><mxCell id="lzS3_q89dWGhRhvwKs83-63" style="edgeStyle=elbowEdgeStyle;rounded=1;orthogonalLoop=1;jettySize=auto;html=1;entryX=0;entryY=0.1;entryDx=0;entryDy=0;endArrow=classic;endFill=1;" parent="3RDXuJe9gw5BwNleq9T0-1" source="SJr02IDGZpaZOxx_1kyR-6" target="lzS3_q89dWGhRhvwKs83-59" edge="1"><mxGeometry relative="1" as="geometry"/></mxCell><mxCell id="lzS3_q89dWGhRhvwKs83-64" value="Runtime tree split into these abstractions" style="rounded=1;whiteSpace=wrap;arcSize=22;fontFamily=Helvetica;fontSize=11;fontColor=default;strokeColor=none;fillColor=none;dashed=1;startSize=26;" parent="3RDXuJe9gw5BwNleq9T0-1" vertex="1"><mxGeometry x="50" y="1313" width="140" height="40" as="geometry"/></mxCell><mxCell id="lzS3_q89dWGhRhvwKs83-66" value="UPageCursor" style="swimlane;fontStyle=0;childLayout=stackLayout;horizontal=1;startSize=30;fillColor=none;horizontalStack=0;resizeParent=1;resizeParentMax=0;resizeLast=0;collapsible=1;marginBottom=0;rounded=1;points=[[0,0.1],[0,0.05],[0,0.01],[0.5,1],[0.5,0],[1,0.05],[1,0.01]];fontColor=default;strokeColor=default;" parent="3RDXuJe9gw5BwNleq9T0-1" vertex="1"><mxGeometry x="40.000000000000114" y="400" width="160" height="120" as="geometry"><mxRectangle x="580" y="-1120" width="160" height="40" as="alternateBounds"/></mxGeometry></mxCell><mxCell id="lzS3_q89dWGhRhvwKs83-70" value="UPageFocus" style="swimlane;fontStyle=0;childLayout=stackLayout;horizontal=1;startSize=30;fillColor=none;horizontalStack=0;resizeParent=1;resizeParentMax=0;resizeLast=0;collapsible=1;marginBottom=0;rounded=1;points=[[0,0.1],[0,0.05],[0,0.01],[0.5,1],[0.5,0],[1,0.05],[1,0.01]];fontColor=default;strokeColor=default;" parent="lzS3_q89dWGhRhvwKs83-66" vertex="1" collapsed="1"><mxGeometry y="30" width="160" height="40" as="geometry"><mxRectangle y="30" width="160" height="130" as="alternateBounds"/></mxGeometry></mxCell><mxCell id="lzS3_q89dWGhRhvwKs83-71" value="id" style="text;strokeColor=none;fillColor=none;align=left;verticalAlign=middle;spacingLeft=6;spacingRight=4;overflow=hidden;rotatable=0;points=[[0,0.5],[1,0.5]];portConstraint=eastwest;rounded=1;fontColor=default;spacingBottom=2;" parent="lzS3_q89dWGhRhvwKs83-70" vertex="1"><mxGeometry y="30" width="160" height="25" as="geometry"/></mxCell><mxCell id="lzS3_q89dWGhRhvwKs83-72" value="xOffset" style="text;strokeColor=none;fillColor=none;align=left;verticalAlign=middle;spacingLeft=6;spacingRight=4;overflow=hidden;rotatable=0;points=[[0,0.5],[1,0.5]];portConstraint=eastwest;rounded=1;fontColor=default;spacingBottom=2;" parent="lzS3_q89dWGhRhvwKs83-70" vertex="1"><mxGeometry y="55" width="160" height="25" as="geometry"/></mxCell><mxCell id="lzS3_q89dWGhRhvwKs83-73" value="type" style="text;strokeColor=none;fillColor=none;align=left;verticalAlign=middle;spacingLeft=6;spacingRight=4;overflow=hidden;rotatable=0;points=[[0,0.5],[1,0.5]];portConstraint=eastwest;rounded=1;fontColor=default;spacingBottom=2;" parent="lzS3_q89dWGhRhvwKs83-70" vertex="1"><mxGeometry y="80" width="160" height="25" as="geometry"/></mxCell><mxCell id="lzS3_q89dWGhRhvwKs83-74" value="fresh" style="text;strokeColor=none;fillColor=none;align=left;verticalAlign=middle;spacingLeft=6;spacingRight=4;overflow=hidden;rotatable=0;points=[[0,0.5],[1,0.5]];portConstraint=eastwest;rounded=1;fontColor=default;spacingBottom=2;" parent="lzS3_q89dWGhRhvwKs83-70" vertex="1"><mxGeometry y="105" width="160" height="25" as="geometry"/></mxCell><mxCell id="lzS3_q89dWGhRhvwKs83-68" value="selected" style="text;strokeColor=none;fillColor=none;align=left;verticalAlign=middle;spacingLeft=6;spacingRight=4;overflow=hidden;rotatable=0;points=[[0,0.5],[1,0.5]];portConstraint=eastwest;rounded=1;fontColor=default;spacingBottom=2;" parent="lzS3_q89dWGhRhvwKs83-66" vertex="1"><mxGeometry y="70" width="160" height="25" as="geometry"/></mxCell><mxCell id="lzS3_q89dWGhRhvwKs83-69" value="isDragging" style="text;strokeColor=none;fillColor=none;align=left;verticalAlign=middle;spacingLeft=6;spacingRight=4;overflow=hidden;rotatable=0;points=[[0,0.5],[1,0.5]];portConstraint=eastwest;rounded=1;fontColor=default;spacingBottom=2;" parent="lzS3_q89dWGhRhvwKs83-66" vertex="1"><mxGeometry y="95" width="160" height="25" as="geometry"/></mxCell><mxCell id="lzS3_q89dWGhRhvwKs83-75" style="edgeStyle=elbowEdgeStyle;rounded=1;orthogonalLoop=1;jettySize=auto;html=1;entryX=0;entryY=0.1;entryDx=0;entryDy=0;endArrow=classic;endFill=1;" parent="3RDXuJe9gw5BwNleq9T0-1" source="lzS3_q89dWGhRhvwKs83-65" target="lzS3_q89dWGhRhvwKs83-66" edge="1"><mxGeometry relative="1" as="geometry"/></mxCell><mxCell id="lzS3_q89dWGhRhvwKs83-76" value="UPageStateMutation" style="swimlane;fontStyle=0;childLayout=stackLayout;horizontal=1;startSize=30;fillColor=none;horizontalStack=0;resizeParent=1;resizeParentMax=0;resizeLast=0;collapsible=1;marginBottom=0;rounded=1;points=[[0,0.1],[0,0.05],[0,0.01],[0.5,1],[0.5,0],[1,0.05],[1,0.01]];fontColor=default;strokeColor=default;" parent="3RDXuJe9gw5BwNleq9T0-1" vertex="1"><mxGeometry x="-159.9999999999999" y="400" width="160" height="265" as="geometry"><mxRectangle x="-159.9999999999999" y="400" width="160" height="40" as="alternateBounds"/></mxGeometry></mxCell><mxCell id="lzS3_q89dWGhRhvwKs83-78" value="UPageCursorMutation" style="swimlane;fontStyle=0;childLayout=stackLayout;horizontal=1;startSize=30;fillColor=none;horizontalStack=0;resizeParent=1;resizeParentMax=0;resizeLast=0;collapsible=1;marginBottom=0;rounded=1;points=[[0,0.1],[0,0.05],[0,0.01],[0.5,1],[0.5,0],[1,0.05],[1,0.01]];fontColor=default;strokeColor=default;" parent="lzS3_q89dWGhRhvwKs83-76" vertex="1" collapsed="1"><mxGeometry y="30" width="160" height="40" as="geometry"><mxRectangle x="-339.9999999999999" y="560" width="160" height="230" as="alternateBounds"/></mxGeometry></mxCell><mxCell id="lzS3_q89dWGhRhvwKs83-79" value="moveFocusUp" style="text;strokeColor=none;fillColor=none;align=left;verticalAlign=middle;spacingLeft=6;spacingRight=4;overflow=hidden;rotatable=0;points=[[0,0.5],[1,0.5]];portConstraint=eastwest;rounded=1;fontColor=default;spacingBottom=2;" parent="lzS3_q89dWGhRhvwKs83-78" vertex="1"><mxGeometry y="30" width="160" height="25" as="geometry"/></mxCell><mxCell id="lzS3_q89dWGhRhvwKs83-80" value="moveFocusDown" style="text;strokeColor=none;fillColor=none;align=left;verticalAlign=middle;spacingLeft=6;spacingRight=4;overflow=hidden;rotatable=0;points=[[0,0.5],[1,0.5]];portConstraint=eastwest;rounded=1;fontColor=default;spacingBottom=2;" parent="lzS3_q89dWGhRhvwKs83-78" vertex="1"><mxGeometry y="55" width="160" height="25" as="geometry"/></mxCell><mxCell id="lzS3_q89dWGhRhvwKs83-81" value="resetFocus" style="text;strokeColor=none;fillColor=none;align=left;verticalAlign=middle;spacingLeft=6;spacingRight=4;overflow=hidden;rotatable=0;points=[[0,0.5],[1,0.5]];portConstraint=eastwest;rounded=1;fontColor=default;spacingBottom=2;" parent="lzS3_q89dWGhRhvwKs83-78" vertex="1"><mxGeometry y="80" width="160" height="25" as="geometry"/></mxCell><mxCell id="lzS3_q89dWGhRhvwKs83-82" value="select" style="text;strokeColor=none;fillColor=none;align=left;verticalAlign=middle;spacingLeft=6;spacingRight=4;overflow=hidden;rotatable=0;points=[[0,0.5],[1,0.5]];portConstraint=eastwest;rounded=1;fontColor=default;spacingBottom=2;" parent="lzS3_q89dWGhRhvwKs83-78" vertex="1"><mxGeometry y="105" width="160" height="25" as="geometry"/></mxCell><mxCell id="lzS3_q89dWGhRhvwKs83-83" value="selectAll" style="text;strokeColor=none;fillColor=none;align=left;verticalAlign=middle;spacingLeft=6;spacingRight=4;overflow=hidden;rotatable=0;points=[[0,0.5],[1,0.5]];portConstraint=eastwest;rounded=1;fontColor=default;spacingBottom=2;" parent="lzS3_q89dWGhRhvwKs83-78" vertex="1"><mxGeometry y="130" width="160" height="25" as="geometry"/></mxCell><mxCell id="lzS3_q89dWGhRhvwKs83-84" value="unselect" style="text;strokeColor=none;fillColor=none;align=left;verticalAlign=middle;spacingLeft=6;spacingRight=4;overflow=hidden;rotatable=0;points=[[0,0.5],[1,0.5]];portConstraint=eastwest;rounded=1;fontColor=default;spacingBottom=2;" parent="lzS3_q89dWGhRhvwKs83-78" vertex="1"><mxGeometry y="155" width="160" height="25" as="geometry"/></mxCell><mxCell id="lzS3_q89dWGhRhvwKs83-85" value="onDragStart" style="text;strokeColor=none;fillColor=none;align=left;verticalAlign=middle;spacingLeft=6;spacingRight=4;overflow=hidden;rotatable=0;points=[[0,0.5],[1,0.5]];portConstraint=eastwest;rounded=1;fontColor=default;spacingBottom=2;" parent="lzS3_q89dWGhRhvwKs83-78" vertex="1"><mxGeometry y="180" width="160" height="25" as="geometry"/></mxCell><mxCell id="lzS3_q89dWGhRhvwKs83-86" value="onDragEnd" style="text;strokeColor=none;fillColor=none;align=left;verticalAlign=middle;spacingLeft=6;spacingRight=4;overflow=hidden;rotatable=0;points=[[0,0.5],[1,0.5]];portConstraint=eastwest;rounded=1;fontColor=default;spacingBottom=2;" parent="lzS3_q89dWGhRhvwKs83-78" vertex="1"><mxGeometry y="205" width="160" height="25" as="geometry"/></mxCell><mxCell id="lzS3_q89dWGhRhvwKs83-87" value="UPageBlocksManagement" style="swimlane;fontStyle=0;childLayout=stackLayout;horizontal=1;startSize=30;fillColor=none;horizontalStack=0;resizeParent=1;resizeParentMax=0;resizeLast=0;collapsible=1;marginBottom=0;rounded=1;points=[[0,0.1],[0,0.05],[0,0.01],[0.5,1],[0.5,0],[1,0.05],[1,0.01]];fontColor=default;strokeColor=default;" parent="lzS3_q89dWGhRhvwKs83-76" vertex="1" collapsed="1"><mxGeometry y="70" width="160" height="40" as="geometry"><mxRectangle y="70" width="160" height="155" as="alternateBounds"/></mxGeometry></mxCell><mxCell id="lzS3_q89dWGhRhvwKs83-88" value="rearrange" style="text;strokeColor=none;fillColor=none;align=left;verticalAlign=middle;spacingLeft=6;spacingRight=4;overflow=hidden;rotatable=0;points=[[0,0.5],[1,0.5]];portConstraint=eastwest;rounded=1;fontColor=default;spacingBottom=2;" parent="lzS3_q89dWGhRhvwKs83-87" vertex="1"><mxGeometry y="30" width="160" height="25" as="geometry"/></mxCell><mxCell id="lzS3_q89dWGhRhvwKs83-89" value="add" style="text;strokeColor=none;fillColor=none;align=left;verticalAlign=middle;spacingLeft=6;spacingRight=4;overflow=hidden;rotatable=0;points=[[0,0.5],[1,0.5]];portConstraint=eastwest;rounded=1;fontColor=default;spacingBottom=2;" parent="lzS3_q89dWGhRhvwKs83-87" vertex="1"><mxGeometry y="55" width="160" height="25" as="geometry"/></mxCell><mxCell id="lzS3_q89dWGhRhvwKs83-90" value="deleteSelected" style="text;strokeColor=none;fillColor=none;align=left;verticalAlign=middle;spacingLeft=6;spacingRight=4;overflow=hidden;rotatable=0;points=[[0,0.5],[1,0.5]];portConstraint=eastwest;rounded=1;fontColor=default;spacingBottom=2;" parent="lzS3_q89dWGhRhvwKs83-87" vertex="1"><mxGeometry y="80" width="160" height="25" as="geometry"/></mxCell><mxCell id="lzS3_q89dWGhRhvwKs83-91" value="createUGrid" style="text;strokeColor=none;fillColor=none;align=left;verticalAlign=middle;spacingLeft=6;spacingRight=4;overflow=hidden;rotatable=0;points=[[0,0.5],[1,0.5]];portConstraint=eastwest;rounded=1;fontColor=default;spacingBottom=2;" parent="lzS3_q89dWGhRhvwKs83-87" vertex="1"><mxGeometry y="105" width="160" height="25" as="geometry"/></mxCell><mxCell id="lzS3_q89dWGhRhvwKs83-92" value="moveTo" style="text;strokeColor=none;fillColor=none;align=left;verticalAlign=middle;spacingLeft=6;spacingRight=4;overflow=hidden;rotatable=0;points=[[0,0.5],[1,0.5]];portConstraint=eastwest;rounded=1;fontColor=default;spacingBottom=2;" parent="lzS3_q89dWGhRhvwKs83-87" vertex="1"><mxGeometry y="130" width="160" height="25" as="geometry"/></mxCell><mxCell id="lzS3_q89dWGhRhvwKs83-97" value="UPageStateChange" style="swimlane;fontStyle=0;childLayout=stackLayout;horizontal=1;startSize=30;fillColor=none;horizontalStack=0;resizeParent=1;resizeParentMax=0;resizeLast=0;collapsible=1;marginBottom=0;rounded=1;points=[[0,0.1],[0,0.05],[0,0.01],[0.5,1],[0.5,0],[1,0.05],[1,0.01]];fontColor=default;strokeColor=default;" parent="lzS3_q89dWGhRhvwKs83-76" vertex="1" collapsed="1"><mxGeometry y="110" width="160" height="40" as="geometry"><mxRectangle y="110" width="160" height="155" as="alternateBounds"/></mxGeometry></mxCell><mxCell id="lzS3_q89dWGhRhvwKs83-98" value="change" style="text;strokeColor=none;fillColor=none;align=left;verticalAlign=middle;spacingLeft=6;spacingRight=4;overflow=hidden;rotatable=0;points=[[0,0.5],[1,0.5]];portConstraint=eastwest;rounded=1;fontColor=default;spacingBottom=2;" parent="lzS3_q89dWGhRhvwKs83-97" vertex="1"><mxGeometry y="30" width="160" height="25" as="geometry"/></mxCell><mxCell id="lzS3_q89dWGhRhvwKs83-99" value="changeType" style="text;strokeColor=none;fillColor=none;align=left;verticalAlign=middle;spacingLeft=6;spacingRight=4;overflow=hidden;rotatable=0;points=[[0,0.5],[1,0.5]];portConstraint=eastwest;rounded=1;fontColor=default;spacingBottom=2;" parent="lzS3_q89dWGhRhvwKs83-97" vertex="1"><mxGeometry y="55" width="160" height="25" as="geometry"/></mxCell><mxCell id="lzS3_q89dWGhRhvwKs83-100" value="triggerUListOpen" style="text;strokeColor=none;fillColor=none;align=left;verticalAlign=middle;spacingLeft=6;spacingRight=4;overflow=hidden;rotatable=0;points=[[0,0.5],[1,0.5]];portConstraint=eastwest;rounded=1;fontColor=default;spacingBottom=2;" parent="lzS3_q89dWGhRhvwKs83-97" vertex="1"><mxGeometry y="80" width="160" height="25" as="geometry"/></mxCell><mxCell id="lzS3_q89dWGhRhvwKs83-101" value="createUGrid" style="text;strokeColor=none;fillColor=none;align=left;verticalAlign=middle;spacingLeft=6;spacingRight=4;overflow=hidden;rotatable=0;points=[[0,0.5],[1,0.5]];portConstraint=eastwest;rounded=1;fontColor=default;spacingBottom=2;" parent="lzS3_q89dWGhRhvwKs83-97" vertex="1"><mxGeometry y="105" width="160" height="25" as="geometry"/></mxCell><mxCell id="lzS3_q89dWGhRhvwKs83-102" value="moveTo" style="text;strokeColor=none;fillColor=none;align=left;verticalAlign=middle;spacingLeft=6;spacingRight=4;overflow=hidden;rotatable=0;points=[[0,0.5],[1,0.5]];portConstraint=eastwest;rounded=1;fontColor=default;spacingBottom=2;" parent="lzS3_q89dWGhRhvwKs83-97" vertex="1"><mxGeometry y="130" width="160" height="25" as="geometry"/></mxCell><mxCell id="lzS3_q89dWGhRhvwKs83-104" value="UTextEventHandlers" style="swimlane;fontStyle=0;childLayout=stackLayout;horizontal=1;startSize=30;fillColor=none;horizontalStack=0;resizeParent=1;resizeParentMax=0;resizeLast=0;collapsible=1;marginBottom=0;rounded=1;points=[[0,0.1],[0,0.05],[0,0.01],[0.5,1],[0.5,0],[1,0.05],[1,0.01]];fontColor=default;strokeColor=default;" parent="lzS3_q89dWGhRhvwKs83-76" vertex="1" collapsed="1"><mxGeometry y="150" width="160" height="40" as="geometry"><mxRectangle y="150" width="160" height="105" as="alternateBounds"/></mxGeometry></mxCell><mxCell id="lzS3_q89dWGhRhvwKs83-105" value="onUTextTab" style="text;strokeColor=none;fillColor=none;align=left;verticalAlign=middle;spacingLeft=6;spacingRight=4;overflow=hidden;rotatable=0;points=[[0,0.5],[1,0.5]];portConstraint=eastwest;rounded=1;fontColor=default;spacingBottom=2;" parent="lzS3_q89dWGhRhvwKs83-104" vertex="1"><mxGeometry y="30" width="160" height="25" as="geometry"/></mxCell><mxCell id="lzS3_q89dWGhRhvwKs83-108" value="onUTextBackspace" style="text;strokeColor=none;fillColor=none;align=left;verticalAlign=middle;spacingLeft=6;spacingRight=4;overflow=hidden;rotatable=0;points=[[0,0.5],[1,0.5]];portConstraint=eastwest;rounded=1;fontColor=default;spacingBottom=2;" parent="lzS3_q89dWGhRhvwKs83-104" vertex="1"><mxGeometry y="55" width="160" height="25" as="geometry"/></mxCell><mxCell id="lzS3_q89dWGhRhvwKs83-109" value="onUTextEnter" style="text;strokeColor=none;fillColor=none;align=left;verticalAlign=middle;spacingLeft=6;spacingRight=4;overflow=hidden;rotatable=0;points=[[0,0.5],[1,0.5]];portConstraint=eastwest;rounded=1;fontColor=default;spacingBottom=2;" parent="lzS3_q89dWGhRhvwKs83-104" vertex="1"><mxGeometry y="80" width="160" height="25" as="geometry"/></mxCell><mxCell id="lzS3_q89dWGhRhvwKs83-77" value="context" style="text;strokeColor=none;fillColor=none;align=left;verticalAlign=middle;spacingLeft=6;spacingRight=4;overflow=hidden;rotatable=0;points=[[0,0.5],[1,0.5]];portConstraint=eastwest;rounded=1;fontColor=default;spacingBottom=2;" parent="lzS3_q89dWGhRhvwKs83-76" vertex="1"><mxGeometry y="190" width="160" height="25" as="geometry"/></mxCell><mxCell id="lzS3_q89dWGhRhvwKs83-96" value="UTextEventHandlers" style="text;strokeColor=none;fillColor=none;align=left;verticalAlign=middle;spacingLeft=6;spacingRight=4;overflow=hidden;rotatable=0;points=[[0,0.5],[1,0.5]];portConstraint=eastwest;rounded=1;fontColor=default;spacingBottom=2;" parent="lzS3_q89dWGhRhvwKs83-76" vertex="1"><mxGeometry y="215" width="160" height="25" as="geometry"/></mxCell><mxCell id="lzS3_q89dWGhRhvwKs83-103" value="handleUFormEvent" style="text;strokeColor=none;fillColor=none;align=left;verticalAlign=middle;spacingLeft=6;spacingRight=4;overflow=hidden;rotatable=0;points=[[0,0.5],[1,0.5]];portConstraint=eastwest;rounded=1;fontColor=default;spacingBottom=2;" parent="lzS3_q89dWGhRhvwKs83-76" vertex="1"><mxGeometry y="240" width="160" height="25" as="geometry"/></mxCell><mxCell id="0blFwm7W57RhLZQLDnfO-0" value="UPageState" style="swimlane;fontStyle=0;childLayout=stackLayout;horizontal=1;startSize=30;fillColor=none;horizontalStack=0;resizeParent=1;resizeParentMax=0;resizeLast=0;collapsible=1;marginBottom=0;rounded=1;points=[[0,0.1],[0,0.05],[0,0.01],[0.5,1],[0.5,0],[1,0.05],[1,0.01]];fontColor=default;strokeColor=default;container=1;moveCells=0;treeFolding=0;treeMoving=0;snapToPoint=0;" vertex="1" parent="3RDXuJe9gw5BwNleq9T0-1"><mxGeometry x="-360.0000000000001" y="860" width="160" height="106" as="geometry"><mxRectangle x="-160.0000000000001" y="560" width="160" height="40" as="alternateBounds"/></mxGeometry></mxCell><mxCell id="0blFwm7W57RhLZQLDnfO-1" value="editor" style="text;strokeColor=none;fillColor=none;align=left;verticalAlign=middle;spacingLeft=6;spacingRight=4;overflow=hidden;rotatable=0;points=[[0,0.5],[1,0.5]];portConstraint=eastwest;rounded=1;fontColor=default;spacingBottom=2;" vertex="1" parent="0blFwm7W57RhLZQLDnfO-0"><mxGeometry y="30" width="160" height="25" as="geometry"/></mxCell><mxCell id="0blFwm7W57RhLZQLDnfO-5" value="" style="text;align=center;verticalAlign=bottom;spacingLeft=4;spacingRight=4;overflow=hidden;rotatable=0;points=[[0,0.5],[1,0.5]];portConstraint=eastwest;rounded=1;horizontal=1;fontColor=#ffffff;fillColor=#FFFFFF;strokeColor=default;" vertex="1" parent="0blFwm7W57RhLZQLDnfO-0"><mxGeometry y="55" width="160" height="1" as="geometry"/></mxCell><mxCell id="0blFwm7W57RhLZQLDnfO-6" value="createGrid" style="text;strokeColor=none;fillColor=none;align=left;verticalAlign=middle;spacingLeft=6;spacingRight=4;overflow=hidden;rotatable=0;points=[[0,0.5],[1,0.5]];portConstraint=eastwest;rounded=1;fontColor=default;spacingBottom=2;" vertex="1" parent="0blFwm7W57RhLZQLDnfO-0"><mxGeometry y="56" width="160" height="25" as="geometry"/></mxCell><mxCell id="0blFwm7W57RhLZQLDnfO-7" value="handleUFormEvent" style="text;strokeColor=none;fillColor=none;align=left;verticalAlign=middle;spacingLeft=6;spacingRight=4;overflow=hidden;rotatable=0;points=[[0,0.5],[1,0.5]];portConstraint=eastwest;rounded=1;fontColor=default;spacingBottom=2;" vertex="1" parent="0blFwm7W57RhLZQLDnfO-0"><mxGeometry y="81" width="160" height="25" as="geometry"/></mxCell><mxCell id="0blFwm7W57RhLZQLDnfO-9" style="edgeStyle=elbowEdgeStyle;rounded=1;orthogonalLoop=1;jettySize=auto;html=1;entryX=0;entryY=0.05;entryDx=0;entryDy=0;" edge="1" parent="3RDXuJe9gw5BwNleq9T0-1" source="0blFwm7W57RhLZQLDnfO-1" target="SJr02IDGZpaZOxx_1kyR-0"><mxGeometry relative="1" as="geometry"/></mxCell><mxCell id="0blFwm7W57RhLZQLDnfO-10" value="IdeaState" style="swimlane;fontStyle=0;childLayout=stackLayout;horizontal=1;startSize=30;fillColor=none;horizontalStack=0;resizeParent=1;resizeParentMax=0;resizeLast=0;collapsible=1;marginBottom=0;rounded=1;points=[[0,0.1],[0,0.05],[0,0.01],[0.5,1],[0.5,0],[1,0.05],[1,0.01]];fontColor=default;strokeColor=default;container=1;moveCells=0;treeFolding=0;treeMoving=0;snapToPoint=0;" vertex="1" parent="3RDXuJe9gw5BwNleq9T0-1"><mxGeometry x="-360.0000000000001" y="559" width="160" height="81" as="geometry"><mxRectangle x="-160.0000000000001" y="560" width="160" height="40" as="alternateBounds"/></mxGeometry></mxCell><mxCell id="0blFwm7W57RhLZQLDnfO-11" value="editor" style="text;strokeColor=none;fillColor=none;align=left;verticalAlign=middle;spacingLeft=6;spacingRight=4;overflow=hidden;rotatable=0;points=[[0,0.5],[1,0.5]];portConstraint=eastwest;rounded=1;fontColor=default;spacingBottom=2;" vertex="1" parent="0blFwm7W57RhLZQLDnfO-10"><mxGeometry y="30" width="160" height="25" as="geometry"/></mxCell><mxCell id="0blFwm7W57RhLZQLDnfO-12" value="" style="text;align=center;verticalAlign=bottom;spacingLeft=4;spacingRight=4;overflow=hidden;rotatable=0;points=[[0,0.5],[1,0.5]];portConstraint=eastwest;rounded=1;horizontal=1;fontColor=#ffffff;fillColor=#FFFFFF;strokeColor=default;" vertex="1" parent="0blFwm7W57RhLZQLDnfO-10"><mxGeometry y="55" width="160" height="1" as="geometry"/></mxCell><mxCell id="0blFwm7W57RhLZQLDnfO-14" value="handleUCardEvent" style="text;strokeColor=none;fillColor=none;align=left;verticalAlign=middle;spacingLeft=6;spacingRight=4;overflow=hidden;rotatable=0;points=[[0,0.5],[1,0.5]];portConstraint=eastwest;rounded=1;fontColor=default;spacingBottom=2;" vertex="1" parent="0blFwm7W57RhLZQLDnfO-10"><mxGeometry y="56" width="160" height="25" as="geometry"/></mxCell><mxCell id="0blFwm7W57RhLZQLDnfO-15" style="edgeStyle=elbowEdgeStyle;rounded=1;orthogonalLoop=1;jettySize=auto;html=1;entryX=0;entryY=0.05;entryDx=0;entryDy=0;" edge="1" parent="3RDXuJe9gw5BwNleq9T0-1" source="0blFwm7W57RhLZQLDnfO-11" target="SJr02IDGZpaZOxx_1kyR-0"><mxGeometry relative="1" as="geometry"/></mxCell><mxCell id="0blFwm7W57RhLZQLDnfO-16" value="IdeaChangesCollector" style="rounded=1;whiteSpace=wrap;arcSize=22;fontFamily=Helvetica;fontSize=11;fontColor=default;strokeColor=default;fillColor=none;startSize=26;glass=0;" vertex="1" parent="3RDXuJe9gw5BwNleq9T0-1"><mxGeometry x="-360" y="720" width="160" height="40" as="geometry"/></mxCell><mxCell id="0blFwm7W57RhLZQLDnfO-17" value="Unlike upage it collects changes to verify them and only then send" style="rounded=1;whiteSpace=wrap;arcSize=22;fontFamily=Helvetica;fontSize=11;fontColor=default;strokeColor=none;fillColor=none;dashed=1;startSize=26;" vertex="1" parent="3RDXuJe9gw5BwNleq9T0-1"><mxGeometry x="-360" y="665" width="140" height="40" as="geometry"/></mxCell></root></mxGraphModel></diagram><diagram id="6W2xgavILYynabT8v1tT" name="Idea state"><mxGraphModel dx="2598" dy="706" grid="0" gridSize="10" guides="1" tooltips="1" connect="1" arrows="1" fold="1" page="0" pageScale="1" pageWidth="827" pageHeight="1169" math="0" shadow="0"><root><mxCell id="4SEBwe7NUWmAVe4f4uTE-0"/><mxCell id="4SEBwe7NUWmAVe4f4uTE-1" parent="4SEBwe7NUWmAVe4f4uTE-0"/><mxCell id="LN_8XwRn48wp35OMLSjD-8" value="IdeaDTO" style="swimlane;fontStyle=0;childLayout=stackLayout;horizontal=1;startSize=30;fillColor=none;horizontalStack=0;resizeParent=1;resizeParentMax=0;resizeLast=0;collapsible=1;marginBottom=0;rounded=1;points=[[0,0.1],[0,0.05],[0,0.01],[0.5,1],[0.5,0],[1,0.05],[1,0.01]];fontColor=default;strokeColor=default;" parent="4SEBwe7NUWmAVe4f4uTE-1" vertex="1"><mxGeometry x="-639.9999999999999" y="520" width="160" height="155" as="geometry"><mxRectangle x="580" y="-1120" width="160" height="40" as="alternateBounds"/></mxGeometry></mxCell><mxCell id="NX8WSV22ZGsCUYS_sOsy-1" value="ownerId" style="text;strokeColor=none;fillColor=none;align=left;verticalAlign=middle;spacingLeft=6;spacingRight=4;overflow=hidden;rotatable=0;points=[[0,0.5],[1,0.5]];portConstraint=eastwest;rounded=1;fontColor=default;spacingBottom=2;" vertex="1" parent="LN_8XwRn48wp35OMLSjD-8"><mxGeometry y="30" width="160" height="25" as="geometry"/></mxCell><mxCell id="8nIH2ybCqP5tXv_nUmHW-0" value="upageId" style="text;strokeColor=none;fillColor=none;align=left;verticalAlign=middle;spacingLeft=6;spacingRight=4;overflow=hidden;rotatable=0;points=[[0,0.5],[1,0.5]];portConstraint=eastwest;rounded=1;fontColor=default;spacingBottom=2;" parent="LN_8XwRn48wp35OMLSjD-8" vertex="1"><mxGeometry y="55" width="160" height="25" as="geometry"/></mxCell><mxCell id="LN_8XwRn48wp35OMLSjD-9" value="updates" style="text;strokeColor=none;fillColor=none;align=left;verticalAlign=middle;spacingLeft=6;spacingRight=4;overflow=hidden;rotatable=0;points=[[0,0.5],[1,0.5]];portConstraint=eastwest;rounded=1;fontColor=default;spacingBottom=2;" parent="LN_8XwRn48wp35OMLSjD-8" vertex="1"><mxGeometry y="80" width="160" height="25" as="geometry"/></mxCell><mxCell id="LN_8XwRn48wp35OMLSjD-10" value="deletedAt" style="text;strokeColor=none;fillColor=none;align=left;verticalAlign=middle;spacingLeft=6;spacingRight=4;overflow=hidden;rotatable=0;points=[[0,0.5],[1,0.5]];portConstraint=eastwest;rounded=1;fontColor=default;spacingBottom=2;" parent="LN_8XwRn48wp35OMLSjD-8" vertex="1"><mxGeometry y="105" width="160" height="25" as="geometry"/></mxCell><mxCell id="DcqxUnX2PM6_qjoy3W4h-14" value="builtIn" style="text;strokeColor=none;fillColor=none;align=left;verticalAlign=middle;spacingLeft=6;spacingRight=4;overflow=hidden;rotatable=0;points=[[0,0.5],[1,0.5]];portConstraint=eastwest;rounded=1;fontColor=default;spacingBottom=2;" vertex="1" parent="LN_8XwRn48wp35OMLSjD-8"><mxGeometry y="130" width="160" height="25" as="geometry"/></mxCell><mxCell id="LN_8XwRn48wp35OMLSjD-16" style="edgeStyle=none;rounded=1;orthogonalLoop=1;jettySize=auto;html=1;entryX=0.5;entryY=1;entryDx=0;entryDy=0;fontColor=#FF3399;endArrow=classic;endFill=1;strokeColor=#FFFFFF;" parent="4SEBwe7NUWmAVe4f4uTE-1" source="LN_8XwRn48wp35OMLSjD-11" target="LN_8XwRn48wp35OMLSjD-15" edge="1"><mxGeometry relative="1" as="geometry"/></mxCell><mxCell id="LN_8XwRn48wp35OMLSjD-11" value="IdeaData" style="swimlane;fontStyle=0;childLayout=stackLayout;horizontal=1;startSize=30;fillColor=none;horizontalStack=0;resizeParent=1;resizeParentMax=0;resizeLast=0;collapsible=1;marginBottom=0;rounded=1;points=[[0,0.1],[0,0.05],[0,0.01],[0.5,1],[0.5,0],[1,0.05],[1,0.01]];fontColor=default;strokeColor=default;" parent="4SEBwe7NUWmAVe4f4uTE-1" vertex="1"><mxGeometry x="-439.9999999999999" y="520" width="160" height="80" as="geometry"><mxRectangle x="580" y="-1120" width="160" height="40" as="alternateBounds"/></mxGeometry></mxCell><mxCell id="LN_8XwRn48wp35OMLSjD-13" value="ucards" style="text;strokeColor=none;fillColor=none;align=left;verticalAlign=middle;spacingLeft=6;spacingRight=4;overflow=hidden;rotatable=0;points=[[0,0.5],[1,0.5]];portConstraint=eastwest;rounded=1;fontColor=default;spacingBottom=2;" parent="LN_8XwRn48wp35OMLSjD-11" vertex="1"><mxGeometry y="30" width="160" height="25" as="geometry"/></mxCell><mxCell id="LN_8XwRn48wp35OMLSjD-14" value="type" style="text;strokeColor=none;fillColor=none;align=left;verticalAlign=middle;spacingLeft=6;spacingRight=4;overflow=hidden;rotatable=0;points=[[0,0.5],[1,0.5]];portConstraint=eastwest;rounded=1;fontColor=default;spacingBottom=2;" parent="LN_8XwRn48wp35OMLSjD-11" vertex="1"><mxGeometry y="55" width="160" height="25" as="geometry"/></mxCell><mxCell id="LN_8XwRn48wp35OMLSjD-15" value="UFormLike" style="rounded=1;whiteSpace=wrap;arcSize=22;fontFamily=Helvetica;fontSize=11;fontColor=default;strokeColor=default;fillColor=none;startSize=26;" parent="4SEBwe7NUWmAVe4f4uTE-1" vertex="1"><mxGeometry x="-440" y="440" width="160" height="40" as="geometry"/></mxCell><mxCell id="98Fldb8F-iPLB9mCToZY-7" style="edgeStyle=elbowEdgeStyle;rounded=1;orthogonalLoop=1;jettySize=auto;html=1;entryX=0.5;entryY=1;entryDx=0;entryDy=0;fontColor=#FF3399;endArrow=classic;endFill=1;strokeColor=#FFFFFF;elbow=vertical;" parent="4SEBwe7NUWmAVe4f4uTE-1" source="LN_8XwRn48wp35OMLSjD-21" target="98Fldb8F-iPLB9mCToZY-5" edge="1"><mxGeometry relative="1" as="geometry"/></mxCell><mxCell id="LN_8XwRn48wp35OMLSjD-21" value="Text" style="swimlane;fontStyle=0;childLayout=stackLayout;horizontal=1;startSize=30;fillColor=none;horizontalStack=0;resizeParent=1;resizeParentMax=0;resizeLast=0;collapsible=1;marginBottom=0;rounded=1;points=[[0,0.1],[0,0.05],[0,0.01],[0.5,1],[0.5,0],[1,0.05],[1,0.01]];fontColor=default;strokeColor=default;" parent="4SEBwe7NUWmAVe4f4uTE-1" vertex="1"><mxGeometry x="-439.9999999999999" y="760" width="160" height="105" as="geometry"><mxRectangle x="580" y="-1120" width="160" height="40" as="alternateBounds"/></mxGeometry></mxCell><mxCell id="LN_8XwRn48wp35OMLSjD-22" value="ublockId" style="text;strokeColor=none;fillColor=none;align=left;verticalAlign=middle;spacingLeft=6;spacingRight=4;overflow=hidden;rotatable=0;points=[[0,0.5],[1,0.5]];portConstraint=eastwest;rounded=1;fontColor=default;spacingBottom=2;" parent="LN_8XwRn48wp35OMLSjD-21" vertex="1"><mxGeometry y="30" width="160" height="25" as="geometry"/></mxCell><mxCell id="LN_8XwRn48wp35OMLSjD-26" value="from" style="text;strokeColor=none;fillColor=none;align=left;verticalAlign=middle;spacingLeft=6;spacingRight=4;overflow=hidden;rotatable=0;points=[[0,0.5],[1,0.5]];portConstraint=eastwest;rounded=1;fontColor=default;spacingBottom=2;" parent="LN_8XwRn48wp35OMLSjD-21" vertex="1"><mxGeometry y="55" width="160" height="25" as="geometry"/></mxCell><mxCell id="LN_8XwRn48wp35OMLSjD-27" value="to" style="text;strokeColor=none;fillColor=none;align=left;verticalAlign=middle;spacingLeft=6;spacingRight=4;overflow=hidden;rotatable=0;points=[[0,0.5],[1,0.5]];portConstraint=eastwest;rounded=1;fontColor=default;spacingBottom=2;" parent="LN_8XwRn48wp35OMLSjD-21" vertex="1"><mxGeometry y="80" width="160" height="25" as="geometry"/></mxCell><mxCell id="LN_8XwRn48wp35OMLSjD-23" style="rounded=1;orthogonalLoop=1;jettySize=auto;html=1;fontColor=#FF3399;endArrow=none;endFill=0;strokeColor=#FFFFFF;opacity=30;dashed=1;entryX=1;entryY=0.5;entryDx=0;entryDy=0;" parent="4SEBwe7NUWmAVe4f4uTE-1" source="LN_8XwRn48wp35OMLSjD-24" target="LN_8XwRn48wp35OMLSjD-13" edge="1"><mxGeometry relative="1" as="geometry"><mxPoint x="-160.00000000000023" y="450" as="targetPoint"/></mxGeometry></mxCell><mxCell id="LN_8XwRn48wp35OMLSjD-24" value="Sorted array  of cards data&#10;&#10;if empty -&gt; ublocks contain uform block" style="rounded=1;whiteSpace=wrap;arcSize=22;fontFamily=Helvetica;fontSize=11;fontColor=default;strokeColor=none;fillColor=none;startSize=26;" parent="4SEBwe7NUWmAVe4f4uTE-1" vertex="1"><mxGeometry x="-260" y="360" width="80" height="90" as="geometry"/></mxCell><mxCell id="98Fldb8F-iPLB9mCToZY-8" style="edgeStyle=elbowEdgeStyle;rounded=1;orthogonalLoop=1;jettySize=auto;elbow=vertical;html=1;entryX=0.5;entryY=1;entryDx=0;entryDy=0;fontColor=#FF3399;endArrow=classic;endFill=1;strokeColor=#FFFFFF;" parent="4SEBwe7NUWmAVe4f4uTE-1" source="LN_8XwRn48wp35OMLSjD-25" target="98Fldb8F-iPLB9mCToZY-5" edge="1"><mxGeometry relative="1" as="geometry"/></mxCell><mxCell id="LN_8XwRn48wp35OMLSjD-25" value="Word card types" style="rounded=1;whiteSpace=wrap;arcSize=22;fontFamily=Helvetica;fontSize=11;fontColor=default;strokeColor=default;fillColor=none;startSize=26;" parent="4SEBwe7NUWmAVe4f4uTE-1" vertex="1"><mxGeometry x="-240" y="760" width="160" height="40" as="geometry"/></mxCell><mxCell id="98Fldb8F-iPLB9mCToZY-9" style="edgeStyle=elbowEdgeStyle;rounded=1;orthogonalLoop=1;jettySize=auto;elbow=vertical;html=1;entryX=0.5;entryY=1;entryDx=0;entryDy=0;fontColor=#FF3399;endArrow=classic;endFill=1;strokeColor=#FFFFFF;" parent="4SEBwe7NUWmAVe4f4uTE-1" source="LN_8XwRn48wp35OMLSjD-28" target="98Fldb8F-iPLB9mCToZY-5" edge="1"><mxGeometry relative="1" as="geometry"/></mxCell><mxCell id="LN_8XwRn48wp35OMLSjD-28" value="Image" style="swimlane;fontStyle=0;childLayout=stackLayout;horizontal=1;startSize=30;fillColor=none;horizontalStack=0;resizeParent=1;resizeParentMax=0;resizeLast=0;collapsible=1;marginBottom=0;rounded=1;points=[[0,0.1],[0,0.05],[0,0.01],[0.5,1],[0.5,0],[1,0.05],[1,0.01]];fontColor=default;strokeColor=default;" parent="4SEBwe7NUWmAVe4f4uTE-1" vertex="1"><mxGeometry x="-39.999999999999886" y="760" width="160" height="105" as="geometry"><mxRectangle x="580" y="-1120" width="160" height="40" as="alternateBounds"/></mxGeometry></mxCell><mxCell id="LN_8XwRn48wp35OMLSjD-32" value="ublockId" style="text;strokeColor=none;fillColor=none;align=left;verticalAlign=middle;spacingLeft=6;spacingRight=4;overflow=hidden;rotatable=0;points=[[0,0.5],[1,0.5]];portConstraint=eastwest;rounded=1;fontColor=default;spacingBottom=2;" parent="LN_8XwRn48wp35OMLSjD-28" vertex="1"><mxGeometry y="30" width="160" height="25" as="geometry"/></mxCell><mxCell id="LN_8XwRn48wp35OMLSjD-30" value="x / y" style="text;strokeColor=none;fillColor=none;align=left;verticalAlign=middle;spacingLeft=6;spacingRight=4;overflow=hidden;rotatable=0;points=[[0,0.5],[1,0.5]];portConstraint=eastwest;rounded=1;fontColor=default;spacingBottom=2;" parent="LN_8XwRn48wp35OMLSjD-28" vertex="1"><mxGeometry y="55" width="160" height="25" as="geometry"/></mxCell><mxCell id="LN_8XwRn48wp35OMLSjD-29" value="width / height" style="text;strokeColor=none;fillColor=none;align=left;verticalAlign=middle;spacingLeft=6;spacingRight=4;overflow=hidden;rotatable=0;points=[[0,0.5],[1,0.5]];portConstraint=eastwest;rounded=1;fontColor=default;spacingBottom=2;" parent="LN_8XwRn48wp35OMLSjD-28" vertex="1"><mxGeometry y="80" width="160" height="25" as="geometry"/></mxCell><mxCell id="98Fldb8F-iPLB9mCToZY-1" value="UCard" style="swimlane;fontStyle=0;childLayout=stackLayout;horizontal=1;startSize=30;fillColor=none;horizontalStack=0;resizeParent=1;resizeParentMax=0;resizeLast=0;collapsible=1;marginBottom=0;rounded=1;points=[[0,0.1],[0,0.05],[0,0.01],[0.5,1],[0.5,0],[1,0.05],[1,0.01]];fontColor=default;strokeColor=default;" parent="4SEBwe7NUWmAVe4f4uTE-1" vertex="1"><mxGeometry x="-239.9999999999999" y="520" width="160" height="130" as="geometry"><mxRectangle x="580" y="-1120" width="160" height="40" as="alternateBounds"/></mxGeometry></mxCell><mxCell id="98Fldb8F-iPLB9mCToZY-2" value="id" style="text;strokeColor=none;fillColor=none;align=left;verticalAlign=middle;spacingLeft=6;spacingRight=4;overflow=hidden;rotatable=0;points=[[0,0.5],[1,0.5]];portConstraint=eastwest;rounded=1;fontColor=default;spacingBottom=2;" parent="98Fldb8F-iPLB9mCToZY-1" vertex="1"><mxGeometry y="30" width="160" height="25" as="geometry"/></mxCell><mxCell id="98Fldb8F-iPLB9mCToZY-3" value="data" style="text;strokeColor=none;fillColor=none;align=left;verticalAlign=middle;spacingLeft=6;spacingRight=4;overflow=hidden;rotatable=0;points=[[0,0.5],[1,0.5]];portConstraint=eastwest;rounded=1;fontColor=default;spacingBottom=2;" parent="98Fldb8F-iPLB9mCToZY-1" vertex="1"><mxGeometry y="55" width="160" height="25" as="geometry"/></mxCell><mxCell id="8nIH2ybCqP5tXv_nUmHW-9" value="timeToAnswer" style="text;strokeColor=none;fillColor=none;align=left;verticalAlign=middle;spacingLeft=6;spacingRight=4;overflow=hidden;rotatable=0;points=[[0,0.5],[1,0.5]];portConstraint=eastwest;rounded=1;fontColor=default;spacingBottom=2;" parent="98Fldb8F-iPLB9mCToZY-1" vertex="1"><mxGeometry y="80" width="160" height="25" as="geometry"/></mxCell><mxCell id="8nIH2ybCqP5tXv_nUmHW-10" value="priority" style="text;strokeColor=none;fillColor=none;align=left;verticalAlign=middle;spacingLeft=6;spacingRight=4;overflow=hidden;rotatable=0;points=[[0,0.5],[1,0.5]];portConstraint=eastwest;rounded=1;fontColor=default;spacingBottom=2;" parent="98Fldb8F-iPLB9mCToZY-1" vertex="1"><mxGeometry y="105" width="160" height="25" as="geometry"/></mxCell><mxCell id="98Fldb8F-iPLB9mCToZY-4" style="edgeStyle=orthogonalEdgeStyle;rounded=1;orthogonalLoop=1;jettySize=auto;html=1;entryX=0;entryY=0.1;entryDx=0;entryDy=0;fontColor=#FF3399;endArrow=classic;endFill=1;strokeColor=#FFFFFF;elbow=vertical;" parent="4SEBwe7NUWmAVe4f4uTE-1" source="LN_8XwRn48wp35OMLSjD-13" target="98Fldb8F-iPLB9mCToZY-1" edge="1"><mxGeometry relative="1" as="geometry"/></mxCell><mxCell id="98Fldb8F-iPLB9mCToZY-5" value="Data" style="rounded=1;whiteSpace=wrap;arcSize=22;fontFamily=Helvetica;fontSize=11;fontColor=default;strokeColor=default;fillColor=none;startSize=26;" parent="4SEBwe7NUWmAVe4f4uTE-1" vertex="1"><mxGeometry x="-240" y="680" width="160" height="40" as="geometry"/></mxCell><mxCell id="98Fldb8F-iPLB9mCToZY-6" style="edgeStyle=orthogonalEdgeStyle;rounded=1;orthogonalLoop=1;jettySize=auto;html=1;entryX=1;entryY=0.5;entryDx=0;entryDy=0;fontColor=#FF3399;endArrow=classic;endFill=1;strokeColor=#FFFFFF;elbow=vertical;" parent="4SEBwe7NUWmAVe4f4uTE-1" source="98Fldb8F-iPLB9mCToZY-3" target="98Fldb8F-iPLB9mCToZY-5" edge="1"><mxGeometry relative="1" as="geometry"><Array as="points"><mxPoint x="-60" y="588"/><mxPoint x="-60" y="700"/></Array></mxGeometry></mxCell><mxCell id="98Fldb8F-iPLB9mCToZY-10" style="rounded=1;orthogonalLoop=1;jettySize=auto;html=1;entryX=0;entryY=0.1;entryDx=0;entryDy=0;fontColor=#FF3399;endArrow=classic;endFill=1;strokeColor=#FFFFFF;exitX=1;exitY=0.5;exitDx=0;exitDy=0;edgeStyle=elbowEdgeStyle;" parent="4SEBwe7NUWmAVe4f4uTE-1" source="LN_8XwRn48wp35OMLSjD-9" target="LN_8XwRn48wp35OMLSjD-11" edge="1"><mxGeometry relative="1" as="geometry"/></mxCell><mxCell id="98Fldb8F-iPLB9mCToZY-11" value="IdeaTrainingDTO" style="swimlane;fontStyle=0;childLayout=stackLayout;horizontal=1;startSize=30;fillColor=none;horizontalStack=0;resizeParent=1;resizeParentMax=0;resizeLast=0;collapsible=1;marginBottom=0;rounded=1;points=[[0,0.1],[0,0.05],[0,0.01],[0.5,1],[0.5,0],[1,0.05],[1,0.01]];fontColor=default;strokeColor=default;" parent="4SEBwe7NUWmAVe4f4uTE-1" vertex="1"><mxGeometry x="-839.9999999999999" y="520" width="160" height="205" as="geometry"><mxRectangle x="580" y="-1120" width="160" height="40" as="alternateBounds"/></mxGeometry></mxCell><mxCell id="8nIH2ybCqP5tXv_nUmHW-21" value="upageId" style="text;strokeColor=none;fillColor=none;align=left;verticalAlign=middle;spacingLeft=6;spacingRight=4;overflow=hidden;rotatable=0;points=[[0,0.5],[1,0.5]];portConstraint=eastwest;rounded=1;fontColor=default;spacingBottom=2;" parent="98Fldb8F-iPLB9mCToZY-11" vertex="1"><mxGeometry y="30" width="160" height="25" as="geometry"/></mxCell><mxCell id="8nIH2ybCqP5tXv_nUmHW-39" value="preview" style="text;strokeColor=none;fillColor=none;align=left;verticalAlign=middle;spacingLeft=6;spacingRight=4;overflow=hidden;rotatable=0;points=[[0,0.5],[1,0.5]];portConstraint=eastwest;rounded=1;fontColor=default;spacingBottom=2;" parent="98Fldb8F-iPLB9mCToZY-11" vertex="1"><mxGeometry y="55" width="160" height="25" as="geometry"/></mxCell><mxCell id="98Fldb8F-iPLB9mCToZY-12" value="dataId" style="text;strokeColor=none;fillColor=none;align=left;verticalAlign=middle;spacingLeft=6;spacingRight=4;overflow=hidden;rotatable=0;points=[[0,0.5],[1,0.5]];portConstraint=eastwest;rounded=1;fontColor=default;spacingBottom=2;" parent="98Fldb8F-iPLB9mCToZY-11" vertex="1"><mxGeometry y="80" width="160" height="25" as="geometry"/></mxCell><mxCell id="8nIH2ybCqP5tXv_nUmHW-2" value="idAndIndicators" style="text;strokeColor=none;fillColor=none;align=left;verticalAlign=middle;spacingLeft=6;spacingRight=4;overflow=hidden;rotatable=0;points=[[0,0.5],[1,0.5]];portConstraint=eastwest;rounded=1;fontColor=default;spacingBottom=2;" parent="98Fldb8F-iPLB9mCToZY-11" vertex="1"><mxGeometry y="105" width="160" height="25" as="geometry"/></mxCell><mxCell id="98Fldb8F-iPLB9mCToZY-13" value="frozen " style="text;strokeColor=none;fillColor=none;align=left;verticalAlign=middle;spacingLeft=6;spacingRight=4;overflow=hidden;rotatable=0;points=[[0,0.5],[1,0.5]];portConstraint=eastwest;rounded=1;fontColor=default;spacingBottom=2;" parent="98Fldb8F-iPLB9mCToZY-11" vertex="1"><mxGeometry y="130" width="160" height="25" as="geometry"/></mxCell><mxCell id="98Fldb8F-iPLB9mCToZY-15" value="repeatAt" style="text;strokeColor=none;fillColor=none;align=left;verticalAlign=middle;spacingLeft=6;spacingRight=4;overflow=hidden;rotatable=0;points=[[0,0.5],[1,0.5]];portConstraint=eastwest;rounded=1;fontColor=default;spacingBottom=2;" parent="98Fldb8F-iPLB9mCToZY-11" vertex="1"><mxGeometry y="155" width="160" height="25" as="geometry"/></mxCell><mxCell id="NX8WSV22ZGsCUYS_sOsy-0" value="createdAt" style="text;strokeColor=none;fillColor=none;align=left;verticalAlign=middle;spacingLeft=6;spacingRight=4;overflow=hidden;rotatable=0;points=[[0,0.5],[1,0.5]];portConstraint=eastwest;rounded=1;fontColor=default;spacingBottom=2;" vertex="1" parent="98Fldb8F-iPLB9mCToZY-11"><mxGeometry y="180" width="160" height="25" as="geometry"/></mxCell><mxCell id="98Fldb8F-iPLB9mCToZY-14" style="edgeStyle=elbowEdgeStyle;rounded=1;orthogonalLoop=1;jettySize=auto;html=1;entryX=0;entryY=0.1;entryDx=0;entryDy=0;fontColor=#FF3399;endArrow=classic;endFill=1;strokeColor=#FFFFFF;" parent="4SEBwe7NUWmAVe4f4uTE-1" source="98Fldb8F-iPLB9mCToZY-12" target="LN_8XwRn48wp35OMLSjD-8" edge="1"><mxGeometry relative="1" as="geometry"/></mxCell><mxCell id="8nIH2ybCqP5tXv_nUmHW-4" value="shared among users" style="rounded=1;whiteSpace=wrap;arcSize=22;fontFamily=Helvetica;fontSize=11;fontColor=default;strokeColor=none;fillColor=none;startSize=26;" parent="4SEBwe7NUWmAVe4f4uTE-1" vertex="1"><mxGeometry x="-620" y="480" width="110" height="20" as="geometry"/></mxCell><mxCell id="8nIH2ybCqP5tXv_nUmHW-5" value="personal&#10;upage, tta. priority are adjusted" style="rounded=1;whiteSpace=wrap;arcSize=22;fontFamily=Helvetica;fontSize=11;fontColor=default;strokeColor=none;fillColor=none;startSize=26;" parent="4SEBwe7NUWmAVe4f4uTE-1" vertex="1"><mxGeometry x="-845" y="480" width="170" height="20" as="geometry"/></mxCell><mxCell id="8nIH2ybCqP5tXv_nUmHW-20" value="contains default&#10;tta &amp; priority" style="rounded=1;whiteSpace=wrap;arcSize=22;fontFamily=Helvetica;fontSize=11;fontColor=default;strokeColor=none;fillColor=none;startSize=26;" parent="4SEBwe7NUWmAVe4f4uTE-1" vertex="1"><mxGeometry x="-220" y="480" width="110" height="20" as="geometry"/></mxCell><mxCell id="8nIH2ybCqP5tXv_nUmHW-22" value="cannot be deleted only frozen, otherwise sets deletedAt in ideaDto" style="rounded=1;whiteSpace=wrap;arcSize=22;fontFamily=Helvetica;fontSize=11;fontColor=default;strokeColor=none;fillColor=none;startSize=26;" parent="4SEBwe7NUWmAVe4f4uTE-1" vertex="1"><mxGeometry x="-832.5" y="757" width="135" height="20" as="geometry"/></mxCell><mxCell id="8nIH2ybCqP5tXv_nUmHW-23" value="Schedule" style="swimlane;fontStyle=0;childLayout=stackLayout;horizontal=1;startSize=30;fillColor=none;horizontalStack=0;resizeParent=1;resizeParentMax=0;resizeLast=0;collapsible=1;marginBottom=0;rounded=1;points=[[0,0.1],[0,0.05],[0,0.01],[0.5,1],[0.5,0],[1,0.05],[1,0.01]];fontColor=default;strokeColor=default;" parent="4SEBwe7NUWmAVe4f4uTE-1" vertex="1"><mxGeometry x="-840" y="280" width="160" height="80" as="geometry"><mxRectangle x="580" y="-1120" width="160" height="40" as="alternateBounds"/></mxGeometry></mxCell><mxCell id="8nIH2ybCqP5tXv_nUmHW-24" value="name" style="text;strokeColor=none;fillColor=none;align=left;verticalAlign=middle;spacingLeft=6;spacingRight=4;overflow=hidden;rotatable=0;points=[[0,0.5],[1,0.5]];portConstraint=eastwest;rounded=1;fontColor=default;spacingBottom=2;" parent="8nIH2ybCqP5tXv_nUmHW-23" vertex="1"><mxGeometry y="30" width="160" height="25" as="geometry"/></mxCell><mxCell id="8nIH2ybCqP5tXv_nUmHW-25" value="stages" style="text;strokeColor=none;fillColor=none;align=left;verticalAlign=middle;spacingLeft=6;spacingRight=4;overflow=hidden;rotatable=0;points=[[0,0.5],[1,0.5]];portConstraint=eastwest;rounded=1;fontColor=default;spacingBottom=2;" parent="8nIH2ybCqP5tXv_nUmHW-23" vertex="1"><mxGeometry y="55" width="160" height="25" as="geometry"/></mxCell><mxCell id="8nIH2ybCqP5tXv_nUmHW-27" value="Stage" style="swimlane;fontStyle=0;childLayout=stackLayout;horizontal=1;startSize=30;fillColor=none;horizontalStack=0;resizeParent=1;resizeParentMax=0;resizeLast=0;collapsible=1;marginBottom=0;rounded=1;points=[[0,0.1],[0,0.05],[0,0.01],[0.5,1],[0.5,0],[1,0.05],[1,0.01]];fontColor=default;strokeColor=default;" parent="4SEBwe7NUWmAVe4f4uTE-1" vertex="1"><mxGeometry x="-640" y="280" width="160" height="130" as="geometry"><mxRectangle x="580" y="-1120" width="160" height="40" as="alternateBounds"/></mxGeometry></mxCell><mxCell id="8nIH2ybCqP5tXv_nUmHW-28" value="id" style="text;strokeColor=none;fillColor=none;align=left;verticalAlign=middle;spacingLeft=6;spacingRight=4;overflow=hidden;rotatable=0;points=[[0,0.5],[1,0.5]];portConstraint=eastwest;rounded=1;fontColor=default;spacingBottom=2;" parent="8nIH2ybCqP5tXv_nUmHW-27" vertex="1"><mxGeometry y="30" width="160" height="25" as="geometry"/></mxCell><mxCell id="8nIH2ybCqP5tXv_nUmHW-31" value="color" style="text;strokeColor=none;fillColor=none;align=left;verticalAlign=middle;spacingLeft=6;spacingRight=4;overflow=hidden;rotatable=0;points=[[0,0.5],[1,0.5]];portConstraint=eastwest;rounded=1;fontColor=default;spacingBottom=2;" parent="8nIH2ybCqP5tXv_nUmHW-27" vertex="1"><mxGeometry y="55" width="160" height="25" as="geometry"/></mxCell><mxCell id="8nIH2ybCqP5tXv_nUmHW-29" value="timePeriod" style="text;strokeColor=none;fillColor=none;align=left;verticalAlign=middle;spacingLeft=6;spacingRight=4;overflow=hidden;rotatable=0;points=[[0,0.5],[1,0.5]];portConstraint=eastwest;rounded=1;fontColor=default;spacingBottom=2;" parent="8nIH2ybCqP5tXv_nUmHW-27" vertex="1"><mxGeometry y="80" width="160" height="25" as="geometry"/></mxCell><mxCell id="8nIH2ybCqP5tXv_nUmHW-33" value="deleted" style="text;strokeColor=none;fillColor=none;align=left;verticalAlign=middle;spacingLeft=6;spacingRight=4;overflow=hidden;rotatable=0;points=[[0,0.5],[1,0.5]];portConstraint=eastwest;rounded=1;fontColor=default;spacingBottom=2;" parent="8nIH2ybCqP5tXv_nUmHW-27" vertex="1"><mxGeometry y="105" width="160" height="25" as="geometry"/></mxCell><mxCell id="8nIH2ybCqP5tXv_nUmHW-32" style="edgeStyle=elbowEdgeStyle;rounded=1;orthogonalLoop=1;jettySize=auto;html=1;entryX=0;entryY=0.1;entryDx=0;entryDy=0;fontColor=#FFFFFF;endArrow=classic;endFill=1;strokeColor=#FFFFFF;" parent="4SEBwe7NUWmAVe4f4uTE-1" source="8nIH2ybCqP5tXv_nUmHW-25" target="8nIH2ybCqP5tXv_nUmHW-27" edge="1"><mxGeometry relative="1" as="geometry"/></mxCell><mxCell id="8nIH2ybCqP5tXv_nUmHW-34" value="cannot be deleted permanently" style="rounded=1;whiteSpace=wrap;arcSize=22;fontFamily=Helvetica;fontSize=11;fontColor=default;strokeColor=none;fillColor=none;startSize=26;" parent="4SEBwe7NUWmAVe4f4uTE-1" vertex="1"><mxGeometry x="-645" y="250" width="160" height="20" as="geometry"/></mxCell><mxCell id="8nIH2ybCqP5tXv_nUmHW-35" value="DefaultSchedules" style="swimlane;fontStyle=0;childLayout=stackLayout;horizontal=1;startSize=30;fillColor=none;horizontalStack=0;resizeParent=1;resizeParentMax=0;resizeLast=0;collapsible=1;marginBottom=0;rounded=1;points=[[0,0.1],[0,0.05],[0,0.01],[0.5,1],[0.5,0],[1,0.05],[1,0.01]];fontColor=default;strokeColor=default;" parent="4SEBwe7NUWmAVe4f4uTE-1" vertex="1"><mxGeometry x="-840" y="160" width="160" height="80" as="geometry"><mxRectangle x="580" y="-1120" width="160" height="40" as="alternateBounds"/></mxGeometry></mxCell><mxCell id="8nIH2ybCqP5tXv_nUmHW-36" value="usual" style="text;strokeColor=none;fillColor=none;align=left;verticalAlign=middle;spacingLeft=6;spacingRight=4;overflow=hidden;rotatable=0;points=[[0,0.5],[1,0.5]];portConstraint=eastwest;rounded=1;fontColor=default;spacingBottom=2;" parent="8nIH2ybCqP5tXv_nUmHW-35" vertex="1"><mxGeometry y="30" width="160" height="25" as="geometry"/></mxCell><mxCell id="8nIH2ybCqP5tXv_nUmHW-37" value="quick" style="text;strokeColor=none;fillColor=none;align=left;verticalAlign=middle;spacingLeft=6;spacingRight=4;overflow=hidden;rotatable=0;points=[[0,0.5],[1,0.5]];portConstraint=eastwest;rounded=1;fontColor=default;spacingBottom=2;" parent="8nIH2ybCqP5tXv_nUmHW-35" vertex="1"><mxGeometry y="55" width="160" height="25" as="geometry"/></mxCell><mxCell id="8nIH2ybCqP5tXv_nUmHW-38" value="up to 7 stages" style="rounded=1;whiteSpace=wrap;arcSize=22;fontFamily=Helvetica;fontSize=11;fontColor=default;strokeColor=none;fillColor=none;startSize=26;" parent="4SEBwe7NUWmAVe4f4uTE-1" vertex="1"><mxGeometry x="-845" y="370" width="160" height="20" as="geometry"/></mxCell><mxCell id="8nIH2ybCqP5tXv_nUmHW-44" value="IdeaAndUpdate" style="swimlane;fontStyle=0;childLayout=stackLayout;horizontal=1;startSize=30;fillColor=none;horizontalStack=0;resizeParent=1;resizeParentMax=0;resizeLast=0;collapsible=1;marginBottom=0;rounded=1;points=[[0,0.1],[0,0.05],[0,0.01],[0.5,1],[0.5,0],[1,0.05],[1,0.01]];fontColor=default;strokeColor=default;" parent="4SEBwe7NUWmAVe4f4uTE-1" vertex="1"><mxGeometry x="-639.9999999999999" y="920" width="160" height="105" as="geometry"><mxRectangle x="580" y="-1120" width="160" height="40" as="alternateBounds"/></mxGeometry></mxCell><mxCell id="8nIH2ybCqP5tXv_nUmHW-45" value="ideaId" style="text;strokeColor=none;fillColor=none;align=left;verticalAlign=middle;spacingLeft=6;spacingRight=4;overflow=hidden;rotatable=0;points=[[0,0.5],[1,0.5]];portConstraint=eastwest;rounded=1;fontColor=default;spacingBottom=2;" parent="8nIH2ybCqP5tXv_nUmHW-44" vertex="1"><mxGeometry y="30" width="160" height="25" as="geometry"/></mxCell><mxCell id="8nIH2ybCqP5tXv_nUmHW-46" value="preview" style="text;strokeColor=none;fillColor=none;align=left;verticalAlign=middle;spacingLeft=6;spacingRight=4;overflow=hidden;rotatable=0;points=[[0,0.5],[1,0.5]];portConstraint=eastwest;rounded=1;fontColor=default;spacingBottom=2;" parent="8nIH2ybCqP5tXv_nUmHW-44" vertex="1"><mxGeometry y="55" width="160" height="25" as="geometry"/></mxCell><mxCell id="8nIH2ybCqP5tXv_nUmHW-54" value="upageId" style="text;strokeColor=none;fillColor=none;align=left;verticalAlign=middle;spacingLeft=6;spacingRight=4;overflow=hidden;rotatable=0;points=[[0,0.5],[1,0.5]];portConstraint=eastwest;rounded=1;fontColor=default;spacingBottom=2;" parent="8nIH2ybCqP5tXv_nUmHW-44" vertex="1"><mxGeometry y="80" width="160" height="25" as="geometry"/></mxCell><mxCell id="8nIH2ybCqP5tXv_nUmHW-49" value="UPageAndUBlockUpdate" style="swimlane;fontStyle=0;childLayout=stackLayout;horizontal=1;startSize=30;fillColor=none;horizontalStack=0;resizeParent=1;resizeParentMax=0;resizeLast=0;collapsible=1;marginBottom=0;rounded=1;points=[[0,0.1],[0,0.05],[0,0.01],[0.5,1],[0.5,0],[1,0.05],[1,0.01]];fontColor=default;strokeColor=default;" parent="4SEBwe7NUWmAVe4f4uTE-1" vertex="1"><mxGeometry x="-439.9999999999999" y="920" width="160" height="105" as="geometry"><mxRectangle x="580" y="-1120" width="160" height="40" as="alternateBounds"/></mxGeometry></mxCell><mxCell id="8nIH2ybCqP5tXv_nUmHW-50" value="upageId" style="text;strokeColor=none;fillColor=none;align=left;verticalAlign=middle;spacingLeft=6;spacingRight=4;overflow=hidden;rotatable=0;points=[[0,0.5],[1,0.5]];portConstraint=eastwest;rounded=1;fontColor=default;spacingBottom=2;" parent="8nIH2ybCqP5tXv_nUmHW-49" vertex="1"><mxGeometry y="30" width="160" height="25" as="geometry"/></mxCell><mxCell id="8nIH2ybCqP5tXv_nUmHW-51" value="ublockId" style="text;strokeColor=none;fillColor=none;align=left;verticalAlign=middle;spacingLeft=6;spacingRight=4;overflow=hidden;rotatable=0;points=[[0,0.5],[1,0.5]];portConstraint=eastwest;rounded=1;fontColor=default;spacingBottom=2;" parent="8nIH2ybCqP5tXv_nUmHW-49" vertex="1"><mxGeometry y="55" width="160" height="25" as="geometry"/></mxCell><mxCell id="8nIH2ybCqP5tXv_nUmHW-52" value="updatedAt" style="text;strokeColor=none;fillColor=none;align=left;verticalAlign=middle;spacingLeft=6;spacingRight=4;overflow=hidden;rotatable=0;points=[[0,0.5],[1,0.5]];portConstraint=eastwest;rounded=1;fontColor=default;spacingBottom=2;" parent="8nIH2ybCqP5tXv_nUmHW-49" vertex="1"><mxGeometry y="80" width="160" height="25" as="geometry"/></mxCell><mxCell id="DcqxUnX2PM6_qjoy3W4h-0" value="TrainingIndicators" style="swimlane;fontStyle=0;childLayout=stackLayout;horizontal=1;startSize=30;fillColor=none;horizontalStack=0;resizeParent=1;resizeParentMax=0;resizeLast=0;collapsible=1;marginBottom=0;rounded=1;points=[[0,0.1],[0,0.05],[0,0.01],[0.5,1],[0.5,0],[1,0.05],[1,0.01]];fontColor=default;strokeColor=default;" vertex="1" parent="4SEBwe7NUWmAVe4f4uTE-1"><mxGeometry x="-639.9999999999999" y="720" width="160" height="155" as="geometry"><mxRectangle x="580" y="-1120" width="160" height="40" as="alternateBounds"/></mxGeometry></mxCell><mxCell id="DcqxUnX2PM6_qjoy3W4h-1" value="repeatAt" style="text;strokeColor=none;fillColor=none;align=left;verticalAlign=middle;spacingLeft=6;spacingRight=4;overflow=hidden;rotatable=0;points=[[0,0.5],[1,0.5]];portConstraint=eastwest;rounded=1;fontColor=default;spacingBottom=2;" vertex="1" parent="DcqxUnX2PM6_qjoy3W4h-0"><mxGeometry y="30" width="160" height="25" as="geometry"/></mxCell><mxCell id="DcqxUnX2PM6_qjoy3W4h-2" value="timeToAnswer" style="text;strokeColor=none;fillColor=none;align=left;verticalAlign=middle;spacingLeft=6;spacingRight=4;overflow=hidden;rotatable=0;points=[[0,0.5],[1,0.5]];portConstraint=eastwest;rounded=1;fontColor=default;spacingBottom=2;" vertex="1" parent="DcqxUnX2PM6_qjoy3W4h-0"><mxGeometry y="55" width="160" height="25" as="geometry"/></mxCell><mxCell id="DcqxUnX2PM6_qjoy3W4h-3" value="priority" style="text;strokeColor=none;fillColor=none;align=left;verticalAlign=middle;spacingLeft=6;spacingRight=4;overflow=hidden;rotatable=0;points=[[0,0.5],[1,0.5]];portConstraint=eastwest;rounded=1;fontColor=default;spacingBottom=2;" vertex="1" parent="DcqxUnX2PM6_qjoy3W4h-0"><mxGeometry y="80" width="160" height="25" as="geometry"/></mxCell><mxCell id="DcqxUnX2PM6_qjoy3W4h-4" value="stageId" style="text;strokeColor=none;fillColor=none;align=left;verticalAlign=middle;spacingLeft=6;spacingRight=4;overflow=hidden;rotatable=0;points=[[0,0.5],[1,0.5]];portConstraint=eastwest;rounded=1;fontColor=default;spacingBottom=2;" vertex="1" parent="DcqxUnX2PM6_qjoy3W4h-0"><mxGeometry y="105" width="160" height="25" as="geometry"/></mxCell><mxCell id="DcqxUnX2PM6_qjoy3W4h-5" value="errorRate" style="text;strokeColor=none;fillColor=none;align=left;verticalAlign=middle;spacingLeft=6;spacingRight=4;overflow=hidden;rotatable=0;points=[[0,0.5],[1,0.5]];portConstraint=eastwest;rounded=1;fontColor=default;spacingBottom=2;" vertex="1" parent="DcqxUnX2PM6_qjoy3W4h-0"><mxGeometry y="130" width="160" height="25" as="geometry"/></mxCell><mxCell id="DcqxUnX2PM6_qjoy3W4h-6" style="edgeStyle=elbowEdgeStyle;rounded=1;orthogonalLoop=1;jettySize=auto;html=1;entryX=0;entryY=0.1;entryDx=0;entryDy=0;" edge="1" parent="4SEBwe7NUWmAVe4f4uTE-1" source="8nIH2ybCqP5tXv_nUmHW-2" target="DcqxUnX2PM6_qjoy3W4h-0"><mxGeometry relative="1" as="geometry"/></mxCell><mxCell id="DcqxUnX2PM6_qjoy3W4h-8" value="UEvent" style="swimlane;fontStyle=0;childLayout=stackLayout;horizontal=1;startSize=30;fillColor=none;horizontalStack=0;resizeParent=1;resizeParentMax=0;resizeLast=0;collapsible=1;marginBottom=0;rounded=1;points=[[0,0.1],[0,0.05],[0,0.01],[0.5,1],[0.5,0],[1,0.05],[1,0.01]];fontColor=default;strokeColor=default;" vertex="1" parent="4SEBwe7NUWmAVe4f4uTE-1"><mxGeometry x="-839.9999999999999" y="920" width="160" height="180" as="geometry"><mxRectangle x="580" y="-1120" width="160" height="40" as="alternateBounds"/></mxGeometry></mxCell><mxCell id="DcqxUnX2PM6_qjoy3W4h-18" value="initiator" style="text;strokeColor=none;fillColor=none;align=left;verticalAlign=middle;spacingLeft=6;spacingRight=4;overflow=hidden;rotatable=0;points=[[0,0.5],[1,0.5]];portConstraint=eastwest;rounded=1;fontColor=default;spacingBottom=2;" vertex="1" parent="DcqxUnX2PM6_qjoy3W4h-8"><mxGeometry y="30" width="160" height="25" as="geometry"/></mxCell><mxCell id="DcqxUnX2PM6_qjoy3W4h-17" value="workspaceId" style="text;strokeColor=none;fillColor=none;align=left;verticalAlign=middle;spacingLeft=6;spacingRight=4;overflow=hidden;rotatable=0;points=[[0,0.5],[1,0.5]];portConstraint=eastwest;rounded=1;fontColor=default;spacingBottom=2;" vertex="1" parent="DcqxUnX2PM6_qjoy3W4h-8"><mxGeometry y="55" width="160" height="25" as="geometry"/></mxCell><mxCell id="DcqxUnX2PM6_qjoy3W4h-12" value="upageId" style="text;strokeColor=none;fillColor=none;align=left;verticalAlign=middle;spacingLeft=6;spacingRight=4;overflow=hidden;rotatable=0;points=[[0,0.5],[1,0.5]];portConstraint=eastwest;rounded=1;fontColor=default;spacingBottom=2;" vertex="1" parent="DcqxUnX2PM6_qjoy3W4h-8"><mxGeometry y="80" width="160" height="25" as="geometry"/></mxCell><mxCell id="DcqxUnX2PM6_qjoy3W4h-9" value="type" style="text;strokeColor=none;fillColor=none;align=left;verticalAlign=middle;spacingLeft=6;spacingRight=4;overflow=hidden;rotatable=0;points=[[0,0.5],[1,0.5]];portConstraint=eastwest;rounded=1;fontColor=default;spacingBottom=2;" vertex="1" parent="DcqxUnX2PM6_qjoy3W4h-8"><mxGeometry y="105" width="160" height="25" as="geometry"/></mxCell><mxCell id="DcqxUnX2PM6_qjoy3W4h-10" value="data" style="text;strokeColor=none;fillColor=none;align=left;verticalAlign=middle;spacingLeft=6;spacingRight=4;overflow=hidden;rotatable=0;points=[[0,0.5],[1,0.5]];portConstraint=eastwest;rounded=1;fontColor=default;spacingBottom=2;" vertex="1" parent="DcqxUnX2PM6_qjoy3W4h-8"><mxGeometry y="130" width="160" height="25" as="geometry"/></mxCell><mxCell id="DcqxUnX2PM6_qjoy3W4h-11" value="createdAt" style="text;strokeColor=none;fillColor=none;align=left;verticalAlign=middle;spacingLeft=6;spacingRight=4;overflow=hidden;rotatable=0;points=[[0,0.5],[1,0.5]];portConstraint=eastwest;rounded=1;fontColor=default;spacingBottom=2;" vertex="1" parent="DcqxUnX2PM6_qjoy3W4h-8"><mxGeometry y="155" width="160" height="25" as="geometry"/></mxCell><mxCell id="DcqxUnX2PM6_qjoy3W4h-13" style="edgeStyle=elbowEdgeStyle;rounded=1;orthogonalLoop=1;jettySize=auto;html=1;entryX=0;entryY=0.1;entryDx=0;entryDy=0;" edge="1" parent="4SEBwe7NUWmAVe4f4uTE-1" source="DcqxUnX2PM6_qjoy3W4h-10" target="8nIH2ybCqP5tXv_nUmHW-44"><mxGeometry relative="1" as="geometry"/></mxCell><mxCell id="DcqxUnX2PM6_qjoy3W4h-16" value="user has lastConsumedEventTime" style="rounded=1;whiteSpace=wrap;arcSize=22;fontFamily=Helvetica;fontSize=11;fontColor=default;strokeColor=none;fillColor=none;startSize=26;" vertex="1" parent="4SEBwe7NUWmAVe4f4uTE-1"><mxGeometry x="-840" y="1110" width="170" height="20" as="geometry"/></mxCell></root></mxGraphModel></diagram><diagram id="bQ-GDVwXmG1gcEL10rAY" name="Elements"><mxGraphModel dx="1773" dy="1841" grid="1" gridSize="10" guides="1" tooltips="1" connect="1" arrows="1" fold="1" page="1" pageScale="1" pageWidth="827" pageHeight="1169" math="0" shadow="0"><root><mxCell id="eQ8Q3YhI_VTfaVAVxC08-0"/><mxCell id="eQ8Q3YhI_VTfaVAVxC08-1" parent="eQ8Q3YhI_VTfaVAVxC08-0"/><mxCell id="wIryl3PzUY1IQkdJ8JMn-0" value="Hook" style="swimlane;fontStyle=0;childLayout=stackLayout;horizontal=1;startSize=26;horizontalStack=0;resizeParent=1;resizeParentMax=0;resizeLast=0;collapsible=1;marginBottom=0;rounded=1;points=[[0,0.1],[0,0.05],[0,0.01],[0.5,1],[0.5,0]];fillColor=none;" parent="eQ8Q3YhI_VTfaVAVxC08-1" vertex="1"><mxGeometry x="-520" y="-800" width="140" height="79" as="geometry"><mxRectangle x="235" y="-400" width="140" height="40" as="alternateBounds"/></mxGeometry></mxCell><mxCell id="wIryl3PzUY1IQkdJ8JMn-1" value="attr" style="text;strokeColor=none;fillColor=none;align=left;verticalAlign=top;spacingLeft=4;spacingRight=4;overflow=hidden;rotatable=0;points=[[0,0.5],[1,0.5]];portConstraint=eastwest;rounded=1;" parent="wIryl3PzUY1IQkdJ8JMn-0" vertex="1"><mxGeometry y="26" width="140" height="26" as="geometry"/></mxCell><mxCell id="wIryl3PzUY1IQkdJ8JMn-2" value="" style="text;align=center;verticalAlign=bottom;spacingLeft=4;spacingRight=4;overflow=hidden;rotatable=0;points=[[0,0.5],[1,0.5]];portConstraint=eastwest;rounded=1;horizontal=1;fontColor=#ffffff;fillColor=#FFFFFF;" parent="wIryl3PzUY1IQkdJ8JMn-0" vertex="1"><mxGeometry y="52" width="140" height="1" as="geometry"/></mxCell><mxCell id="wIryl3PzUY1IQkdJ8JMn-3" value="fn" style="text;strokeColor=none;fillColor=none;align=left;verticalAlign=top;spacingLeft=4;spacingRight=4;overflow=hidden;rotatable=0;points=[[0,0.5],[1,0.5]];portConstraint=eastwest;rounded=1;" parent="wIryl3PzUY1IQkdJ8JMn-0" vertex="1"><mxGeometry y="53" width="140" height="26" as="geometry"/></mxCell><mxCell id="wIryl3PzUY1IQkdJ8JMn-4" style="edgeStyle=elbowEdgeStyle;rounded=1;orthogonalLoop=1;jettySize=auto;html=1;entryX=0.5;entryY=0;entryDx=0;entryDy=0;endArrow=classic;endFill=1;strokeColor=#FFFFFF;elbow=vertical;" parent="eQ8Q3YhI_VTfaVAVxC08-1" source="wIryl3PzUY1IQkdJ8JMn-5" target="wIryl3PzUY1IQkdJ8JMn-0" edge="1"><mxGeometry relative="1" as="geometry"/></mxCell><mxCell id="wIryl3PzUY1IQkdJ8JMn-37" style="edgeStyle=elbowEdgeStyle;rounded=1;orthogonalLoop=1;jettySize=auto;elbow=vertical;html=1;entryX=0.5;entryY=1;entryDx=0;entryDy=0;endArrow=classic;endFill=1;strokeColor=#FFFFFF;" parent="eQ8Q3YhI_VTfaVAVxC08-1" source="wIryl3PzUY1IQkdJ8JMn-5" target="wIryl3PzUY1IQkdJ8JMn-33" edge="1"><mxGeometry relative="1" as="geometry"/></mxCell><mxCell id="wIryl3PzUY1IQkdJ8JMn-5" value="Child" style="swimlane;fontStyle=0;childLayout=stackLayout;horizontal=1;startSize=26;fillColor=none;horizontalStack=0;resizeParent=1;resizeParentMax=0;resizeLast=0;collapsible=1;marginBottom=0;rounded=1;points=[[0,0.1],[0,0.05],[0,0.01],[0.5,1],[0.5,0]];" parent="eQ8Q3YhI_VTfaVAVxC08-1" vertex="1"><mxGeometry x="-520.0000000000001" y="-960" width="140" height="105" as="geometry"><mxRectangle x="234.9999999999999" y="-810" width="80" height="40" as="alternateBounds"/></mxGeometry></mxCell><mxCell id="wIryl3PzUY1IQkdJ8JMn-6" value="bocks" style="text;strokeColor=none;fillColor=none;align=left;verticalAlign=top;spacingLeft=4;spacingRight=4;overflow=hidden;rotatable=0;points=[[0,0.5],[1,0.5]];portConstraint=eastwest;rounded=1;" parent="wIryl3PzUY1IQkdJ8JMn-5" vertex="1"><mxGeometry y="26" width="140" height="26" as="geometry"/></mxCell><mxCell id="wIryl3PzUY1IQkdJ8JMn-7" value="" style="text;align=center;verticalAlign=bottom;spacingLeft=4;spacingRight=4;overflow=hidden;rotatable=0;points=[[0,0.5],[1,0.5]];portConstraint=eastwest;rounded=1;horizontal=1;fontColor=#ffffff;fillColor=#FFFFFF;" parent="wIryl3PzUY1IQkdJ8JMn-5" vertex="1"><mxGeometry y="52" width="140" height="1" as="geometry"/></mxCell><mxCell id="wIryl3PzUY1IQkdJ8JMn-8" value="stateS // prop with set" style="text;strokeColor=none;fillColor=none;align=left;verticalAlign=top;spacingLeft=4;spacingRight=4;overflow=hidden;rotatable=0;points=[[0,0.5],[1,0.5]];portConstraint=eastwest;rounded=1;" parent="wIryl3PzUY1IQkdJ8JMn-5" vertex="1"><mxGeometry y="53" width="140" height="26" as="geometry"/></mxCell><mxCell id="wIryl3PzUY1IQkdJ8JMn-9" value="method // prop" style="text;strokeColor=none;fillColor=none;align=left;verticalAlign=top;spacingLeft=4;spacingRight=4;overflow=hidden;rotatable=0;points=[[0,0.5],[1,0.5]];portConstraint=eastwest;rounded=1;fontStyle=4" parent="wIryl3PzUY1IQkdJ8JMn-5" vertex="1"><mxGeometry y="79" width="140" height="26" as="geometry"/></mxCell><mxCell id="wIryl3PzUY1IQkdJ8JMn-19" value="Parent" style="swimlane;fontStyle=0;childLayout=stackLayout;horizontal=1;startSize=26;fillColor=none;horizontalStack=0;resizeParent=1;resizeParentMax=0;resizeLast=0;collapsible=1;marginBottom=0;rounded=1;points=[[0,0.1],[0,0.05],[0,0.01],[0.5,1],[0.5,0]];" parent="eQ8Q3YhI_VTfaVAVxC08-1" vertex="1"><mxGeometry x="-720.0000000000001" y="-960" width="140" height="157" as="geometry"><mxRectangle x="259.9999999999999" y="-390" width="80" height="40" as="alternateBounds"/></mxGeometry></mxCell><mxCell id="Ts9tCYn9tOAYAW1v9aTs-0" value="Interface" style="swimlane;fontStyle=0;childLayout=stackLayout;horizontal=1;startSize=26;fillColor=none;horizontalStack=0;resizeParent=1;resizeParentMax=0;resizeLast=0;collapsible=1;marginBottom=0;rounded=1;points=[[0,0.1],[0,0.05],[0,0.01],[0.5,1],[0.5,0]];" parent="wIryl3PzUY1IQkdJ8JMn-19" vertex="1"><mxGeometry y="26" width="140" height="78" as="geometry"><mxRectangle x="-520.0000000000003" y="-1100" width="140" height="40" as="alternateBounds"/></mxGeometry></mxCell><mxCell id="Ts9tCYn9tOAYAW1v9aTs-1" value="attr" style="text;strokeColor=none;fillColor=none;align=left;verticalAlign=top;spacingLeft=4;spacingRight=4;overflow=hidden;rotatable=0;points=[[0,0.5],[1,0.5]];portConstraint=eastwest;rounded=1;" parent="Ts9tCYn9tOAYAW1v9aTs-0" vertex="1"><mxGeometry y="26" width="140" height="26" as="geometry"/></mxCell><mxCell id="Ts9tCYn9tOAYAW1v9aTs-2" value="fn" style="text;strokeColor=none;fillColor=none;align=left;verticalAlign=top;spacingLeft=4;spacingRight=4;overflow=hidden;rotatable=0;points=[[0,0.5],[1,0.5]];portConstraint=eastwest;rounded=1;" parent="Ts9tCYn9tOAYAW1v9aTs-0" vertex="1"><mxGeometry y="52" width="140" height="26" as="geometry"/></mxCell><mxCell id="wIryl3PzUY1IQkdJ8JMn-20" value="component" style="text;strokeColor=none;fillColor=none;align=left;verticalAlign=top;spacingLeft=4;spacingRight=4;overflow=hidden;rotatable=0;points=[[0,0.5],[1,0.5]];portConstraint=eastwest;rounded=1;" parent="wIryl3PzUY1IQkdJ8JMn-19" vertex="1"><mxGeometry y="104" width="140" height="26" as="geometry"/></mxCell><mxCell id="wIryl3PzUY1IQkdJ8JMn-21" value="" style="text;align=center;verticalAlign=bottom;spacingLeft=4;spacingRight=4;overflow=hidden;rotatable=0;points=[[0,0.5],[1,0.5]];portConstraint=eastwest;rounded=1;horizontal=1;fontColor=#ffffff;fillColor=#FFFFFF;" parent="wIryl3PzUY1IQkdJ8JMn-19" vertex="1"><mxGeometry y="130" width="140" height="1" as="geometry"/></mxCell><mxCell id="wIryl3PzUY1IQkdJ8JMn-22" value="prop" style="text;strokeColor=none;fillColor=none;align=left;verticalAlign=top;spacingLeft=4;spacingRight=4;overflow=hidden;rotatable=0;points=[[0,0.5],[1,0.5]];portConstraint=eastwest;rounded=1;" parent="wIryl3PzUY1IQkdJ8JMn-19" vertex="1"><mxGeometry y="131" width="140" height="26" as="geometry"/></mxCell><mxCell id="wIryl3PzUY1IQkdJ8JMn-23" style="edgeStyle=elbowEdgeStyle;html=1;entryX=0;entryY=0.01;entryDx=0;entryDy=0;" parent="eQ8Q3YhI_VTfaVAVxC08-1" source="wIryl3PzUY1IQkdJ8JMn-20" target="wIryl3PzUY1IQkdJ8JMn-5" edge="1"><mxGeometry relative="1" as="geometry"/></mxCell><mxCell id="wIryl3PzUY1IQkdJ8JMn-33" value="Interface" style="swimlane;fontStyle=0;childLayout=stackLayout;horizontal=1;startSize=26;fillColor=none;horizontalStack=0;resizeParent=1;resizeParentMax=0;resizeLast=0;collapsible=1;marginBottom=0;rounded=1;points=[[0,0.1],[0,0.05],[0,0.01],[0.5,1],[0.5,0]];" parent="eQ8Q3YhI_VTfaVAVxC08-1" vertex="1"><mxGeometry x="-520.0000000000003" y="-1100" width="140" height="78" as="geometry"><mxRectangle x="-520.0000000000003" y="-1100" width="140" height="40" as="alternateBounds"/></mxGeometry></mxCell><mxCell id="wIryl3PzUY1IQkdJ8JMn-34" value="attr" style="text;strokeColor=none;fillColor=none;align=left;verticalAlign=top;spacingLeft=4;spacingRight=4;overflow=hidden;rotatable=0;points=[[0,0.5],[1,0.5]];portConstraint=eastwest;rounded=1;" parent="wIryl3PzUY1IQkdJ8JMn-33" vertex="1"><mxGeometry y="26" width="140" height="26" as="geometry"/></mxCell><mxCell id="wIryl3PzUY1IQkdJ8JMn-36" value="fn" style="text;strokeColor=none;fillColor=none;align=left;verticalAlign=top;spacingLeft=4;spacingRight=4;overflow=hidden;rotatable=0;points=[[0,0.5],[1,0.5]];portConstraint=eastwest;rounded=1;" parent="wIryl3PzUY1IQkdJ8JMn-33" vertex="1"><mxGeometry y="52" width="140" height="26" as="geometry"/></mxCell><mxCell id="Rp4hF93Nde370_oTa1lu-0" value="Underline to show difference between values and methods sections" style="rounded=1;whiteSpace=wrap;html=1;arcSize=22;dashed=1;fillColor=none;" parent="eQ8Q3YhI_VTfaVAVxC08-1" vertex="1"><mxGeometry x="-330" y="-950.5" width="120" height="80.5" as="geometry"/></mxCell><mxCell id="Rp4hF93Nde370_oTa1lu-1" style="html=1;entryX=1;entryY=0.5;entryDx=0;entryDy=0;dashed=1;rounded=0;endArrow=classic;endFill=1;strokeColor=#FFFFFF;elbow=vertical;" parent="eQ8Q3YhI_VTfaVAVxC08-1" source="Rp4hF93Nde370_oTa1lu-0" target="wIryl3PzUY1IQkdJ8JMn-9" edge="1"><mxGeometry relative="1" as="geometry"><mxPoint x="-330" y="-855" as="targetPoint"/></mxGeometry></mxCell></root></mxGraphModel></diagram><diagram id="tXuxOoIObp4oQ2kDxnd2" name="File deletion"><mxGraphModel dx="934" dy="706" grid="1" gridSize="10" guides="1" tooltips="1" connect="1" arrows="1" fold="1" page="1" pageScale="1" pageWidth="827" pageHeight="1169" math="0" shadow="0"><root><mxCell id="VdgKQGheFWDQrM-DTuiL-0"/><mxCell id="VdgKQGheFWDQrM-DTuiL-1" parent="VdgKQGheFWDQrM-DTuiL-0"/></root></mxGraphModel></diagram></mxfile>